<svg xmlns="http://www.w3.org/2000/svg" viewBox="0 0 32 32"><path d="M31.5 8.8l-2.1-4.2h-4.5l-1.5.1-2.2 2.4-2.5-2.2H14l-.3.3-1.3.6-1.9-1.2-3.4.6-6.3 6.6 1.2 2 1.8 2.4-.7 8.1-2.9 5.9 30.4-2.8-1-9z" fill="#5c2e0e" stroke="#5c2e0e" stroke-width=".6781" stroke-miterlimit="10"/><path d="M29.4 10.2l-1.8-3.7h-4l-1.3.1-2 2.1-2.1-1.9H14l-.2.3-1.2.5-1.6-1L8 7l-5.5 5.8 1 1.8 1.6 2.1-.6 7.1L1.9 29l26.7-2.5v-7.7z" fill="#4c0f0f"/><path d="M10.4 5.3l-7.5 7.8L4 14.9l3-1.6-3.2 11.4 1.3.7 3.8-.4L11 6.5zm7.9 1l-3 1.1-1.9 2.5-.7 7.4 1.4 1.8 4.5-.2 1.7-3.4.6-4.3-2.6-4.9zm-.1 8.2l-1.1 2h-1.5l-.8-1.5.4-3.5.8-1.3h1.9l.5 1.4-.2 2.9zm10.5-7.4h-3.8l-1.8 2.4-.9 5.6 1.7 3.5 3.6-.1 2.2-3.7.6-4.1-1.6-3.6zm-1 6.9l-1 1.9h-1.5l-.8-1.5.4-3.4.7-1.3h1.8l.5 1.4-.1 2.9zm-17.3 8.9l17.4-3.1 1.2 2.8-18 1.7zm-8.7 5.7l26.7-4.3 1.2 2.9-26.3 2z" fill="#cc2e2e"/><path d="M7.3 5.8l-5.6 5.9 1 1.8 3.1-1.6L4 24.6l3.9-.6 2.5-18.7zM18 5.5h-4l-1.9 2.6-.9 6 1.7 3.4 4.6-.2 1.7-3.5.6-4.4L18 5.5zm-1 7.3l-1.1 2h-1.6l-.8-1.5.5-3.6.8-1.4h1.9l.5 1.4-.2 3.1zm10.6-7.5h-3.8L22 7.8l-1 5.7 1.8 3.5 3.7-.1 2.3-3.7.5-4.2-1.7-3.7zm-1 7l-1 2h-1.5l-.8-1.5.4-3.5.7-1.3h1.9l.5 1.4-.2 2.9zm-15.9 9.3l17.1-2V21l-17.4 1.9zm-8.3 5.7l26-3v2.2L1.7 28.6z" fill="#ff5050"/><linearGradient id="A" gradientUnits="userSpaceOnUse" x1="6.216" y1="9.0432" x2="4.0122" y2="24.2997"><stop offset="0" stop-color="#ff6c6c"/><stop offset="1" stop-color="#ff5050"/></linearGradient><path d="M2.9 11.5l4.8-4.6h1.2L7 23.9H5l1.7-13.7-3.6 2.1z" fill="url(#A)"/><linearGradient id="B" gradientUnits="userSpaceOnUse" x1="15.5108" y1="6.1559" x2="15.5108" y2="16.5585"><stop offset="0" stop-color="#ff6c6c"/><stop offset="1" stop-color="#ff5050"/></linearGradient><path d="M14.8 6.3l-2 2.3-.6 4.9.9 2.5 3.6.1.5.2v-.1c.1 0 .1-.1 0-.1l1.5-4.5V8.9l-1.2-2.5-2.7-.1zm3.3 4.9l-1.7 4.5-2.9-.3-.7-2 .9-4.7 1.1-1.3h2.4l.8 1.3.1 2.5z" fill="url(#B)"/><linearGradient id="C" gradientUnits="userSpaceOnUse" x1="24.8625" y1="6.1559" x2="24.8625" y2="16.5585"><stop offset="0" stop-color="#ff6c6c"/><stop offset="1" stop-color="#ff5050"/></linearGradient><path d="M28.2 8.5L26.9 6l-2.7-.2-2 2.3-.6 4.9.9 2.5 3.6.1.5.2v-.1c.1 0 .1-.1 0-.1l1.5-4.5V8.5zm-2.5 6.7l-2.8-.2-.7-2 .8-4.7L24.1 7h2.4l.8 1.3.1 2.5-1.7 4.4z" fill="url(#C)"/></svg>