<svg xmlns="http://www.w3.org/2000/svg" viewBox="0 0 32 32"><ellipse cx="16.6" cy="16.3" rx="11.6" ry="12.5" fill="#4c0f0f"/><g fill="#5c2e0e"><path d="M13 31.3c-8.7.2-13.4-6.7-11.4-14.5C3.4 10 9 3.7 16.1 2.4 23.9.9 31.8 5.5 31.8 13.3c0 9.1-8.9 17.9-18.8 18zm3.8-26.6c-6 1.1-11.6 6.2-12.9 11.9-1.5 6.4 2.5 11.9 9.6 11.6 7.8-.3 14.9-7.2 15.1-14.5.2-6.4-5.3-10.2-11.8-9z"/><path d="M12.1 29.8C3.5 30-1.1 23 .9 15.3 2.6 8.5 9.2 2.5 16.2 1.1c7.6-1.5 14.4 2.8 14.4 10.7 0 9.1-8.8 17.8-18.5 18zm3.8-26.7C10 4.2 4.5 9.3 3.1 15c-1.5 6.4 2.4 11.9 9.4 11.6 7.7-.3 14.7-7.2 14.9-14.5.2-6.4-5.2-10.1-11.5-9z"/></g><g fill="#4c0e18"><path d="M5.7 25.9L4 23.1 24.4 3.8l2.1 1.6z"/><path d="M12.7 27.4c-7 .3-10.3-5.3-8.4-11.5 1.8-5.3 7.2-10 12.7-11.1 6-1.2 11.1 2 10.9 8.1-.2 7.1-7.4 14.2-15.2 14.5zm4-21c-4.7.8-9.2 4.8-10.6 9.3-1.5 5.1 1.4 9.5 7.1 9.1 6.2-.4 11.9-6 12.2-11.7.3-4.9-3.8-7.7-8.7-6.7z"/><path d="M7.7 24.4l-1.3-2.2L23.3 6.8 24.9 8z"/></g><path d="M13.4 30.1c-8.1.1-12.3-6.3-10.5-13.5C4.5 10.2 9.7 4.4 16.2 3.1 23.4 1.7 30.6 6 30.6 13.3c0 8.5-8.2 16.6-17.2 16.8zm3.5-24.9C11.4 6.2 6.2 11 5 16.3c-1.4 5.9 2.3 11.1 8.8 10.8 7.2-.3 13.7-6.7 13.9-13.5.2-6-4.9-9.4-10.8-8.4z" fill="#cc2e2e"/><path d="M12.3 28.6C4.2 28.8 0 22.3 1.8 15.1 3.4 8.8 9.5 3.2 16.1 1.9c7.1-1.4 13.5 2.6 13.5 9.9-.1 8.5-8.3 16.7-17.3 16.8zm3.5-24.8c-5.5 1-10.7 5.7-11.9 11.1-1.4 5.9 2.3 11.1 8.8 10.8 7.2-.3 13.7-6.7 13.9-13.5.2-6-4.9-9.5-10.8-8.4z" fill="#ff5050"/><path d="M19.2 15.9l2.3-1.3 3.6 1.5m-7.4-2.9l3-2.6 2.5-1.8m.5 15.1l-4.5-2.8-3.8-.7m2.3-12.3s.4-1.6 2.3-2.4m-8.8 11.1L9.5 16 6 18.1m7.4-4.3l-2.2-1.9-5.1-.6m1.8 12.3l2-1.7 3.8-1.3m1.1-12s0-1.5-1.6-1.7" fill="none" stroke="#26070c" stroke-width="1.2062" stroke-linecap="round" stroke-miterlimit="10"/><g fill="#26070c"><path d="M21.2 9.4h0c0-.1-.1-.1-.1-.2L19.7 7c-.4-.7-1.2-1.3-3-1h-.2c-1.8.3-2.8 1.2-3.3 2h0l-1.9 2.9-.4.5c-6 8.5-1.5 12.1 1 13.4l1.8 1 1.2-.6c1.8-.6 12.7-5.6 6.3-15.8z"/><path d="M12.5 12l2.8-.4-1.8 12.3c.1 0-7.7-2.3-1-11.9z"/><path d="M13.2 13.4h0c.7-.1 1.2.4 1.1 1.1l-.7 4.8c-.2 1.2-1.8 2-2.4 1.1-.8-1.1-1.1-3 .8-6.1.2-.5.7-.8 1.2-.9zm6-2.3l-2.9.4-1.7 12.4s9.6-3.8 4.6-12.8zm-3.1-2.6c-2.6.4-3 2.8-3 2.8l2.3-.3.5-.1 2.4-.3c.1-.1.4-2.5-2.2-2.1z"/><path d="M15.8 8.8s-.1 0 0 0c-.1 0-.1 0 0 0-.5.1-.8.2-1.1.4-.7.5-.5 1.4.3 1.3l.4-.1h.3l.4-.1c.8-.1 1.2-1.1.7-1.4-.3-.1-.6-.1-1-.1zm2 4h0c-.7.1-1.4.7-1.5 1.4l-.6 4.8c-.2 1.3 1.3 1.7 2.3.7 1.2-1.4 2.2-3.5.9-6.4-.2-.3-.6-.5-1.1-.5z"/><path d="M13.2 15.6c-.1.6-.5 1.1-.9 1.1s-.6-.4-.5-1 .5-1.1.9-1.1c.3 0 .6.4.5 1zm5.2-.6c-.1.6-.5 1.1-.9 1.2-.4 0-.7-.4-.6-1s.5-1.1.9-1.1c.3-.1.6.3.6.9zM11 22.3s4.8.9 7.5-.6-4.6 3.2-4.6 3.2L11 22.3z"/></g><path d="M19.2 15.2l2.1-1.3 5.9 2.8m-6.4-4l1.7-2h4.7m-9.6 1.8l3-2.5 2.1-1.2M24 23.6l-4.8-3.4-3.8-.7m2.2-11.9s.4-1.5 2.2-2.3M11.2 16l-1.6-.8-3.5 2.1m7.3-4.2l-2.1-1.8-4.9-.6m.4 12.9l3.1-2.7 3.9-1.3m1-11.5s0-1.5-1.6-1.6" fill="none" stroke-linecap="round" stroke-miterlimit="10" stroke="#4d4dff" stroke-width="1.1783"/><path d="M20 10.1h0l-.1-.1-1.2-2c-.3-.6-1-1.1-2.5-.9s-2.3 1-2.8 1.7h0l-1.6 2.5-.3.5c-5 7.3-1.3 10.5.9 11.6l1.5.8 1-.5c1.3-.5 10.4-4.8 5.1-13.6z" fill="#3333bc"/><path d="M12.7 11.4l2.8-.4-1.7 11.9s-7.7-2.2-1.1-11.5z" fill="#6161e2"/><path d="M13.2 12.7h0c.7-.1 1.1.4 1 1l-.7 4.6c-.2 1.2-1.8 1.9-2.4 1.1-.8-1.1-1.1-2.9.8-5.9.4-.4.8-.7 1.3-.8z" fill="#88f"/><path d="M19.3 10.5l-2.9.4-1.6 12c-.1 0 9.4-3.7 4.5-12.4z" fill="#6161e2"/><path d="M12.7 11.3l2.8-.3-1.7 10.7s-7.7-2-1.1-10.4zm6.6-.8l-2.9.4-1.6 10.8c-.1 0 9.4-3.3 4.5-11.2z" fill="#7979f2"/><path d="M16.1 8c-.1 0-.1 0 0 0-2.5.4-2.9 2.7-2.9 2.7l2.3-.3.5-.1 2.4-.3c0-.1.2-2.4-2.3-2z" fill="#6b6bff"/><path d="M15.7 8.3c-.5.1-.8.2-1.1.4-.6.5-.4 1.3.3 1.2l.4-.1h.3l.4-.1c.8-.1 1.2-1 .7-1.4-.2 0-.5-.1-1 0z" fill="#c0c0ff"/><path d="M17.7 12.2h0c-.7.1-1.3.7-1.4 1.4l-.6 4.7c-.2 1.2 1.3 1.7 2.3.7 1.2-1.3 2.2-3.4.9-6.2-.3-.5-.7-.7-1.2-.6z" fill="#88f"/><path d="M18.3 14.2c-.1.6-.5 1.1-.9 1.1s-.7-.4-.6-1 .5-1.1.9-1.1c.4.1.7.5.6 1z" fill="#c0c0ff"/><path d="M7.8 24.7l-2.3-1.2L24.1 5.3l.8 2.7z" fill="#4c0e18"/><path d="M4.7 26.1v-3.7l19.1-18 2 1.5z" fill="#ff5050"/><path d="M11.1 22l9.7-8.8-.2-1.1-10.2 10z" fill="#3333bc"/><path d="M22.2 12.8l1-1.1 3.8-.1" fill="none" stroke="#26070c" stroke-width="1.2062" stroke-linecap="round" stroke-miterlimit="10"/><g fill="#f99"><path d="M18.4 2.1s7.3-1 9.8 7.2c0 0-3.9-6.7-9.8-7.2z"/><path d="M24.6 4.6L10.1 18.4 25.1 5z"/></g><path d="M15.8 18.4l3.3-1.8s-1.2 2.7-3.6 4.1l.3-2.3zm-1.1-6.7l-.2.9-3.3 2.7 1.7-3.3 1.8-.3z" fill="#c0c0ff"/></svg>