<svg xmlns="http://www.w3.org/2000/svg" viewBox="0 0 32 32"><g fill="#5c2e0e"><path d="M30.3 9.7l.5 2.4-1.6.1zm-3.5-6.3c-.8-.8-2-2-2.5-2.2S23.1 1 22.7 1h-.4L5.4 3c-1 .1-2 1.1-2.3 2.2L.2 18.6s-.1.8.6 1.7l1.3 1.6c.1.2.3.3.5.4l-1.5 6.6H3l7.1-6.2h11.3c1.3 0 2.6-1.1 2.9-2.4L26.7 8v.1l.6-3.1c.1-.6-.1-1.2-.5-1.6z"/><path d="M31.2 8.4c-.7-.7-1.8-1.7-2.2-1.9-.6-.3-1.6-.2-1.6-.2l-4.6.4 4.8 4.8-13.2 1.6c-.9.1-1.8 1-2 2l-1.7 7.8-2.9-2-.7.3-.5 2.4s-.1.7.5 1.5c.3.4.8 1 1.2 1.4.3.4.8.6 1.4.6h1.7l7.5.3 3.2 4.3H25l.9-4.6h.1c1.2 0 2.3-1 2.5-2.1L31 13v-.2l.6-3c.2-.5 0-1-.4-1.4z"/></g><g fill="#158427"><path d="M18.9 25.1l3.5 5.1 2.1.3-.4-6.7zM26.4 7s1-.1 1.6.2c.4.2 1.5 1.2 2.1 1.9.4.4.5.9.5 1.4l-.6 2.7L26.4 7zM8.2 19.6l-.8.4-.4 2.4s-.1.7.5 1.4c.3.4.8 1 1.2 1.4.3.4.8.6 1.3.6h1.7l.4-3.5-3.9-2.7z"/><path d="M10.9 19.2l-3.2 3 2.1 3.1 4.8-.9z"/><path d="M28.6 10.2L13.8 12c-.9.1-1.8 1-2 1.9L9.6 24.1c-.2 1 .3 1.8 1.2 1.8h10.4l3.2 4.6.9-4.5h.1c1.2 0 2.3-.9 2.5-2.1L30.3 12c.2-1.2-.6-2-1.7-1.8z"/><path d="M26.2 7L11.5 8.8c-.9.1-1.8 1-2 1.9L7.2 20.9c-.2 1 .3 1.8 1.2 1.8h10.4l3.2 4.6.9-4.5h.1c1.2 0 2.3-.9 2.5-2.1l2.3-11.9c.3-1.1-.5-1.9-1.6-1.8z"/></g><path d="M26.9 7.8L12.2 9.6c-.9.1-1.8 1-2 1.9L8 21.7c-.2 1 .3 1.8 1.2 1.8h10.4l3.2 4.6.9-4.5h.1c1.2 0 2.3-.9 2.5-2.1l2.3-11.9c.3-1.1-.5-1.9-1.7-1.8z" fill="#78ed74"/><path d="M14.7 16.6c-.2.8-.9 1.4-1.5 1.4-.7 0-1.1-.5-.9-1.3.2-.7.8-1.4 1.5-1.4.6 0 1 .6.9 1.3zm4.4-.2c-.2.8-.9 1.5-1.7 1.5-.7 0-1.2-.6-1-1.3.2-.8.9-1.4 1.6-1.5.8-.1 1.2.5 1.1 1.3zm4.8-.3c-.2.8-1 1.5-1.8 1.6-.8 0-1.3-.6-1.1-1.4s.9-1.5 1.7-1.6 1.3.6 1.2 1.4z" fill="#73d7ef"/><g fill="#0f5b70"><path d="M14.3 16.2c-.2.8-.9 1.4-1.5 1.4-.7 0-1.1-.5-.9-1.3.2-.7.8-1.4 1.5-1.4.6 0 1.1.5.9 1.3zm4.4-.3c-.2.8-.9 1.5-1.7 1.5-.7 0-1.2-.6-1-1.3.2-.8.9-1.4 1.6-1.5.8-.1 1.3.5 1.1 1.3zm4.8-.3c-.2.8-1 1.5-1.8 1.6-.8 0-1.3-.6-1.1-1.4s.9-1.5 1.7-1.6c.8 0 1.4.6 1.2 1.4zm-12 5.1l-8.4 6.7h-.7l1.5-2.8 6.2-5.1z"/><path d="M13.9 21.3l5.6-1.3M22 1.8s1.1-.1 1.7.2c.4.2 1.6 1.3 2.3 2.1.4.4.6 1 .5 1.6L26 8.6l-4-6.8zM2.4 15.5l-.8.4-.5 2.6s-.1.7.6 1.6c.3.3.8.9 1.2 1.4.4.4.9.7 1.4.7h1.8l.4-3.8-4.1-2.9z"/><path d="M5.3 15l-3.4 3.2 2.3 3.4 5.1-1z"/><path d="M24.4 5.3l-15.9 2c-1 .1-1.9 1.1-2.1 2.1L4 20.4c-.2 1.1.3 1.9 1.3 2H21c1.2 0 2.5-1 2.7-2.3l2.5-12.8c.2-1.3-.6-2.2-1.8-2z"/><path d="M21.8 1.9l-15.9 2c-.9 0-1.9 1-2.1 2l-2.4 11c-.2 1.1.3 1.9 1.3 2h15.7c1.2 0 2.5-1 2.7-2.3l2.5-12.8c.3-1.2-.6-2.1-1.8-1.9z"/></g><path d="M22.6 2.7l-15.9 2c-1 .1-1.9 1.1-2.1 2.1l-2.4 11c-.2 1.1.3 1.9 1.3 2h15.7c1.2 0 2.5-1 2.7-2.3l2.5-12.8c.3-1.3-.5-2.1-1.8-2z" fill="#73d7ef"/><path d="M21.7 3.6L7.3 5.3c-.9.1-1.7 1-1.9 1.9l-2.2 9.9c-.2 1 .3 1.8 1.1 1.8h14.3c1.1 0 2.2-.9 2.5-2.1l2.3-11.6c.2-1-.6-1.8-1.7-1.6z" fill="#e9f9ff"/><path d="M9.4 12.2c-.2.8-.9 1.5-1.7 1.5-.7 0-1.2-.6-1-1.4s.9-1.5 1.6-1.5c.8 0 1.3.6 1.1 1.4zm4.7-.2c-.2.9-1 1.6-1.8 1.6s-1.3-.6-1.1-1.4 1-1.5 1.7-1.6c.9-.1 1.4.5 1.2 1.4zm5.2-.3c-.2.9-1 1.6-1.9 1.7-.9 0-1.4-.6-1.2-1.5s1-1.6 1.9-1.7c.8-.1 1.4.6 1.2 1.5z" fill="#73d7ef"/><path d="M9 11.8c-.2.8-.9 1.5-1.7 1.5-.7 0-1.2-.6-1-1.4s.9-1.5 1.6-1.5c.8-.1 1.3.5 1.1 1.4zm4.7-.3c-.2.9-1 1.6-1.8 1.6s-1.3-.6-1.1-1.4 1-1.5 1.7-1.6c.9-.1 1.4.5 1.2 1.4zm5.2-.3c-.2.9-1 1.6-1.9 1.7-.9 0-1.4-.6-1.2-1.5s1-1.6 1.9-1.7c.8-.1 1.4.6 1.2 1.5z" fill="#0f5b70"/><path d="M4.7 18.9l-.8 5.7 7-5.7z" fill="#73d7ef"/><path d="M5.5 18.1l-1.1 5.2 6.3-5.2z" fill="#e9f9ff"/><path d="M3.8 20l-1.4 7.4 1.4-1.1.8-6.6z" fill="#0f5b70"/></svg>