<svg xmlns="http://www.w3.org/2000/svg" viewBox="0 0 32 32"><g fill="#5c2e0e"><path d="M10.2 20s.6 2.9.2 5.8l-.4 2.7s4.1-.7 5.5-2.2 3.1-7.2 3.1-7.2l-1.7-1.9-6.7 2.8z"/><path d="M28.2 16.9c-.8 7.3-7.4 12.5-14.6 11.6-7.3-.8-11.3-7.3-10-14.5C4.8 8 10.9 2.3 18.1 3.2s11 6.5 10.1 13.7z"/><path d="M28.1 16.5c-.8 7-8.3 14.6-15 13.8S2.8 20.7 3.6 13.7C4.4 6.9 8.9 1.5 17.3 2.5c6.8.8 11.6 7.1 10.8 14z"/><ellipse transform="matrix(.1141 -.9934999999999999 .9934999999999999 .1141 -5.4838 26.821600000000004)" cx="12.3" cy="16.5" rx="9.3" ry="9"/><path d="M24.3 15.4s.6 3.8-.6 5.3c-1.3 1.5 3.8 2.2 3.8 2.2s2-4.1 1.6-6.4c-.5-2.3-4.8-1.1-4.8-1.1zm-4.9 9.8c1.7.1-1.8 5.3-3.8 5.8-2 .6-5.3.5-6.7-.2S4.4 24.9 4 23.2l-.8-3s.4.3 1.4.9c1.6 1 5.4 3.5 14.8 4.1zm-6.6-4.4s2.9-.9 4.6 0c0 0 .8.9.3 1.1-.5.3-1 .8-1.4.3-.4-.4-2.3-1.4-3.5-1.4zm-6.6-2.1s-.6-1.9-2-2.1c0 0-1 .3-1 .7s-.1 1 .4.8c.5-.1 2.1 0 2.6.6z"/><path d="M18.8 25.2l4.2-1.7.7 2s-2.3 3.3-6.8 4.6l1.9-4.9zm-9.5-7l2.4.5.4-1.7-2.7-.5zm3.9-3.2s2-1.4 4.3-.7 4.1 2.8 3 3.2-1.7-.5-2.2-1.3-2.2-1.6-4-.1c0 0-1-.3-1.1-1.1zm9.2-7.2C17 5.8 9.1 4.5 4.9 9.2c2 1.1 6.1 2.1 6.1 2.1l1.4-.6c4.7-2.2 9.8-.9 12.8.4-.5-1.5-1.4-2.9-2.8-3.3z"/><path d="M27.6 6.8l-1.2 4.5s-7-4.4-13.3-1.5l-1.2.5S5.6 9.1 5.1 7.9c0 0-1.2-1.8-.5-4 0 0 1.7.6 1.9 1.7 0 0-1.4-2.8 1.4-4l.2 1.7s5.1-3.8 8.8-3.7c0 0-1.6 1.5-1.6 3.4 0 0 4.1-1.6 8.4-1 0 0-.5 1.2-1.5 2.2 0-.1 2.8 1 5.4 2.6z"/><path d="M22.9 10.2l-2.3 2.3s2.5 4 2 8.1l6.2-2.9-1-7.1c.1 0-2.5-.3-4.9-.4z"/><path d="M21.7 19.1c.1 0 3.1-.5 3.1-.5l.1.8-3.2 1.7.3-1.7-.3-.3zm5.7-7.3l-5.8.7s.4-.4.8 1.3l3.8.3c.2 0 1.9-.4 1.9-.4l-.7-1.9zm-4.1-10S20.8 3.5 18 4l5 1.7-4.9.8c-1.4.1-3 .4-3 .4l7 1s-5.5.1-7.9 1.4c0 0 6.7-1.4 12.2 1.9l.9-.4 2-3.4s-3.1-2-5.1-2.5l-1.4-.6s.7-1.9 1.1-2.6l-.6.1z"/><path d="M29.2 7.5l-5.8-.1 2.9 1.4-5.6.2s2.8.4 4 2.3l.9.3 2.1-.5 1.5-3.6zM4.5 6.6S6.3 8 7.9 8.2l7.4.6-3.3 1.5s-5.2-.7-6.1-1.5C5 8.1 4.5 6.6 4.5 6.6zm5.4-5.4s-1.4 3.2-.7 5.2c0 0-1.5-1.9-1.3-4.1 0 0 .8-1 2-1.1z"/><path d="M14.4 0s-3.3 1.1-4.5 2.9S9 5.7 9 5.7s.7-2 2-2.7 3.4-3 3.4-3zm6.3 2.2c.1 0-3.8-.1-6.2 1.7s-4 2.6-4 2.6l4.7-1.7c.1 0 3.7-2.5 5.5-2.6zm4.2 18.7s2-1.4 3-1.2 2 5.1-1.8 5.4c-3.8.4-1.2-4.2-1.2-4.2z"/><path d="M24.7 21.3s2.5-2.8 3.7-2.5 2.1 6.7-2.5 7-1.2-4.5-1.2-4.5z"/><path d="M25.2 20.6s1.7-1 2.5-.8 1.5 4.5-1.7 4.7-.8-3.9-.8-3.9z"/><path d="M24.8 20.9s1.7-1 2.5-.8c.9.2 1.5 4.5-1.7 4.7s-.8-3.9-.8-3.9zm-12 8c-1.5 1.6-4.9.6-4.7-.8l4.7.8zm4-3.2c-.6.2-1.4.4-2.1.4-2.8 0-5.3-.4-8.2-1.2.4.3.7.4 1.1.5.4.6.6 1.3.7 1.8-.3 0-.5.2-1 0 1.9 1.1 4.8 1.4 5.9 1 .8-.3 2.4-1.1 4-2.4-.2.1-.3 0-.4-.1z"/><path d="M17.3 25.5c-.1-.1-.2-.1-.2-.2h.1c-.1 0-.2-.1-.2-.1-.7.3-1.6.6-2.3.6-2.8 0-5.3-.4-8.2-1.4v.5c.4.3.8.4 1.2.5.4.8.4 1.4.5 2.1-.3 0-.5-.1-1-.2 1.8 1.4 6.4 2 7.5 1.5.9-.3 1.3-1.5 2.6-3.3 0 .1 0 .1 0 0z"/><path d="M8.1 25.7c.2.5.4 1.1.5 1.6v.1c.2.1.4.2.6.2.7.2 1.5.4 2.2.5.4 0 1.1.1 1.6 0 .7-.2 1.4-.6 2-1 .4-.3.8-.5 1.3-.8l-1.6.2c-2.3-.1-4.4-.3-6.6-.8h0z"/><path d="M8.1 25.7l.3.8c.2.1.5.2.7.3-.3.1-.4.2-.5.5 1.1.4 4.2 1 5.2.6.4-.1.7-.2 1.1-.4-.2-.1-1.2-.2-1.5-.3.6 0 1.3-.2 1.6-.4.1-.1.4-.3.5-.5-.3.1-.6.1-.9.1-2.2 0-4.3-.2-6.5-.7z"/><path d="M8.3 26.1c.1.1.1.3.2.4.2.1.5.2.7.3-.3.1-.4.2-.5.5 1 .4 3.1.9 4.2.7.3-.3.5-.8.6-1.3-1.8 0-3.4-.1-5.2-.6zm11.3-3.5c-1.2-.1-2.3.2-3.2.6-1.2 0-1.7-.1-2.6-.3-1.9-1.4-1.1-3.4 0-4.8.5-.6 1.3-.9 2.1-.8 2.1.4 3.6 1 4.1 1.4.4.9.7 3.6-.4 3.9h0z"/><path d="M19.6 22.6c-1.1 0-2 .2-2.9.6-1.2-.1-1.8-.2-2.6-.6-.9-1.1-.7-3 .4-4 1.2-.2 4.8.5 5.5 1.3.5.9.3 2.1-.4 2.7h0z"/><path d="M13.6 20.2c.1-.6 1-1.8 1.4-2.2 1.2-.2 3.8-.1 4.5.7.2.3.8 2 .8 2.4-1.3 1.2-6 1.2-6.6-.6 0-.2 0-.2-.1-.3h0z"/><path d="M19.5 19.6c.4.4.6 1.1.6 1.6s-.3 1-.7 1.4c-.8 0-1.5.1-2.2.4-.9-.4-1.3-1.3-1.3-2 0-.9.7-1.8 1.8-2 .8.2 1.4.4 1.8.6h0z"/><path d="M18.1 19.9c.7 0 1.2.6 1.1 1.3 0 .7-.6 1.2-1.3 1.2s-1.2-.6-1.1-1.3c.1-.8.7-1.3 1.3-1.2zM7.9 16c.6 1.5.3 3.6-.5 5.3-1.1.6-3.3.1-4.2-.8-.4-1.7-.2-4.1 1-5.3s3.1-.8 3.7.8z"/><path d="M7.9 16.5c.5 1.4.3 3.7-.4 5.2-1.1.1-3.4-.4-4.1-1.2-.4-1.5 0-3.7 1.1-4.7 1.2-1 2.9-.7 3.4.7z"/><path d="M8 17c.3.7.3 1.1.3 2-1.2 1.4-4.6 1.2-4.6-1.5.2-.7.5-1.3 1-1.7 1-1 2.7-.2 3.3 1.2z"/><path d="M6.8 16.6C8 16.7 8.6 18 8.6 19c-.1 1.1-.8 2.3-2 2.2s-1.8-1.4-1.8-2.4.8-2.3 2-2.2z"/><path d="M6.7 17.5c.6 0 1.1.7 1 1.4 0 .8-.6 1.3-1.2 1.3s-1.1-.7-1-1.4.6-1.3 1.2-1.3z"/><path d="M7 16.3c.6 0 1.1.5 1 1 0 .5-.5 1-1.1.9-.6 0-1.1-.5-1-1 0-.5.5-.9 1.1-.9zm11.9 2.5c.6 0 1.1.5 1 1 0 .5-.5 1-1.1.9s-1.1-.5-1-1c0-.6.5-1 1.1-.9z"/><path d="M11.5 17.2s-.6 3.3-.3 4.8c0 0 5.6 2 10.2.6l1.1-3.1c0 .1-5.8-2.5-11-2.3zm9.1 5.6c-3.9 1.1-8.7-.7-8.7-.7-.2-1.3.3-4.6.3-4.6 4.4-.1 9.5 2.7 9.5 2.7l-1.1 2.6z"/><path d="M11.5 16.9s-.7 3.7-.4 5.3c0 0 5.7 2.1 10.3.7l1.4-3.6s-6.1-2.6-11.3-2.4zm9.1 5.6c-3.9 1.1-8.7-.7-8.7-.7-.2-1.3.3-4.2.3-4.2 4.4-.1 9.6 2.1 9.6 2.1l-1.2 2.8zm-6.9-7.3l-.6-.4s2.3-2.8 4.9-1.3 2.7 3 2.7 3-3.3-4.1-7-1.3z"/></g><path d="M10.7 19.5s.5 2.6.2 5.2l-.3 2.4s3.7-.6 4.9-2 2.8-6.5 2.8-6.5L16.8 17l-6.1 2.5z" fill="#fcc097"/><g fill="#e8bd89"><path d="M26.8 17.3c-.7 6.5-6.5 10.7-13 9.9S3.8 20.4 5 14c1-5.4 6.3-10.3 12.8-9.6s9.8 6.4 9 12.9z"/><path d="M26.8 16.4c-.7 6.2-7.4 13.1-13.5 12.4s-9.2-8.6-8.5-14.9c.8-6.1 4.7-10 12.2-9.2 6.1.7 10.5 5.5 9.8 11.7z"/></g><ellipse transform="matrix(.1141 -.9934999999999999 .9934999999999999 .1141 -5.0783 27.049700000000005)" cx="12.6" cy="16.4" rx="8.3" ry="8" fill="#ffd097"/><path d="M23.4 15.4s.6 3.4-.6 4.8c-1.1 1.3 3.4 2 3.4 2s1.8-3.7 1.4-5.7-4.2-1.1-4.2-1.1z" fill="#63310f"/><path d="M19 24.2c1.6.1-1.6 4.7-3.4 5.2s-4.8.4-6-.2c-1.3-.6-4-5.3-4.4-6.8l-.6-1.8s.3 0 1.2.5c1.4.9 4.7 2.6 13.2 3.1z" fill="#d8b18b"/><path d="M5.5 11s.9-1.7 4.2-.2L8.1 7.4s-1.8 1.2-2.6 3.5" fill="#e5895b"/><path d="M18.4 24.2l3.7-1.5.7 1.8s-2 2.9-6.1 4.1l1.7-4.4z" fill="#b79576"/><path d="M13.4 13.5s2.2-1.5 4.7-.8c2.6.8 4.5 3.1 3.3 3.5s-1.8-.5-2.4-1.4-2.5-1.7-4.4-.1c0 0-1.1-.3-1.2-1.2zm-10.3 2s1.2-1.8 3.4-2.2c2.1-.4 4.1.3 3.4 1.1s-1.5.5-2.2.1-3.2-.8-4 1.1c0-.1-.1.4-.6-.1zm18.5-7c-4.8-1.7-12.2-3.4-16 .9 1.8 1 5.8 2.3 5.8 2.3l1.3-.5c4.2-2 8.8-.8 11.5.3-.4-1.3-1.3-2.5-2.6-3z" fill="#63310f"/><linearGradient id="A" gradientUnits="userSpaceOnUse" x1="5.4347" y1="6.375" x2="26.3281" y2="6.375"><stop offset="0" stop-color="#f38c05"/><stop offset="1" stop-color="#b85a1b"/></linearGradient><path d="M26.3 7.7l-1.1 4s-6.3-3.9-11.9-1.4l-1.1.4S6.5 9.6 6.1 8.6C6.1 8.6 5 7 5.7 5c0 0 .6 1.2.8 2.2 0 0 .1-3.6 2.7-4.7 0 0-.4.4-.2 1.9 0 0 3.5-3.5 6.8-3.4 0 0-1.4 1.5-1.4 3.2 0 0 4.7-1.6 8.5-1 0 0-.5 1.1-1.4 2 0 0 2.5 1.1 4.8 2.5z" fill="url(#A)"/><path d="M22.2 10.8l-2 2s2.2 3.6 1.8 7.2l5.6-2.6-.9-6.4c-.1.1-2.4-.2-4.5-.2z" fill="#63310f"/><linearGradient id="B" gradientUnits="userSpaceOnUse" x1="21.0273" y1="13.1885" x2="26.5684" y2="13.1885"><stop offset="0" stop-color="#f38c05"/><stop offset="1" stop-color="#b85a1b"/></linearGradient><path d="M26.2 12.1l-5.2.7s.4-.4.7 1.1l3.4.3c.2 0 1.5-.4 1.5-.4l-.4-1.7z" fill="url(#B)"/><path d="M22.5 3.3s-2.2 1.5-4.8 2l4.4 1.5s-3.1.7-4.4.7c-1.2 0-2.7.3-2.7.3l6.3.9s-4.9.1-7.1 1.3c0 0 6-1.3 10.9 1.7l.8-.3 1.5-3.1s-2.5-1.7-4.3-2.1l-1.3-.5 1-2.4h-.3z" fill="#b85a1b"/><path d="M27.8 8.4l-5.2-.1 2.6 1.3-5 .2s2.5.3 3.6 2l.8.3 1.9-.4 1.3-3.3z" fill="#63310f"/><path d="M5.6 7.6S7.2 8.9 8.7 9l6.7.5-3 1.3s-4.6-.7-5.5-1.3c-.8-.7-1.3-1.9-1.3-1.9zm3.5-5.1S8.3 5.3 9 7.1c0 0-1.3-1.7-1.2-3.7 0 0 .2-.8 1.3-.9z" fill="#b85a1b"/><path d="M14.5 1.6s-3 1-4 2.6-.9 2.5-.9 2.5.6-1.8 1.8-2.4 3.1-2.7 3.1-2.7zm5.7 2c.1 0-3.4-.1-5.5 1.5s-3.6 2.3-3.6 2.3l4.2-1.5s3.2-2.2 4.9-2.3z" fill="#ffba7b"/><path d="M23.9 20.3s1.8-1.3 2.7-1.1 1.8 4.5-1.6 4.9-1.1-3.8-1.1-3.8z" fill="#63310f"/><path d="M23.8 20.7s2.2-2.5 3.3-2.2c1.1.2 1.9 6-2.2 6.3s-1.1-4.1-1.1-4.1z" fill="#e8bd89"/><path d="M24.2 20.1s1.5-.9 2.3-.7 1.4 4-1.5 4.2-.8-3.5-.8-3.5z" fill="#c18053"/><path d="M23.8 20.4s1.5-.9 2.3-.7 1.4 4-1.5 4.2-.8-3.5-.8-3.5z" fill="#ce9d67"/><path d="M13.1 27.9c-1.3 1.4-4.4.6-4.2-.8l4.2.8z" fill="#ffbc8f"/><path d="M16.6 25c-.6.2-1.3.3-1.9.3-2.5 0-4.8-.3-7.3-1 .3.2.6.4 1 .5.3.5.5 1.2.6 1.6-.2 0-.5.2-.9 0 1.7 1 4.3 1.2 5.3.9.7-.2 2.2-1 3.6-2.1-.2 0-.3-.1-.4-.2z" fill="#9a4c18"/><path d="M17.1 24.9c-.1 0-.1-.1-.2-.2h.1c-.1 0-.2-.1-.2-.1-.6.3-1.4.5-2 .5-2.5 0-4.8-.3-7.3-1.2v.4c.3.3.8.4 1.1.5.3.7.4 1.2.4 1.9-.2 0-.5-.1-.9-.2 1.6 1.2 5.7 1.8 6.7 1.3.7-.3 1.1-1.4 2.3-2.9z" fill="#63310f"/><path d="M8.8 25l.5 1.4v.1c.2.1.4.1.6.2.6.2 1.3.4 2 .4.4 0 1 .1 1.4 0 .6-.2 1.2-.6 1.8-.9.4-.2.8-.5 1.1-.8-.5.1-1.1.2-1.4.2h0c-2.1.1-4-.1-6-.6h0z" fill="#792936"/><linearGradient id="C" gradientUnits="userSpaceOnUse" x1="-197.3748" y1="157.6092" x2="-197.3818" y2="157.6096" gradientTransform="matrix(-74.2587 -4.1755 1.2305 -21.8834 -14837.1582 2651.0923)"><stop offset="0" stop-color="#bdd6de"/><stop offset="1" stop-color="#fff"/></linearGradient><path d="M9.6 25.3c.1.2.1.4.2.6.1.1.4.2.5.2-.2 0-.3.1-.4.4.7.3 2.9.7 3.7.4.3-.1.5-.1.7-.3-.1-.1-.8-.2-1-.2.4 0 .9-.1 1.1-.3.1-.1.3-.2.3-.4-.2 0-.4.1-.6.1-1.6 0-3-.2-4.5-.5z" fill="url(#C)"/><linearGradient id="D" gradientUnits="userSpaceOnUse" x1="-154.8666" y1="143.4375" x2="-154.8865" y2="143.4345" gradientTransform="matrix(-51.255 -2.882 0.99 -17.6071 -8067.3945 2105.6094)"><stop offset="0" stop-color="#fff"/><stop offset="1" stop-color="#bdd6de"/></linearGradient><path d="M9.7 25.6c0 .1.1.2.1.3.1.1.4.2.5.2-.2 0-.3.1-.4.4.7.3 2.1.7 2.9.5.2-.2.4-.5.4-.9-1.1-.1-2.3-.2-3.5-.5z" fill="url(#D)"/><linearGradient id="E" gradientUnits="userSpaceOnUse" x1="13.3139" y1="13.3842" x2="21.6723" y2="13.3842"><stop offset="0" stop-color="#f38c05"/><stop offset="1" stop-color="#b85a1b"/></linearGradient><path d="M13.9 13.8l-.6-.4s2.6-3.1 5.4-1.4 2.9 3.3 2.9 3.3-3.6-4.6-7.7-1.5z" fill="url(#E)"/><linearGradient id="F" gradientUnits="userSpaceOnUse" x1="425.9772" y1="1067.8735" x2="432.7964" y2="1067.8735" gradientTransform="matrix(0.7402 -0.3873 0.4022 0.7687 -740.5347 -640.7463)"><stop offset="0" stop-color="#f38c05"/><stop offset="1" stop-color="#b85a1b"/></linearGradient><path d="M4.8 15.2l-.5-.1s.5-2.8 2.8-2.6 2.9 1.2 2.9 1.2-3.7-1.7-5.2 1.5z" fill="url(#F)"/><path d="M22.4 22.2s.2 2.1 1.6 2.6v.2l-.9.3s-1.1-.8-.7-3.1z" fill="#8e4028"/><g fill="#181c1b"><path d="M10.1 17.2l2.3.4.3-1.7-2.7-.4zm12 .3c.1 0 2.9-.6 2.9-.6l.2.8-3 1.9.2-1.8-.3-.3z"/><path d="M12.1 15.8s-.5 3.8-.1 5.4c0 0 2 4.5 8 2 .7-.3 1.3-.9 1.7-1.7l1.5-3.8c0-.1-6.1-2.4-11.1-1.9zm8.7 5.2c-3.7 1.3-8.1-.3-8.1-.3-.3-1.3.1-4.3.1-4.3 4.2-.3 8.7 1.5 8.7 1.5l-.7 3.1zM1.2 15.1s.4 3.2.9 4.6c0 0 3.4 2.6 7.7 1.1l1.4-5c-.1 0-7.2-1.9-10-.7zm8.4 5.1c-3.5 1.2-7.2-.9-7.2-.9-.4-1.1-.8-3.8-.8-3.8 2.5-.8 8.1.7 8.1.7l-.1 4z"/><path d="M1.2 15.1l.6 4.9c.3.8 1.6 3.2 3.5 3.2s4-.8 4.4-2.4 0-3.4.8-3.1.7 1.2.7 1.7-.4 4.3 3.4 4.5 5.7-.6 6.4-3.1l.9-3-7.1-1.9-3.6.2c.1 0-7.6-1.8-10-1z"/></g><path d="M1.9 15.8s-.3 5.7 2.7 6.4 4.7-.7 5-1.8.3-3.7.3-3.7-3.6-1.8-8-.9zm10.5 1.1s-1.1 6.1 3.3 6.5c3.5.3 5.3-1.2 5.6-2.1s.4-3 .4-3-3.6-1.8-9.3-1.4z" fill="#2d3331"/><path d="M6.1 15.6l-3.5 4.6s.5 1.4 1.5 1.8l.9.3 4-5.9c.1 0-2-.7-2.9-.8zm9.4 1.5l-2.4 5.5s1.5 1 4.1.6l2.4-5.5c0 .1-2.7-.7-4.1-.6z" fill="#4b5451"/><path d="M12.7 16.9s6.9 1.3 7.9 2.6l.1-1.5c-.1-.1-5-1.3-8-1.1zm-9.9-1.4s6.7 1.1 7.1 2.4l.1-1.3c-.1.1-1.7-1.1-7.2-1.1z" fill="#616d67"/></svg>