<svg xmlns="http://www.w3.org/2000/svg" viewBox="0 0 32 32"><path d="M14.1 31.5s-7.2-.6-8.9-4.7c0 0 1.6.2.7-1.6s-2.6-3.3-.9-8.4l2.4-5s1 3.4 1.6 3.3c2.4-.2.5-4.4 2.6-6.8 0 0 1.7.9 2.3-1.1.7-2.1-.6-6.8-.6-6.8s12.4 3 11.4 10.2 2.3 2.5 2.7.4c0 0 4.8 8 1.4 13.2 0 0-1.5 1-.5 1.1s.9 1.5.9 1.5-7.1 6.1-15.1 4.7z" fill="#5c2e0e"/><linearGradient id="A" gradientUnits="userSpaceOnUse" x1="5.387" y1="16.2805" x2="28.2562" y2="16.2805"><stop offset="0" stop-color="#ff5b6c"/><stop offset="1" stop-color="#de281b"/></linearGradient><path d="M14.4 30.3s-5.7.2-7.2-3.4c0 0 1-.6.2-2.1-.8-1.6-3-3.2-1.6-7.7l2-3.1s.1 3 2.1 2.5.6-4.5 2.3-6.7c0 0 3.4 1 4-.8s-.9-6.7-.9-6.7 9 3.2 8.1 9.5c-.8 6.4 3.1 3.5 3.4 1.6 0 0 3.8 7.1-.8 11.5 0 0-1.1 1.3-.3 1.3.8.1 1.5 0 1.5 0s-6 5.3-12.8 4.1z" fill="url(#A)"/><linearGradient id="B" gradientUnits="userSpaceOnUse" x1="24.3098" y1="12.4666" x2="9.442" y2="27.1762"><stop offset="0" stop-color="#ff5b6c"/><stop offset="1" stop-color="#ff9436"/></linearGradient><path d="M9.3 28.2s-.1-3.7-1.3-5.5 0-4.4 0-4.4 3.2.6 3.8 0 .6-4.2 1.6-5.9c0 0 3.6-.4 4-1.1.4-.6.6-6.1.6-6.1s3.3 3 3.3 5.7c-.1 2.8-.5 6.7 1.4 6.4s3.3-1 3.3-1-.4 6.2-2 7.7-.8 2.1-.9 3c-.1.7-4.5 5.8-13.8 1.2z" fill="url(#B)"/><path d="M19.6 10.9s-.5 8.6 1.8 8.3 3.7-.9 3.7-.9 1 2.4-.4 3.6c-1.3 1.2-2.8 2.7-2.2 3.5.5.9-.3 4.2-5.7 4.4s-6.7-2.2-6.9-3.9S8 20.7 8 20.7s1.6.7 2.8.3c1.3-.4 3.2-2.4 3-3.9s.1-3.4.1-3.4.7 1.3 1.7 1.2 4-4 4-4z" fill="#f68829"/><path d="M16.5 16.3s-.4 5.3-3.2 5.9l-4.1.8s2.7 1.8 2.6 3.5c-.1 1.8 2.5 3.8 5 2.9s3.8-1.9 3.5-3.4 2.5-4.2 2.5-4.2-2.2.7-3.2-.9l-3.1-4.6z" fill="#f8b80f"/><path d="M16.9 23.4s-.2 2.5-1.5 2.8l-1.9.4s1.3.8 1.2 1.7c0 .8 1.2 1.8 2.3 1.4s1.8-.9 1.7-1.6 1.2-2 1.2-2-1 .3-1.5-.4l-1.5-2.3z" fill="#feecb3"/></svg>