<svg xmlns="http://www.w3.org/2000/svg" xmlns:xlink="http://www.w3.org/1999/xlink" viewBox="0 0 32 32"><path d="M18.3 29.6s-.7 2.6-4.7 2.3l-3.5-.3c-.9-.1-1.8-.5-2.4-1.2l-2.8-3.3 13.4 2.5z" fill="#63310f"/><path d="M10.8 20.1s.6 2.7.2 5.5l-.4 2.6s4-.6 5.3-2.1 3-6.8 3-6.8l-1.6-1.8-6.5 2.6z" fill="#fcc097"/><path d="M29.4 18.4c-.9 7.5-9.9 14.2-17.6 13.4-7.7-.9-9.3-8.8-8.4-16.3s6-13.1 13.7-12.2 13.2 7.6 12.3 15.1z" fill="#63310f"/><path d="M28.3 17.2c-.8 6.8-7.2 11.7-14.2 11s-9.9-6.6-8.6-13.4c1.1-5.6 5.9-11.3 13-10.5s10.6 6.1 9.8 12.9z" fill="#e8bd89"/><path d="M28.2 15.9c-.8 5.9-8 12.3-14.6 11.7S3.2 21 4 15.1C4.7 9.3 9.5 3.2 17.7 4c6.6.7 11.3 6 10.5 11.9z" fill="#ce9d67"/><path d="M16.4 17.5c-.6 4.8 0 8.4-5.1 7.9-5.1-.6-7.6-5-7.1-9.8s4-8.1 9.1-7.6 3.6 4.8 3.1 9.5z" fill="#ffd097"/><path d="M24.5 15.8s.6 3.6-.6 5 3.7 2.1 3.7 2.1 2-3.8 1.6-6c-.5-2.3-4.7-1.1-4.7-1.1zm-5.3 10.3s-1.3 3.8-3.7 4.4-4.7.7-6.4 0c-1.7-.6-5-4.9-5-6.5S4 22.2 4 22.2l15.2 3.9z" fill="#63310f"/><path d="M19.8 25c1.7.1-1.8 5-3.7 5.5s-5.2.4-6.6-.2-5.2-5.1-5.2-6.7l-.1-2.7s.7 3.2 15.6 4.1z" fill="#c6a27b"/><path d="M13.3 20.9s2.8-.9 4.5 0c0 0 .8.8.3 1.1-.4.3-1 .7-1.4.3s-2.2-1.4-3.4-1.4zm-6.4-2s-.6-1.8-2-1.9c0 0-1 .3-.9.6 0 .4-.1.9.4.8s2-.1 2.5.5z" fill="#2b2927"/><path d="M7.2 23.5s4.4 2.2 7.7 2c.7-.1 1.1.9.8 1.7-.5 1.3-2.2 2.5-3.4 2.4-3.1-.3-5.3-5.1-5.3-5.1s-.4-.2.2-1z" fill="#63310f"/><path d="M9.4 28.5s0-1 2.1-1.3 3.3.8 3.3.8 0 1.2-.8 1.5c-.8.2-3 .9-4.6-1z" fill="#ed5671"/><path d="M13.7 29.3l-1.8-.3.1-1.1-.7 1.1H9.9c0-.1 1.3 1.8 3.8.3z" fill="#a02a44"/><path d="M4 15.3s4.8 4.4 4.8-3.2L6.5 8.8S4.8 10.4 4.4 13m14.8 12.1l4-1.6.7 1.9s-2.2 3.1-6.6 4.3l1.9-4.6z" fill="#a86"/><path d="M19.7 12c-.3 0-.5.1-.8.1h-.2c-.2 0-.5.1-.7.2-.4.1-.9.3-1.1.7 0 .1-.1.2-.2.4 1.6-.4 3 .1 3.4.7.6.7 1.3 1.5 2.6 1.1 1.4-.4-.3-2.5-3-3.2zm-11.9-.3c-1.1-.3-2.7.4-3.6 1 .1.4.1.5.1 1 1.7-1.1 3.6-.4 4.1.3.5.8 1 1.6 2.1 1.2 1-.4-.5-2.9-2.7-3.5zm21.8-3.8l-1.4 4.6S20.2 8.1 13 11l-1.4.5S5.2 10.2 4.7 9c0 0-1.5-2.4.6-5.3 0 0 .3.5.6 1.6 0 0 .8-2.6 4.1-3.8 0 0-.5.4-.3 2.2 0 0 3.6-3.4 7.7-3.3 0 0-1.1 1-1.1 2.9 0 0 4.1-1.1 8.9-.4 0 0-.6 1.2-1.7 2.3-.1-.1 3.1 1.1 6.1 2.7z" fill="#63310f"/><linearGradient id="A" gradientUnits="userSpaceOnUse" x1="5.0178" y1="6.41" x2="27.6788" y2="6.41"><stop offset="0" stop-color="#f38c05"/><stop offset="1" stop-color="#b85a1b"/></linearGradient><path d="M27.7 7.7l-1.2 3.8s-6.8-3.7-12.9-1.3l-1.2.4s-6.2-1-6.6-2c0 0-1.3-1.5-.5-3.4 0 0 .6 1.1.9 2 0 0 .1-3.4 2.9-4.4 0 0-.4.4-.2 1.8 0 0 3.8-3.3 7.3-3.2 0 0-1.5 1.4-1.5 3 0 0 5.1-1.5 9.3-.9 0 0-.5 1-1.5 1.9 0-.1 2.7.9 5.2 2.3z" fill="url(#A)"/><g fill="#63310f"><path d="M23.2 10.6L21 12.5s2.4 3.4 1.9 6.8l6-2.5-.4-4.7s-3-1.5-5.3-1.5zm1.1 10.2s1.8-1.5 2.8-1.4 2.1 5.5-1.5 6.2-1.3-4.8-1.3-4.8z"/><path d="M25.4 20.6s2-1.8 3.2-1.7 2.3 6.5-1.8 7.4-1.4-5.7-1.4-5.7z"/></g><path d="M23.9 20.3s2.5-1.9 3.7-1.8 2.6 6.1-1.8 6.8c-4.4.8-1.9-5-1.9-5z" fill="#e8bd89"/><path d="M24.6 20.5s1.5-1.1 2.4-1 1.9 4.1-1.2 4.5c-3.1.5-1.2-3.5-1.2-3.5z" fill="#c18053"/><path d="M24.2 20.8s1.5-1.1 2.4-1 1.9 4.1-1.2 4.5c-3.1.6-1.2-3.5-1.2-3.5z" fill="#ce9d67"/><g fill="#63310f"><path d="M24 20.5c.8-3-2.2-3.8-2.2-3.8s-1.7-.6-3.2.5c-.8-1.5-2.4-1.8-2.4-1.8s-2.8-.9-4 2.5c-1.2 3.5 3.8 7.3 4.1 7.6h0c.4-.2 6.8-1.5 7.7-5zm-13.1-1.4C11.1 17 9 16.8 9 16.8s-1.2-.2-2 .7c-.7-.9-1.8-1-1.8-1s-2-.3-2.3 2.1c-.3 2.5 3.4 4.5 3.6 4.6h0c.3-.1 4.3-1.6 4.4-4.1z"/><path d="M10.4 17.8c.1-2.5-2.3-2.8-2.3-2.8s-1.4-.2-2.4.8c-.8-1.1-2.1-1.2-2.1-1.2s-2.4-.3-2.8 2.5C.4 20 6.1 22.8 6.3 23l-.1-.5-.6.2.5-.4c.4-.1 4.2-1.5 4.3-4.5z"/></g><path d="M22 19.3c.1 0 3-.4 3-.4l.1.8-3.1 1.5.3-1.6-.3-.3z" fill="#ae021d"/><linearGradient id="B" gradientUnits="userSpaceOnUse" x1="21.9542" y1="13.9997" x2="28.2074" y2="13.9997"><stop offset="0" stop-color="#f38c05"/><stop offset="1" stop-color="#b85a1b"/></linearGradient><path d="M27.6 12.4L22 13s.8 1 1.1 2.6l3.3-1.1c.2 0 1.8-.4 1.8-.4l-.6-1.7z" fill="url(#B)"/><path d="M23.5 3.5S21.1 5 18.3 5.4l4.8 1.4-4.8.7c-1.4.1-2.9.4-2.9.4l6.8.9s-5.3.1-7.7 1.2c0 0 6.5-1.2 11.9 1.6l.9-.3 1.6-3s-2.7-1.6-4.7-2l-1.4-.5 1-2.2-.3-.1z" fill="#b85a1b"/><path d="M29.3 8.4l-5.7-.1 2.8 1.3-5.4.2s2.7.3 3.9 2.1l.9.3 2-.5 1.5-3.3z" fill="#63310f"/><path d="M5.2 7.5S7 8.8 8.5 9l7.2.6-3.1 1.4s-5-.7-6-1.4c-.9-.7-1.4-2.1-1.4-2.1z" fill="#b85a1b"/><g fill="#960f0f"><path d="M10.4 17.1c.1-1.1-.5-1.6-1-1.9-.4-.2-1-.2-1.5-.1-.4.1-1.1.4-1.6.8-.4-.5-.9-.8-1.3-.9-.6-.3-1.3-.3-1.9 0-.5.2-1 .7-1.1 1.7-.3 2.2 3.7 4.1 3.9 4.2h0c.2-.1 4.4-1.6 4.5-3.8z"/><use xlink:href="#D"/><path d="M24.9 19.7c.8-3-2.5-3.9-2.5-3.9s-1.9-.6-3.5.4c-.9-1.6-2.6-1.9-2.6-1.9s-3.2-.9-4.4 2.4c-1.2 3.4 4.3 7.4 4.6 7.7h0c.4 0 7.4-1.2 8.4-4.7z"/></g><use xlink:href="#D" x="-0.3" y="0.4" fill="#ff5c5c"/><path d="M21.8 18.6c.3-1.2-.2-1.8-.7-2.2-.5-.3-1.1-.5-1.7-.4-.5.1-1.2.2-1.9.6-.3-.6-.8-1-1.2-1.2-.6-.4-1.4-.6-2.1-.4-.6.2-1.2.6-1.5 1.6-.8 2.3 3.1 5 3.3 5.2h0c.4-.1 5.2-.8 5.8-3.2z" fill="#f98b8b"/><path d="M14.3 19.4c-.5 0-1-.1-1.2-.4s-.5-.6-.5-1.1c0-1.1 1.6-3.3 3.4-1.7 1.9 1.6-.5 3.1-1.7 3.2z" fill="#ffbdbd"/><path d="M21.8 16.9c-.2 0-.3 0-.4-.1s-.2-.2-.1-.4c0-.4.6-1.2 1.2-.7s-.3 1.1-.7 1.2z" fill="#fff"/><path d="M16 16.5c-.1.2-.3.4-.5.5s-.5.1-.8.1c-.7-.2-1.6-1.2-.2-1.8 1.4-.7 1.7.6 1.5 1.2z" fill="#ffbdbd"/><path d="M10.9 18.1c.1-2.1-2.3-2.3-2.3-2.3s-1.4-.2-2.4.7c-.8-1-2.1-1-2.1-1s-2.3-.3-2.7 2.1 4.1 4.5 4.3 4.6h0c.3-.1 5.1-1.6 5.2-4.1z" fill="#960f0f"/><path d="M10.4 17.6c.1-1.1-.5-1.6-1-1.9-.5-.2-1.1-.3-1.6-.1-.4.1-1.1.4-1.6.8-.4-.5-.9-.8-1.3-.9-.6-.3-1.3-.3-1.9 0-.5.2-1 .7-1.1 1.7-.3 2.2 3.7 4.1 3.9 4.2h0c.2-.1 4.5-1.6 4.6-3.8z" fill="#ff5c5c"/><path d="M8.8 17.5c0-.8-.3-1.2-.7-1.4s-.8-.2-1.2-.1c-.3.1-.8.3-1.2.6-.3-.3-.7-.6-1-.7-.5-.2-1-.2-1.4 0s-.7.5-.8 1.2c-.3 1.6 2.7 3 2.9 3.1h0c.2.1 3.3-1 3.4-2.7z" fill="#f98b8b"/><path d="M5.2 17.1c-.1.3-.3.6-.6.8s-.6.3-1 .3c-.9 0-2.3-1-.6-2.2 1.8-1.1 2.4.3 2.2 1.1z" fill="#ffbdbd"/><defs ><path id="D" d="M24.4 18.7c.4-1.6-.2-2.4-.9-2.9-.6-.5-1.5-.7-2.3-.6-.7.1-1.7.3-2.5.8-.4-.8-1.1-1.3-1.6-1.7-.8-.6-1.8-.8-2.8-.5-.8.2-1.6.8-2.1 2.1-1.1 3.1 4.2 6.8 4.5 7.1h0c.4-.1 6.9-1.1 7.7-4.3z"/></defs></svg>