<svg xmlns="http://www.w3.org/2000/svg" viewBox="0 0 269.83 281.55"><defs><style>.cls-1{fill:#3c3c3c;}.cls-1,.cls-10,.cls-11,.cls-12,.cls-2,.cls-3,.cls-4,.cls-5,.cls-6,.cls-7,.cls-8,.cls-9{fill-rule:evenodd;}.cls-2{fill:#4b4b4b;}.cls-3{fill:#e3ae26;}.cls-4{fill:#fde049;}.cls-5{fill:#ff9701;}.cls-6{fill:#c86815;}.cls-7{fill:#7fb6c9;}.cls-8{fill:#a2d9eb;}.cls-9{fill:#cff3ff;}.cls-10{fill:#bdd6de;}.cls-11{fill:#fff;}.cls-12{fill:#ff9;}</style></defs><title>Asset 1</title><g id="Layer_2" data-name="Layer 2"><g id="PornDudeShop_-_Favicon" data-name="PornDudeShop - Favicon"><g id="Background"><path class="cls-1" d="M257,163.21v67a26.16,26.16,0,0,1,7.7,18.5v32.79H7.14V248.76a26.16,26.16,0,0,1,7.7-18.5v-65.4A36,36,0,0,1,0,135.55v-9.34a36.08,36.08,0,0,1,3.85-16.3L26.56,64.48a28.94,28.94,0,0,1,26-15.94H217.25a28.73,28.73,0,0,1,26,15.94L266,109.91a36.21,36.21,0,0,1,3.85,16.3v9.34A35.55,35.55,0,0,1,257,163.21Z"/><path class="cls-2" d="M257,163.21v25.1H14.84V164.86A36,36,0,0,1,0,135.55v-9.34a35.2,35.2,0,0,1,3.3-15H266.71a37.93,37.93,0,0,1,3.12,15v9.34A35.55,35.55,0,0,1,257,163.21Z"/></g><g id="Shop"><polygon class="cls-3" points="36.64 109.91 235.21 109.91 235.21 247.84 36.64 247.84 36.64 109.91"/><polygon class="cls-4" points="235.21 207.54 235.21 247.84 36.64 247.84 36.64 157.9 235.21 207.54"/><polygon class="cls-5" points="36.64 233.56 235.21 233.56 235.21 247.84 36.64 247.84 36.64 233.56"/><polygon class="cls-6" points="57.15 163.95 57.15 216.15 139.77 216.15 139.77 163.95 57.15 163.95"/><polygon class="cls-7" points="61 167.61 61 212.49 136.1 212.49 136.1 167.61 61 167.61"/><polygon class="cls-8" points="64.3 212.49 136.1 212.49 136.1 171.64 64.3 171.64 64.3 212.49"/><path class="cls-9" d="M85.55,171.64l27.66,40.85H88.84L64.3,176v-4.4Zm27.66,0H96.72l27.48,40.85h11.9v-7.14Z"/><path class="cls-5" d="M53.31,211.76h90.3v4.58a5.71,5.71,0,0,1-5.67,5.68H59a5.71,5.71,0,0,1-5.67-5.68Z"/><polygon class="cls-6" points="212.86 244.18 160.1 244.18 160.1 163.95 212.86 163.95 212.86 244.18"/><polygon class="cls-7" points="209.01 244.18 209.01 167.61 163.95 167.61 163.95 244.18 209.01 244.18"/><polygon class="cls-8" points="209.01 171.64 167.25 171.64 167.25 244.18 209.01 244.18 209.01 171.64"/><path class="cls-9" d="M209,244.18V233.37l-41.77-61.73h0v35.9L192,244.18ZM194.9,171.64H178.42L209,217.07V192.71Z"/><path class="cls-10" d="M33.71,244H238.14a5.12,5.12,0,0,1,4.76,4.76v11h-214v-11A5,5,0,0,1,33.71,244Z"/><path class="cls-11" d="M33.71,244H238.14a4.69,4.69,0,0,1,4.76,4.58h-214A4.69,4.69,0,0,1,33.71,244Z"/><path class="cls-6" d="M248,126.21v9.34c0,22-44.52,22.17-44.52,0V122.73H157v12.82c0,22-44.15,22.17-44.15,0V122.73H66.31v12.82c0,22-44.51,22.17-44.51,0v-9.34a14.06,14.06,0,0,1,1.65-6.59L46,74.19a7.26,7.26,0,0,1,6.59-3.85H217.25a7.09,7.09,0,0,1,6.6,3.85l22.71,45.43A13.86,13.86,0,0,1,248,126.21Z"/><path class="cls-5" d="M217.25,70.34H52.57A7.26,7.26,0,0,0,46,74.19l-22.9,46a1.81,1.81,0,0,0,.18,1.65,1.93,1.93,0,0,0,1.65.91H245.1a1.93,1.93,0,0,0,1.65-.91,1.4,1.4,0,0,0,0-1.65l-22.9-46A7.09,7.09,0,0,0,217.25,70.34Z"/><path class="cls-10" d="M157,122.73v12.82c0,22,46.52,22.17,46.52,0V122.73L187.58,70.34H153.32Zm-44.15,0v12.82c0,22-46.53,22.17-46.53,0V122.73L82.43,70.34h34.26Z"/><path class="cls-11" d="M82.43,70.34h34.26l-3.85,52.39H66.31Zm105.15,0H153.32L157,122.73h46.52Z"/><path class="cls-12" d="M62.28,29.68c2-9.53,3.67-11.36,13.37-13.19.37-.19.92-.55.92-1.1a1.73,1.73,0,0,0-.92-1.29C66,12.27,64.3,10.44,62.28.92A1.16,1.16,0,0,0,61.18,0a1,1,0,0,0-1.1.92c-2,9.52-3.66,11.35-13.37,13.18a1.39,1.39,0,0,0-.91,1.29,1.16,1.16,0,0,0,.91,1.1c9.71,1.83,11.36,3.66,13.37,13.19a1,1,0,0,0,1.1.91A1.16,1.16,0,0,0,62.28,29.68ZM30.59,74.19c3.48-17,6.6-20.15,23.63-23.63a2,2,0,0,0,1.65-2,2,2,0,0,0-1.65-1.83c-17-3.48-20.15-6.59-23.63-23.63a1.94,1.94,0,0,0-1.83-1.65,2,2,0,0,0-2,1.65c-3.48,17-6.59,20.15-23.63,23.63a2,2,0,0,0-1.64,1.83,2,2,0,0,0,1.64,2c17,3.48,20.15,6.59,23.63,23.63a2,2,0,0,0,2,1.65A2,2,0,0,0,30.59,74.19Z"/></g></g></g></svg>