<svg xmlns="http://www.w3.org/2000/svg" xmlns:xlink="http://www.w3.org/1999/xlink" viewBox="0 0 1250.69 185.53"><defs><linearGradient id="A" x1="1096.49" y1="62.74" x2="1096.49" y2="100.83" xlink:href="#I"><stop offset="0" stop-color="#b85a1b"/><stop offset="1" stop-color="#7f3e13"/></linearGradient><linearGradient id="B" x1="478.324" y1="56.5832" x2="478.324" y2="114.357" xlink:href="#A"/><linearGradient id="C" x1="478.3765" y1="80.2565" x2="478.3765" y2="25.5347" xlink:href="#I"><stop offset="0" stop-color="#b85a1b"/><stop offset="1" stop-color="#ff9701"/></linearGradient><linearGradient id="D" x1="741.447099999998" y1="36.715500000002" x2="741.447099999998" y2="127.789200000003" xlink:href="#I"><stop offset="0" stop-color="#ff9701"/><stop offset="1" stop-color="#fde049"/></linearGradient><linearGradient id="E" x1="739.0455" y1="115.82" x2="739.0455" y2="49.859999999997" xlink:href="#D"/><linearGradient id="F" x1="256.67" y1="154.68" x2="256.67" y2="105.16" xlink:href="#I"><stop offset="0" stop-color="#d0d0d0"/><stop offset="1" stop-color="#fff"/></linearGradient><radialGradient id="G" cx="202.8" cy="-229.33" r=".28" gradientTransform="translate(-18473.16 20849.73) scale(91.87 90.72)" xlink:href="#I"><stop offset="0" stop-color="#fff"/><stop offset="1" stop-color="#d0d0d0"/></radialGradient><linearGradient id="H" x1="1096.47" y1="118.08" x2="1096.47" y2="40.47" xlink:href="#C"/><linearGradient id="I" gradientUnits="userSpaceOnUse"/></defs><g fill-rule="evenodd"><path d="M1067.15 140.4c-15.05 16.7-48.12 15.14-65.8 3a22.2 22.2 0 0 1-22.84 7.83c-10.76-2.5-17.22-11.52-17.22-22.43 0-11.95 8-21.68 19.73-23-.76-13.77 3.08-27.38 12.54-37.73 9.88-10.83 23.76-15.82 38.24-15.82 13.4 0 26.3 1.53 35.38 12 9.66-8.37 21.48-12 34.3-12 13.07 0 25.12 3.84 34.8 12.55a19 19 0 0 1 4.37-5.32 23.75 23.75 0 0 1 17.41-5 25.15 25.15 0 0 1 17 8.63l6.46 7.68 6.4-7.64a24 24 0 0 1 19-8.71c13 0 22.43 7.72 22.43 21.14v55c0 13.42-9.47 21.14-22.43 21.14-12.62 0-21.9-7.26-22.42-20l-.73.84a2.76 2.76 0 0 1-2.2 1 2.79 2.79 0 0 1-2.2-1l-.73-.84c-.53 12.7-9.84 20-22.42 20-8.82 0-16.88-3.65-20.5-11.52-9.7 8.37-21.47 12.17-34.4 12.17s-24.55-3.73-34.16-12.06z" fill="#7f3e13"/><path d="M1068.3 135.3c-15 16.7-48.12 15.17-65.76 3a22.36 22.36 0 0 1-22.88 7.87c-10.72-2.5-17.18-11.56-17.18-22.43 0-12 8-21.68 19.73-23-.8-13.8 3.07-27.38 12.5-37.76 9.88-10.8 23.8-15.82 38.24-15.82 13.45 0 26.3 1.52 35.42 12 9.66-8.33 21.48-12 34.25-12 13.1 0 25.16 3.88 34.8 12.55a18.24 18.24 0 0 1 4.37-5.29 23.8 23.8 0 0 1 17.45-5 25 25 0 0 1 17 8.6l6.42 7.72 6.43-7.7a23.92 23.92 0 0 1 19-8.67c13 0 22.47 7.72 22.47 21.15v55c0 13.4-9.5 21.1-22.47 21.1-12.58 0-21.9-7.27-22.42-20l-.7.84a2.84 2.84 0 0 1-2.2 1 2.69 2.69 0 0 1-2.2-1l-.76-.87c-.5 12.73-9.8 20-22.43 20-8.78 0-16.84-3.65-20.5-11.52-9.65 8.4-21.43 12.2-34.4 12.2-12.78 0-24.56-3.72-34.17-12.1z" fill="url(#A)"/></g><path d="M324.45 158.05c-3.18 15.07-15.18 22.56-31.48 22.56h-31.6l-5.33-13.85v-7.7c-16.4 16.1-37.73 23.18-61 22.67-28.7-.52-54.55-13.64-69.22-38.77-3.48-5.95-7.38-12-10.25-18.25-9.95 8.72-21.64 12.82-35.18 12.82h-5.95l.1 8.92a66.54 66.54 0 0 1-.72 11.08c-3 16-16.3 23.07-31.68 23.07H11L0 167.17V9.87h76.7c20 0 36.4 11.48 45.33 29 .1.1.1.3.2.4 15.9-22.76 41.43-33.74 69.12-33.74 25.33 0 48.4 8.92 64.6 28V9.46h76.7c14.77 0 27 5.84 36.4 16.2V9.56l32.8-.2c11.38-.1 21.94 3.8 28.7 13.43l18.26 21.74v-4.6c0-20 13.74-30.56 32.9-30.56h32.92v1L573.22 5h.1c18.67.4 34.77 6.87 47.27 20l-.1-4.5 3.08-17.23 32.92-1c13.43-.4 24.4 4.3 30 14l4-15.08 32.82-1c9.12-.3 18.66 1.84 25.42 8.2l70.66 2.36.82.1c16.5 2.46 30.66 9.54 41.22 22l1.13-12.92L871.07 3l109.3 9.13L978 41.35c-.82 9.44-4 14.36-8.6 21.13l2.87.2-2.46 29.53c-.82 9.85-4.2 14.87-9.23 21.85l11.38.92-2.46 29.43c-.5 6.36-2.46 12.7-6.56 17.74-1.95 2.46-3.8 5-5.74 7.5a46 46 0 0 1-6.57 7.48c-5.94 5.13-13.74 6.67-21.43 6.15l-79.57-6.66.92-10.87c-10.77 11.07-24.3 17.22-40.2 18.86l-1.95.2-73.52-2.36.6-19.28c-12.7 8.52-29.32 12.72-44.3 13.34-19.18.8-41-4-54.87-18.26a44.2 44.2 0 0 1-6.76-9q-14.16 22.6-40.82 28.92l-2.05.4-73.32 7-1.94-20.7a24.49 24.49 0 0 1-7.39 9.12c-12.5 9.74-33.73 8.62-45.42-1.85l-.1-.1-3.28-3.38-19-22.56c0 11.18-.82 21.43-11.48 28.8-6.05 4.2-13.54 5.75-20.82 5.75H372l-.5-2.36c-13.95 6.87-27.9 2.46-38.56-9.13a77.12 77.12 0 0 1-6.25-8.1l-2.16-3h-.1z" fill="url(#B)"/><path d="M688.7 32.64l-.4-13.95 4-15.28 31.17-1c10.15-.3 18.77 2.47 24.4 8.2L819.23 13l.6.1c19 2.87 33.43 11.7 43.38 25.63l1.54-18.25 7.7-15.17 105.62 8.8-2.26 27.18c-.8 10.2-4.6 14.6-10.46 23.23l4.4.4-2.25 27.28c-.93 10.56-4.93 15.18-11.18 23.9l13.12 1.12-2.25 27.18c-.52 6.77-2.67 12.3-6.16 16.5-2.56 3.28-8.8 12-12 14.66-5.44 4.72-12.72 6.15-19.8 5.64l-77.32-6.46 1.33-15.38c-11.07 13.84-25.64 21.43-43.17 23.17l-1.74.2-71.17-2.26.72-21.63c-29 23-91.68 22.66-108.3-14.15q-13.68 24.92-41.43 31.37l-1.84.4-70.86 6.77-3.18-33.94c-.3 9.12-1.74 17-9.54 23.07-11.07 8.62-31.07 8.5-42.55-1.74l-3.2-3.28-23-27.28c0 12.82 1.23 25-10.56 33.12-5.64 4-12.72 5.33-19.5 5.33H374l-.72-3.48c-14.05 8.4-27.9 4.4-38.45-7.18-2.83-3.08-8.83-11.7-11.6-15.5-1 17.85-12.92 26-30.05 26.26h-30l-4.62-12v-12.92c-16.2 18.25-38.24 26.56-63.16 26-28-.52-53-13.23-67.27-37.64-3.7-6.26-8.72-14.35-11.5-20.92-9.84 9.64-21.74 14.26-35.9 14.36H72.5c0 5 .4 16.3-.62 21.84-2.76 15-15.28 21.13-29.53 21.23h-30l-9.75-12V12.43H77c19.48 0 35 11.4 43.27 27.8.62 1.23 1.34 2.57 2 3.8 15.28-24.1 41-35.9 69.43-35.9 26.86 0 51.06 10.35 66.85 32.3V12H333c16.3 0 29.12 7.38 38.66 20.3V12.23l30.66-.2c10.77-.1 20.6 3.58 26.87 12.5l22.2 26.55V40.33c0-18.77 12.72-28.33 30.66-28.33h30.66v1.24l60.9-5.64c21.13.4 37.84 8.92 49.74 24l-.3-10.6 2.67-15.18 31.17-1c18.25-.6 31.48 8.72 32 27.8 0 .1.1.2.1.3z" fill="#7f3e13"/><path d="M371.3 32.12V12l30.66-.2c10.77-.1 20.62 3.6 26.87 12.5l22.25 26.56V40.12c0-18.77 12.72-28.3 30.66-28.3h30.66v1.23l60.92-5.64c23.17.5 40.9 10.6 53.1 28.6l-.92-30.36 31.18-1c18.25-.62 31.48 8.7 32 27.8.72 2.35 3.28 2.25 4.6.1l-.92-29 31.17-1C733.7 2.18 742.32 5 748 10.7l71.37 2.36.62.1c22.86 3.38 39.17 15.58 48.9 34.86l3.6-42.76 105.62 8.82-2.26 27.17c-.92 11.18-6.15 19.28-14.56 22.87l8.62.72-2.26 27.28c-1 11.8-6.66 20.1-15.9 23.48l17.84 1.54-2.3 27.17c-1.43 16.6-12.2 26.25-28.9 24.92l-79-6.56 1.37-15.66c-10.87 13.94-26.25 22.25-45.94 23.9l-72.6-2.36.72-22.05c-12.72 10.47-31.6 15.5-47.8 16-23.15.7-53.15-7.3-62.65-30.48-8.93 16.8-23.7 28.1-44.2 32.4l-72.3 6.87-3.4-35.48v2.36c0 18.76-12.7 28.3-30.66 28.3-10.15 0-19.17-3.7-25.64-11.48l-23.38-27.9v11c0 18.66-12.7 28.3-30.66 28.3h-30.65v-4c-15.07 9.43-29.74 5-41-8.1l-10.77-14.67c-.72 17.74-13.23 26.77-30.66 26.77h-30.67v-31.2c-15.8 21.84-40.3 32.4-67.17 32.4-22 0-41.94-6.66-57.94-22a73.42 73.42 0 0 1-21.63-40.81c-10.36 12-23.8 17.74-39.6 17.74h-8.4v15.68c0 18.67-12.72 28.3-30.67 28.3H2.46V12.23H76.9c20.92 0 37.63 13.33 45.1 31.77 15.17-24.3 41-36.1 69.52-36.1 26.87 0 51.07 10.36 66.86 32.3V11.82h74.45c16.3 0 29.12 7.38 38.66 20.3z" fill="url(#C)"/><path d="M626.34 33.25l-.92-27.7h.1l.92 27.9-.1-.1v-.1zM693.2 30l-.82-26.56h.1l.82 26.46zm284.66-15.9h.2l-2.26 27.18c-.8 9.3-4.5 16.48-10.66 20.72l-4-.3c8.4-3.6 13.64-11.7 14.56-22.87l2-24.6zm-8.3 50.76h.2l-2.25 27.28c-.83 9.74-4.93 17.23-11.5 21.33l-4.4-.4c9.23-3.38 15-11.8 15.9-23.48zm-.3 52.3h.2l-2.25 27.18c-1.44 16.6-12.2 26.25-28.92 24.9l-79-6.56.2-2.46 78.75 6.56c16.7 1.44 27.48-8.3 28.92-24.92l2-24.6v-.1zm-108.8 30.05c-10.87 13.74-26.15 21.94-45.63 23.58l-72.6-2.35.1-2.57 72.6 2.36c19.7-1.64 35-9.95 45.94-23.9l-.2 2.87zm-117.62-.72c-12.7 10.36-31.48 15.38-47.68 15.9-23.18.72-53.12-7.28-62.66-30.45-8.92 16.82-23.68 28.1-44.2 32.4l-72.3 6.84-3.38-35.48v2.36c0 18.77-12.7 28.3-30.66 28.3-10.15 0-19.18-3.7-25.64-11.48L432.94 127v-2.57l23.38 27.9c6.57 7.8 15.6 11.48 25.64 11.48 18 0 30.66-9.54 30.66-28.3v-2.36L516 168.6l72.3-6.87c20.5-4.3 35.17-15.6 44.2-32.4 9.64 23.17 39.48 31.17 62.66 30.45 16.2-.5 35.07-5.54 47.8-16l-.1 2.57v.1zm-310-10.77v2.57c0 18.66-12.72 28.3-30.66 28.3h-30.65V164h30.66c17.94 0 30.66-9.64 30.66-28.3zM371.5 162.5c-15.08 9.43-29.74 5-41-8.1l-10.77-14.67c-.7 17.74-13.23 26.77-30.66 26.77H258.4v-2.57h30.66c17.43 0 29.95-9 30.66-26.76l10.77 14.66c11.28 13 25.94 17.54 41 8.1zm-113.1-27.2c-15.8 21.84-40.3 32.4-67.16 32.4-22.05 0-41.95-6.67-57.94-22.05a73.41 73.41 0 0 1-21.64-40.81c-10.36 12-23.8 17.74-39.58 17.74h-8.4V120h8.4c15.8 0 29.22-5.74 39.58-17.74a73.43 73.43 0 0 0 21.64 40.82c16 15.38 35.9 22 57.94 22 26.86 0 51.37-10.56 67.16-32.4zm-194.63.4v2.57c0 18.66-12.7 28.3-30.66 28.3H2.46V164h30.66c17.95 0 30.66-9.64 30.66-28.3z" fill="#ff9701"/><path d="M935.5 159.8c10.26.82 15.8-4 16.72-14.56l1.33-15.9-43.48-3.6 1.64-20 24.2 2c10.26.82 15.8-4 16.72-14.66l1.33-16-39.48-3.28 1.64-19.38 28.1 2.35c10.25.83 15.8-4 16.7-14.56l1.34-15.9-83.07-7-11.28 134.83 67.7 5.64zm-353.37-4.6l-59.78 5.64-12.72-134.64 59.8-5.64c22.25.5 38.56 11.17 48.9 32.2A82 82 0 0 1 627.47 83a80.37 80.37 0 0 1-3.28 31.37c-6.26 22.55-20.2 36.2-42.05 40.8zm8.62-69.94q-3.7-38-31.9-36.3l-7.18.72 7.6 79.78 7.17-.5q28-5.7 24.3-43.7zm152.38 28.3q.6 19.08-15.38 28.92c-10.67 6.46-22.87 9.95-36.7 10.46s-26.26-2.26-37.23-8.1-16.7-15.18-17.12-27.9l-3.08-98.55 19.8-.6c13.23-.4 20 5.23 20.4 16.8l2.36 75.27c.2 7.6 4.92 11.28 13.94 11s13.54-4.2 13.23-11.9l-3-92.7 19.8-.62c13.23-.4 20 5.23 20.4 16.82zm67.06 47.8l-60.1-2 4.4-135.15 60.1 1.95q33.08 4.97 44.4 38.2a82.78 82.78 0 0 1 5.22 31.17 79.16 79.16 0 0 1-7.22 30.67c-9 21.63-24.7 33.32-46.86 35.17zM827.63 93q1.08-38.15-27.07-40.1l-7.18-.2-2.66 80.1 7.18.4c19-1.44 28.9-14.76 29.63-40.2z" fill="#9a4c18"/><path d="M939.72 154.36c10.25.82 15.8-4 16.7-14.57l1.33-15.9-43.48-3.6 1.65-20 24.2 2c10.25.83 15.8-4 16.7-14.66l1.33-16-39.48-3.3L920.33 49l28.1 2.36c10.26.82 15.8-4 16.7-14.56l1.34-15.9-83.06-7-11.28 134.8 67.68 5.64h-.1zm-353.37-4.62l-59.8 5.64-12.7-134.64 59.78-5.64c22.26.5 38.56 11.18 48.92 32.2a81.64 81.64 0 0 1 9.12 30.25 80.21 80.21 0 0 1-3.28 31.38c-6.25 22.56-20.2 36.2-42.04 40.8zM595 79.8q-3.7-38-31.9-36.3l-7.18.72 7.55 79.78 7.18-.5q28-5.68 24.34-43.68zm152.38 28.3Q748 127.17 732 137c-10.66 6.47-22.87 9.95-36.7 10.47s-26.3-2.24-37.3-8.08-16.72-15.18-17.13-27.9L637.83 13l19.8-.62c13.23-.4 20 5.23 20.4 16.82l2.36 75.27c.2 7.6 4.93 11.28 14 11s13.53-4.2 13.23-11.9l-3-92.7 19.8-.62c13.23-.4 20 5.23 20.4 16.82zm67.07 47.78l-60.13-1.9 4.4-135.16 60.1 1.95q33.06 4.92 44.4 38.15a82.73 82.73 0 0 1 5.23 31.17 79.51 79.51 0 0 1-7.28 30.66c-9 21.64-24.7 33.33-46.86 35.17zm17.4-68.3q1.08-38.14-27.07-40.1l-7.18-.2-2.67 80.1 7.18.4c19-1.44 28.92-14.77 29.64-40.2z" fill="url(#D)"/><path d="M953.66 127.4l-43.48-3.6 2.26-27.5 27.9 2.36c8.4.72 12-3 12.6-11.28l1-12.2-39.48-3.28 2.3-26.9 31.9 2.67c8.4.72 12-2.87 12.6-11.18l1-12.1-75.55-6.32L876 145.33l64 5.33c8.4.72 12-2.87 12.62-11.17zm-367.93 18.66c20.92-4.5 33.33-17.54 39-38v-.1A76.17 76.17 0 0 0 619.16 49v-.1c-9.43-19.07-24-29.63-45.43-30.15l-55.88 5.34 12 127.15 55.88-5.24v.1zm12.92-66.55c2.16 22-3.07 42.76-27.27 47.68h-.2l-11.07.72-8.2-87.16 11-1h.1a32.05 32.05 0 0 1 18.86 4.2c11.9 7.4 15.8 22.46 17 35.48zm109.73-65l2.76 89c.3 10.67-6.87 15.38-16.92 15.7s-17.53-3.9-17.84-14.56L674 29.35c-.3-10.45-6.66-13.53-16.5-13.22l-16.1.5 3 94.75c.3 11.28 5.13 19.38 15.17 24.7 11 5.85 23.08 8.1 35.38 7.7s24.2-3.38 34.87-9.84c9.64-5.85 13.94-14.36 13.53-25.64l-2.56-81.1c-.3-10.46-6.67-13.54-16.5-13.23l-16.1.5zM814.2 152.1c21.33-1.85 35.28-13.23 43.48-32.82v-.1a76.35 76.35 0 0 0 1.85-59.06V60c-6.87-20.1-20.1-32.4-41.23-35.7l-56.1-1.85-4.2 127.7 56.1 1.85zm21.23-64.4c-.72 22.15-8.5 42.05-33.13 43.9h-.2l-11.1-.72 2.9-87.47 11 .4h.1c24.72 1.75 31.18 22.15 30.56 44z" fill="url(#E)"/><path d="M953.66 127.4l-43.48-3.6 1.54-18.36c.2-2.77-2.15-2.87-2.46-.2L907.1 131l43.47 3.6-.6 6.87c.82 3.18 2.46.2 2.67-1.84l1-12.1v-.1zm-.72-40l1-12.2-39.48-3.28 1.44-16.7c.2-2.16-2.16-2.88-2.47-.1l-1.9 23.9L951 82.27l-.72 8.1c-.3 3.6 2.56-.92 2.77-3h-.1zm5-42.14c1.85-1.85 2.87-4.72 3.18-8.72l1-12.1-70.45-5.84c-5.53-.5-5.33 6.87-.92 7.28l68.4 5.74L958 45.45v-.2zM627.37 95.2a75.36 75.36 0 0 0 .41-17.19c-1-10.77-4-19.38-8.72-28.92-9.43-19.07-24-29.63-45.43-30.14l-52 4.92c-4.3.4-3.6 7.18 1 6.66l48-4.5c21.43.5 36 11.07 45.43 30.15 6.56 13.23 9.64 26.05 9 39.27-.16 4.17 1.94 3.35 2.3-.24zm-43.9 27.27a37 37 0 0 1-12.31 4.72l-11.38.82-7.28-77c-.3-3.18-3.9-2.36-3.7.4l7.9 83.78 11.4-.82c7.48-1.54 13.22-4.6 17.43-8.72 2.56-2.56-.5-4.1-2.16-3zm129.2-101.2l8.62-.3c9.84-.3 16.2 2.66 16.5 13.22l2.35 74.25c.1 3.48 3.4 4.6 3.3-.2l-2.57-81.1c-.3-10.46-6.66-13.54-16.5-13.23l-11.9.4c-3.9.1-3.6 7.08.2 6.97zm-12.5 96.9c-9.64 2.87-23.48.4-23.9-13.64l-2.36-75.27c-.3-10.46-6.66-13.53-16.5-13.23l-11.8.4c-5 .2-3.7 7.08.2 7l8.5-.3c9.84-.3 16.2 2.66 16.5 13.23l2.36 75.27c.3 10.66 7.9 15 17.84 14.56 4.6-.1 8.6-1.23 11.6-3.4s.7-5.66-2.47-4.63zM864 96.42c1.43-11.8-.1-23.6-4.5-36.3-6.87-20.1-20.1-32.4-41.23-35.7l-51.68-1.74c-4.2-.1-3.08 7.07-.2 7.18l48.9 1.64C836.4 34.7 849.64 47 856.5 67.2a80.84 80.84 0 0 1 5 29.74c-.1 4.72 1.94 3.9 2.56-.5zm-41.7 27.17c-4.92 4.4-11.48 7.28-20.2 7.9l-11.38-.62L793.28 54c.1-3.08-2.66-3.9-2.76-.1l-2.77 84.2 11.38.62c11.7-.82 19.7-5.85 24.8-13.13 1.34-1.84-.1-3.18-1.53-1.84z" fill="#fff"/><path d="M73.22 109.34c12.5 0 22.56-4.4 30.45-13.23a46.48 46.48 0 0 0 12.1-31c.3-11.8-3.18-22-10.56-30.56S88.8 21.77 77.83 21.77H14.66v131.56H34c12.93 0 19.4-5.64 19.4-17v-27h19.83zM463.6 80.22V38.38c0-11.38 6.46-17 19.38-17h19.38v115c0 11.28-6.46 17-19.38 17-7.17 0-12.82-2.46-17-7.38l-43.4-51.63v42c0 11.28-6.46 17-19.4 17h-19.38V21.56l19.38-.1c8.3-.1 14.16 2.56 17.74 8l42.66 50.86zm-111.77 17l17.64 24c4.82 5.64 7.07 10.77 6.87 15.38s-2.57 8.72-7 12.3-9.12 5.44-14.15 5.23S345.16 151 340 145l-30.56-41.84v33c0 11.28-6.46 17-19.38 17h-19.34v-132h63.16c10.77 0 19.8 4.2 27 12.5S371.62 51 371.62 60.53c0 17.02-6.56 29.22-19.8 36.7zm-42.45-49.3v30.14h11.17c11 0 16.4-5 16.4-15.07s-5.43-15.07-16.4-15.07zm-244.78 0c11 0 16.4 5 16.4 15.07s-5.43 15.07-16.4 15.07H53.43V47.92z" fill="#b85a1b"/><path d="M72 111.18c12.5 0 22.56-4.4 30.45-13.22a46.55 46.55 0 0 0 12.1-31c.3-11.8-3.18-22-10.56-30.56S87.57 23.6 76.6 23.6H13.43v131.57H32.8c12.92 0 19.38-5.64 19.38-17v-27H72zm390.37-29.12V40.22c0-11.38 6.46-17 19.38-17h19.38v115c0 11.28-6.46 17-19.38 17-7.17 0-12.82-2.46-17-7.4l-43.4-51.62v42.05c0 11.28-6.46 17-19.38 17H382.6V23.4l19.4-.1c8.3-.1 14.16 2.57 17.74 8l42.66 50.87zm-111.77 17l17.53 24c4.82 5.64 7.08 10.77 6.87 15.38s-2.56 8.72-7 12.3-9.13 5.43-14.15 5.23-10.05-3.18-15.18-9.13L308.15 105v33c0 11.28-6.46 17-19.4 17h-19.38V23.1h63.17c10.77 0 19.8 4.2 27 12.5s10.77 17.23 10.77 26.76c0 17-6.57 29.23-19.8 36.7zm-42.45-49.3V79.9h11.17c11 0 16.4-5 16.4-15.08s-5.43-15.07-16.4-15.07zm-244.78 0c11 0 16.4 5 16.4 15.07S74.34 79.9 63.37 79.9H52.2V49.76z" fill="#b2b2b2"/><path d="M98.44 30.9a33.93 33.93 0 0 0-21.63-7.38H13.64v130.33h17.84c12.92 0 19.38-5.64 19.38-17v-27h19.7c12.5 0 22.56-4.4 30.46-13.23a46.57 46.57 0 0 0 12.1-31c.3-11.8-3.18-22-10.57-30.56a53.61 53.61 0 0 0-4.2-4.31zM461 80.73v-.5l1.48 1.78V40.12c0-11.38 6.45-17 19.37-17h17.85v113.8c0 11.28-6.46 17-19.38 17a22 22 0 0 1-13.64-4.21 16.32 16.32 0 0 1-1.95-2l-43.38-51.5v.5L419.92 95v42c0 11.3-6.46 17-19.38 17H382.7V23.4l19.38-.1c5.74 0 10.25 1.24 13.74 3.8a19 19 0 0 1 2.56 3.07L461 81v-.3zm-111.77 17l17.53 24c4.82 5.64 7.08 10.76 6.87 15.38s-2.56 8.72-7 12.3-9.13 5.44-14.15 5.24c-3.28-.1-6.57-1.44-9.95-4.1a45.76 45.76 0 0 1-3.79-3.89l-30.56-41.84v.82l-1.44-2.05v33c0 11.28-6.46 17-19.38 17H269.6V22.9h63.17a34 34 0 0 1 21.63 7.28 46.2 46.2 0 0 1 3.9 4q10.77 12.45 10.77 26.76 0 25.53-19.8 36.7v.1zm-42.42-49.3v30.14h1.44v1.24h11.18c11 0 16.4-5 16.4-15.08 0-5.64-1.74-9.74-5.23-12.2-2.77-2.67-7-4.1-12.6-4.1zm-244.8 0c5.64 0 9.84 1.33 12.6 4.1 3.5 2.46 5.23 6.56 5.23 12.2 0 10-5.43 15.08-16.4 15.08H52.3v-1.24h-1.44V48.43z" fill="url(#F)"/><path d="M191.25 19.92c38.14 0 69.1 30.56 69.1 68.2s-31 68.2-69.1 68.2-69.12-30.55-69.12-68.2 30.97-68.2 69.12-68.2z" fill="#b85a1b"/><path d="M191.25 23.5c36.2 0 65.42 28.92 65.42 64.6s-29.33 64.6-65.42 64.6-65.43-28.92-65.43-64.6 29.33-64.6 65.43-64.6z" fill="url(#G)"/><path d="M191.25 29.66c32.7 0 59.27 26.15 59.27 58.45s-26.52 58.45-59.27 58.45S132 120.4 132 88.1s26.53-58.45 59.25-58.45z" fill="#fff"/><path d="M157 124.2c-3-9.44-6.87-22.15-6.87-32 0-38.76 82.14-40.5 82.14 0 0 9.85-3.9 22.56-6.87 32l-.82 1.23c-17.43 15.48-49.32 15.48-66.86 0l-.82-1.23z" fill="#9a4c18"/><path d="M160.38,122.87c-2.67-8.4-6.56-21.12-6.56-30.45,0-34.35,75-36.1,75,0,0,9.33-3.9,22-6.57,30.45-16.1,14.26-45.73,14.26-61.73,0Z" fill="#e5895b"/><path d="M154 88.73c4.92-29.64 69.42-31.07 74.35-.1a78.14 78.14 0 0 1-1.23 10.15 298.08 298.08 0 0 0-30.36 1.64c-1.54.2-2.05 1.64-5.33 1.64s-4.3-1.44-5.74-1.64a270.78 270.78 0 0 0-30.36-1.64 61.48 61.48 0 0 1-1.23-10zm60.5 34.35c-13.84 7.4-32.7 7.4-46.55 0a81.16 81.16 0 0 0 8.92.72c3 0 7.38-.4 8.92-3.18 4.6-8.4 6.46-8.2 11 0 1.54 2.77 5.85 3.18 8.92 3.18a81.16 81.16 0 0 0 8.92-.72z" fill="#fad395"/><path d="M150.54 98.16l8.7.2a73 73 0 0 1 .31-12.62 13.69 13.69 0 0 1 5.33-2.46 14.39 14.39 0 0 1-5.33-4.1 17.34 17.34 0 0 1 5.74-1.43 71.25 71.25 0 0 1 19.38 5.94l-9.12.52c5.74 1.53 10.25 2.35 15.7 3.28 10.45-1.34 21.94-6.36 30.25-11.6a35.34 35.34 0 0 1 1.43 3.49 11.23 11.23 0 0 1-5.23 3.89 18.52 18.52 0 0 1 5.3 2.46 70.82 70.82 0 0 1 .31 12.62l9.13-.2a89.29 89.29 0 0 1 .31-16.3 10.74 10.74 0 0 0 1.94-5.23 13.67 13.67 0 0 1-4.82 1 10.55 10.55 0 0 0 4-3.69 71.82 71.82 0 0 0 .82-10.77 26.2 26.2 0 0 1-9.12 6c.5-1.43.92-3.28 1.74-6.15-1.43-4-4.1-7-6-10.25a30.37 30.37 0 0 1-1.43 8A97.42 97.42 0 0 0 213.8 50a81.36 81.36 0 0 0-13.33-8.71c3.18 4.2 6.77 9.23 8.82 14.25a111.71 111.71 0 0 0-8.51-9.54c-10.77-2.57-21.33-3.08-33.53-3.18 6.15 5.43 9.95 8.6 14.15 14.46-2.26-1.54-4.2-2-9-3.4-5.13.52-9.13 1.54-17 4 5.54 2.57 8.93 4.82 11.6 7.28a66.29 66.29 0 0 0-19.48 6.36 16.19 16.19 0 0 1 5.33 2.67c-1.13.1-2.36.2-3.5.2a184.49 184.49 0 0 1 1.54 23.79z" fill="#7f3e13"/><path d="M159.15 82.88a15.43 15.43 0 0 1-3.59-5.13v-.1l7.7-2.77a70 70 0 0 1 26.87 8.41l.4-2c-1.85-4.5-4.2-7.17-8.5-12.5 5.53 4.52 8.5 7.9 11 12.2a16.55 16.55 0 0 1-.41 2.36 21.18 21.18 0 0 0 3.59-5.13c-.3-5.23-.93-8.2-2.57-15.7a39.18 39.18 0 0 1 5.13 16.1 32.89 32.89 0 0 1-2 3.48 36.77 36.77 0 0 0 4.92-3.59c.72-4.7.72-7 .62-13.53a41.11 41.11 0 0 1 1.43 14.76c-.92.93-2 1.64-2.87 2.47a74.15 74.15 0 0 0 19.08-8.62 18.94 18.94 0 0 0 2.46-3.79l2.05-6.67c-.4-1-1-2-1.54-3.08l-2.36 8c-2.77-5.64-5-10.76-8.6-16.6a26.92 26.92 0 0 0-3.8-3c2.16 4.3 2.87 7 4.1 9.84a22.25 22.25 0 0 1 3.39 7.69c-5.64-7.07-9.23-11.7-16.3-17.64a121.8 121.8 0 0 0-25.12-2.76c7.28 6.66 10.87 12.4 16.6 20.4a60 60 0 0 0-19-9.43c-1.43-.2-7.6 1.43-9.53 1.95a59.78 59.78 0 0 1 9.84 7.69 58.44 58.44 0 0 0-10.36 2.35 62.16 62.16 0 0 0-8.3 2.77l2.46 2.16c3.38-.62 4.1-.93 6-1.13a26.53 26.53 0 0 1-3.28 2.36c-2.16.82-4.1 1.43-6.57 2.15.72 6.26 1 12.4 1.13 18.66l3.28.1a60.46 60.46 0 0 1 .62-11.39zm73.1-3.88a20.46 20.46 0 0 1-6.56 1.12 7.66 7.66 0 0 1-2.36 2.77c.72.5 1.33 1.23 2 1.75A90 90 0 0 1 225.7 98l4.2.3c-.2-3.7-.2-9 .1-15.07a8.7 8.7 0 0 1-3.59.72c3.18-1.85 4.82-3 5.84-4.82zm-7.07-1a13.44 13.44 0 0 0 6.15-5 22.59 22.59 0 0 0 .41-4.1 38.83 38.83 0 0 1-7.49 3.28c-.3.4-.7 1.13-1 1.54a24.73 24.73 0 0 1 1.84 4.2z" fill="#b85a1b"/><path d="M190.12 83.4l.4-2c-1.85-4.5-4.2-7.18-8.5-12.5 5.53 4.5 8.5 7.9 11 12.2a16.55 16.55 0 0 1-.41 2.36 21.18 21.18 0 0 0 3.59-5.13c-.3-5.23-.93-8.1-2.57-15.7a39.18 39.18 0 0 1 5.13 16.1 34.23 34.23 0 0 1-2 3.49 37.67 37.67 0 0 0 4.92-3.59c.72-4.72.72-7 .62-13.54a41.16 41.16 0 0 1 1.43 14.77c-.92.92-2 1.63-2.87 2.46a81.75 81.75 0 0 0 15-6.15 49.32 49.32 0 0 0 2.76-7.17 46.59 46.59 0 0 1-3.79 4 37 37 0 0 0 .62-6.77c-5.64-7.08-9.23-11.7-16.3-17.64A121.81 121.81 0 0 0 174 45.86c7.28 6.67 10.87 12.4 16.6 20.4a59.79 59.79 0 0 0-19-9.44c-1.44-.2-7.6 1.44-9.54 2a48.89 48.89 0 0 1 19.79 13.85c-3.18-.72-5.94-1.44-9.74-.92 7.6 2.35 13.13 6.66 17.84 11.9z" fill="#ff9701"/><path d="M203 55.2a32.52 32.52 0 0 1 5.64 8c-.3 6.26-2 10.57-4.5 15.7a51.55 51.55 0 0 0-1.23-23.68zm-28.1 7.17a51.08 51.08 0 0 1 18.6 8.93 25.55 25.55 0 0 1 .72 8.4c-5.95-8.6-9.54-11.07-19.28-17.33zm16.4-7.48c3.9 2 6.46 3.6 8.82 4.92 1.43 7.8.82 11.38 0 18.56-1.64-10.36-2.77-13.74-8.92-23.48z" fill="#fde049"/><path d="M191.45 99.7c-3.18 0-4.3-1.85-5.74-2-14.56-2-31.9-2.87-43.8-1.33-1.84.2-1.74 5.33.5 6.56l2.16 1.23a67.22 67.22 0 0 0 2.41 11.02c.82 3.08 2.25 5.13 4.6 6.36 5.95 3.18 18.87 5.44 25.23 5.54 3 0 7.38-.5 8.92-4a47.87 47.87 0 0 0 3.07-13.23c.3-2.56 4.62-2.67 4.82.2a42.6 42.6 0 0 0 3.08 13c1.54 3.38 5.85 4 8.92 4 6.36-.1 19.28-2.26 25.23-5.54 2.36-1.23 3.8-3.28 4.6-6.36a67.22 67.22 0 0 0 2.36-11.07l2.15-1.23c2.26-1.23 2.36-6.26.52-6.56-11.9-1.54-29.23-.62-43.8 1.33-1.54.2-2.05 2-5.33 2z" fill="#232323"/><path d="M143 98.37c-.2.6 0 1.74.4 1.64 6.87-.93 16.8-1.23 41.22-.4-13.23-1.75-28.4-2.88-41.53-1.23zm96.6 0c.2.6 0 1.74-.4 1.64-6.87-.93-16.8-1.23-41.22-.4 13.23-1.75 28.4-2.88 41.53-1.23z" fill="#3c3c3c"/><path d="M147.56 103.5c.5 3.8 1.13 5.75 1.95 9.54s2 5.64 4.4 6.77c7.18 3.07 15.38 4.1 23 4.3 2 .1 5.33-.4 6.25-2.47 1.65-3.8 2.67-10.46 3-14.66.1-1.74-.52-2.56-2.16-2.87-9-2-25.43-2.88-35-2-.82.1-1.44.6-1.34 1.44zm87.37 0c-.5 3.8-1.13 5.75-2 9.54s-1.95 5.64-4.4 6.77c-7.18 3.07-15.38 4.1-23 4.3-1.95.1-5.33-.4-6.25-2.47-1.64-3.8-2.67-10.46-3-14.66-.1-1.74.52-2.56 2.16-2.87 9-2 25.43-2.88 35-2 .82.1 1.44.6 1.34 1.44z" fill="#ccc"/><path d="M147.56 103.5c.5 3.8 1.13 5.75 1.95 9.54.6 2.87 1.44 4.72 3 5.84a126.17 126.17 0 0 1 32.31-14.56l-.93-.3c-9-2.06-25.43-2.88-35-2-.82.15-1.43.66-1.33 1.48zm51.68 17.74a115.19 115.19 0 0 1 35.48-18.56 1.68 1.68 0 0 0-1.23-.72c-9.53-1-25.94-.1-35 2a2.42 2.42 0 0 0-2.16 2.88 56.89 56.89 0 0 0 2.77 14.35z" fill="#fff"/><g fill-rule="evenodd"><path d="M1068.1 132.53c-13.94 17.9-49 16.17-66 3.12-10.37 16.2-37.7 10.38-37.7-11.86 0-11.64 8.13-20.84 19.88-21.18-2.7-30.46 17.94-53.43 48.7-53.43 13.68 0 26.53 1.56 35.2 12.9 9.54-9 21.44-12.9 34.48-12.9 13.53 0 25.84 4.22 35.46 13.88 5.13-14.1 26.57-15.75 36.68-3.73l7.9 9.47 7.9-9.43a22 22 0 0 1 17.48-8c11.94 0 20.53 6.85 20.53 19.2v55c0 12.32-8.63 19.17-20.53 19.17s-20.52-6.85-20.52-19.17v-4.1l-2.62 3.08a2.72 2.72 0 0 1-2.17 1 2.77 2.77 0 0 1-2.2-1l-2.67-3.08v4.07c0 12.32-8.62 19.17-20.52 19.17-9.7 0-17.22-4.56-19.65-12.93-9.7 9.4-21.78 13.6-35.23 13.6-13 0-24.86-4-34.37-12.93z" fill="url(#H)"/><path d="M991.1 117.86a9.9 9.9 0 0 0-7.87-3.27 10.12 10.12 0 0 0-7.9 3.27 11.72 11.72 0 0 0-3 8.25 11.59 11.59 0 0 0 3 8.21 10.34 10.34 0 0 0 7.9 3.2 10.18 10.18 0 0 0 7.91-3.28 11.86 11.86 0 0 0 3-8.21 11.68 11.68 0 0 0-3-8.17zM1181 86.18l15.24-18.33a12.37 12.37 0 0 1 10.11-4.49c7.22 0 10.87 3.16 10.87 9.55v55c0 6.35-3.65 9.55-10.87 9.55s-10.87-3.2-10.87-9.55V97.6l-14.48 17-14.46-16.9v30.23c0 6.35-3.65 9.55-10.87 9.55s-10.87-3.2-10.87-9.55v-55c0-6.47 3.6-9.66 10.87-9.55a12.58 12.58 0 0 1 10 4.49zm-40.9 13.54q0 17.16-11.14 27.8-11.14 10.63-28.2 10.6c-11.36 0-20.75-3.53-28.1-10.6s-11-16.35-11-27.8 3.65-20.77 11-27.88 16.72-10.68 28.27-10.68 21 3.57 28.25 10.68 10.94 16.4 10.94 27.88zm-26-13.8c-3.3-3.6-7.7-5.44-13.2-5.44s-9.88 1.83-13.22 5.48a19.68 19.68 0 0 0-5 13.77 19.38 19.38 0 0 0 5 13.69q5 5.4 13.22 5.4c5.48 0 9.85-1.83 13.16-5.44a19.58 19.58 0 0 0 5-13.73 19.83 19.83 0 0 0-5-13.73zm-53.32 38.26c0 2.66-2.1 5.63-6.3 9s-12 5-23.38 5-20.75-3.53-28.1-10.6-11-16.35-11-27.8 3.65-20.77 11-27.88 16.72-10.68 28.27-10.68 19.35 1.67 23.42 5 6.12 6.3 6.12 9a10.78 10.78 0 0 1-2.62 7.07c-1.8 2.06-3.7 3.08-5.78 3.08s-5.44-.8-10-2.4-7.94-2.44-10.22-2.44q-18.42 0-18.44 19.17-.02 19.17 18.44 19.17c2.28 0 5.7-.8 10.22-2.44s7.9-2.4 10-2.4 4 1 5.78 3.08a10.8 10.8 0 0 1 2.62 7.11z" fill="#9a4c18"/><path d="M992.8 115.5a10.13 10.13 0 0 0-7.87-3.24 10.23 10.23 0 0 0-7.9 3.24 11.92 11.92 0 0 0-3 8.29 11.73 11.73 0 0 0 3 8.21 10.34 10.34 0 0 0 7.9 3.2 10.18 10.18 0 0 0 7.87-3.27 12.85 12.85 0 0 0 0-16.43zm189.9-31.64l15.3-18.33a12.34 12.34 0 0 1 10-4.53c7.22 0 10.87 3.16 10.87 9.55v55c0 6.35-3.65 9.5-10.87 9.5s-10.87-3.16-10.87-9.5V95.27l-14.48 17-14.48-16.92v30.23c0 6.35-3.6 9.5-10.87 9.5s-10.83-3.16-10.83-9.5v-55c0-6.5 3.6-9.66 10.83-9.55a12.56 12.56 0 0 1 10 4.49zm-40.9 13.5c0 11.48-3.68 20.72-11.13 27.83s-16.8 10.6-28.2 10.6-20.72-3.53-28.1-10.6-11-16.35-11-27.83 3.65-20.73 11-27.84 16.76-10.68 28.28-10.68 20.94 3.57 28.24 10.68 10.94 16.4 10.94 27.84zm-26-13.77c-3.27-3.6-7.68-5.44-13.16-5.44s-9.92 1.83-13.22 5.48-5 8.2-5 13.77 1.63 10.1 5 13.7 7.7 5.4 13.2 5.4a17.13 17.13 0 0 0 13.19-5.44 19.62 19.62 0 0 0 4.94-13.73 19.63 19.63 0 0 0-4.94-13.73zm-53.33 38.26c0 2.62-2.1 5.63-6.3 9s-12 5-23.37 5-20.72-3.53-28.1-10.6-11-16.35-11-27.83 3.65-20.73 11-27.84 16.76-10.68 28.28-10.68 19.34 1.67 23.45 5 6.08 6.35 6.08 9a10.75 10.75 0 0 1-2.62 7.11 7.56 7.56 0 0 1-5.78 3.08c-2.13 0-5.44-.8-10-2.43s-8-2.4-10.22-2.4q-18.42 0-18.44 19.17-.02 19.17 18.44 19.17c2.24 0 5.66-.84 10.22-2.44s7.87-2.43 10-2.43 4 1.06 5.78 3.12a10.68 10.68 0 0 1 2.62 7.11z" fill="#fff"/></g><path d="M1236.83 27.4a13.86 13.86 0 1 0 13.86 13.86 13.88 13.88 0 0 0-13.86-13.86zm0 2.14a11.73 11.73 0 1 1-11.72 11.72 11.71 11.71 0 0 1 11.72-11.72zm-5.32 4.26v14.92h2.13v-4.26h2.66l3.15 4.26h2.65l-3.42-4.6a5.32 5.32 0 0 0-1.85-10.31zm2.13 2.13h3.2a3.2 3.2 0 1 1 0 6.4h-3.2z" fill="#767676"/></svg>