<svg xmlns="http://www.w3.org/2000/svg" viewBox="0 0 32 32"><path d="M.1 24.3l2-10 1.2-6.6c.1-.3.1-.6.2-.8v-.1c.4-1 1.2-1.8 1.9-1.9l23.1-4c2.4-.5 3.1 1.9 3.3 3.1l-.3 2.7-2 21.7c-.1.9-.8 1.6-1.6 1.5l-26-2.4C.7 27.5 0 25 .1 24.3z" fill="#5c2e0e"/><path d="M1 24l2.8-8.8 1.3-6c0-.2.1-.5.2-.7v-.1c.4-.8 1-1.4 1.7-1.5l21.6-3.4c1-.2 1.8.4 1.9 1.4l-.3 2.6L28 26.8c-.1.8-.7 1.3-1.4 1.3L2.1 26c-.3 0-1.2-1.5-1.1-2z" fill="#ed9828"/><path d="M4.8 7l9 7.4L29.3 3.1l-2.4 21c-.1.7-.7 1.3-1.3 1.3L1.8 24c-.4 0-.5-.5-.4-1L4.8 7z" fill="#fa9c39"/><path d="M26.7 25.3l-12-13.1c-.3-.4-.9-.3-1.4.1L1 24l25.7 1.3z" fill="#692122"/><path d="M26 25.3L14.4 14.2c-.3-.3-.9-.3-1.4.1l-11.4 10 24.4 1z" fill="#ffd085"/><path d="M4.8 7l7.6 11.7c.4.3.9.3 1.4-.1L29.6 3.3l-.8-.8L5.5 6.7l-.7.3z" fill="#692122"/><path d="M5.4 7l7.2 9.7c.4.4.9.3 1.4-.2l14.4-13c.4-.4.4-1.1-.1-1L5.7 6.2c-.3 0-.5.6-.3.8z" fill="#ffd085"/><path d="M26.5 2.8l-13 12-6.9-8.6z" fill="#ffe8b6"/><path d="M29 5.6l-9.2 8.9 7.1 9.4zM4.4 9l4 6.5-6.8 6.7z" fill="#ffd085"/></svg>