<svg xmlns="http://www.w3.org/2000/svg" xmlns:xlink="http://www.w3.org/1999/xlink" viewBox="0 0 661.28 356.37"><defs><linearGradient id="A" x1="344.79" y1="123.1834" x2="344.79" y2="229.0689" xlink:href="#G"><stop offset="0" stop-color="#b85a1b"/><stop offset="1" stop-color="#7f3e13"/></linearGradient><linearGradient id="B" x1="345.1043" y1="147.6015" x2="345.1043" y2="31.7879" xlink:href="#G"><stop offset="0" stop-color="#b85a1b"/><stop offset="1" stop-color="#ff9701"/></linearGradient><linearGradient id="C" x1="354.039700000001" y1="190.359599999996" x2="354.039700000001" y2="296.639999999999" xlink:href="#G"><stop offset="0" stop-color="#ff9701"/><stop offset="1" stop-color="#fde049"/></linearGradient><linearGradient id="D" x1="355.442400000007" y1="278.131000000001" x2="355.442400000007" y2="200.047000000006" xlink:href="#C"/><linearGradient id="E" x1="361.935599999997" y1="155.4444" x2="361.935599999997" y2="120.147599999997" xlink:href="#G"><stop offset="0" stop-color="#d0d0d0"/><stop offset="1" stop-color="#fff"/></linearGradient><radialGradient id="F" cx="145.08" cy="441.3" r=".3" gradientTransform="matrix(79.78, 0, 0, -78.77, -11301.04, 34812.45)" xlink:href="#G"><stop offset="0" stop-color="#fff"/><stop offset="1" stop-color="#d0d0d0"/></radialGradient><linearGradient id="G" gradientUnits="userSpaceOnUse"/></defs><path d="M0 60.65h142.04v53.6H0L26.32 87.4 0 60.65z" fill="#4b4b4b"/><path d="M0 60.65h119.28v53.6H0L26.32 87.4 0 60.65z" fill="#767676"/><path d="M49 78v22.43c0 3-1.72 4.54-5.17 4.54H38.6V78h-5.18c-2.8 0-4.2-1.4-4.2-4.1v-4.08h24.9c2.8 0 4.2 1.4 4.2 4.1s-1.4 4.1-4.2 4.1H49zm61.15 26.86c2.7 0 4-1.4 4-4.1v-4.1h-11.37V91.5H109c2.7 0 4-1.4 4-4.2v-4.2h-10.33V78H110c2.7 0 4-1.4 4-4.1v-4.08H92.32V105H110zm-21-35.16v30.63q0 4.53-5.17 4.53c-3.46 0-5.18-1.5-5.18-4.53v-9h-7v9q0 4.53-5.18 4.53h-5.25V69.7h5.17q5.17 0 5.18 4.53v8.84h7v-8.84c0-3 1.72-4.53 5.18-4.53z" fill="#fff"/><path d="M493.4 327.57c-13.05 17.15-30.2 26.32-53 28.26h-.1l-82.5-2.6.65-25.45c-15.2 12.73-39 18.55-57.92 18.55-23 0-52.84-7.87-65.24-28.9a43.63 43.63 0 0 1-3.09-6.44c-10.68 20.4-27.18 32.57-50.58 37.64h-.1l-81.32 7.77-9-15.75L74 158.25l53.6-5.07V19.88h70.65c18.33 0 33.64 10.57 41.62 26.43 14.67-20.5 38-30.42 63.2-30.42 22.33 0 43.68 7.87 58.46 24.48l.2-20.92h70.65a44 44 0 0 1 31.38 12.62l1.83-12.5 30.2-.1c10.57-.1 20.38 3.56 26.64 12.4L536.9 49.1l2.26-9.17c3.56-14.23 15.75-20.5 29.77-20.5h30.63v118.1c0 6.57-1.94 11.53-4.1 17.25l39.7 3.34-2.6 31.6a36.53 36.53 0 0 1-3.13 12.73l-6.9 15.2 3 .2-2.7 31.7a40.33 40.33 0 0 1-3.77 14.13c-1.4 2.8-2.8 5.7-4.1 8.63-1 1.94-1.94 4-2.9 6l13.05 1.08-2.6 31.6a36.44 36.44 0 0 1-4.5 15.45c-1.62 2.8-3.13 5.83-4.64 8.74a72.2 72.2 0 0 1-5.6 9.17c-6.47 8-16 10.24-25.9 9.5L492 346.34l1.62-19z" fill="url(#A)"/><path d="M496.75 318.08c-13.05 21.8-31.17 33-56.5 35.27l-79.8-2.6.65-29c-14.13 15.2-40.55 22-60.6 22.1-21.68 0-51-7.33-63.1-27.6a40.66 40.66 0 0 1-4.85-12.08c-10.24 23.2-26.75 36.56-51.55 42.06l-79.48 7.55L93.6 340 76.68 160.73l53.32-5.07V22.58h68.16c19 0 34.3 11.86 41.2 29.12 13.87-22.22 37.5-33.1 63.64-33.1s47.88 10.9 60.93 29.12l.33-25.56h68.16c13.37 0 24.58 5.5 33.1 15.74l2.27-15.53 28-.1c9.92 0 18.87 3.24 24.6 11.44l17.7 21.13 3.45-14.12c2.9-12.3 13.37-18.55 27.28-18.55h28v115.6c0 7.55-2.7 12.83-5.07 19.52l40.56 3.34-2.38 29a36 36 0 0 1-2.91 12l-8.4 18.55 4.1.32-2.48 29.12a35.26 35.26 0 0 1-3.56 13.26c-2.27 4.53-6.7 14.24-8.95 18l14.45 1.18-2.37 29a34.64 34.64 0 0 1-4.21 14.45c-2.27 4.1-7.23 14-10 17.48-5.93 7.33-14.67 9.27-23.62 8.62l-87.36-7.33z" fill="#7f3e13"/><path d="M501.17 303.1c-12.5 21.36-31.8 34.2-58.24 36.35h-.54l-81.64-2.7 1-30.3a52.3 52.3 0 0 1-11.21 9.16c-28.26 17.26-68.16 18.55-97.4 3.13-12.83-6.8-21-17-24.16-30.1-9.7 22.76-27.28 37.85-53.17 43.36l-.54.1-81.3 7.66L77 160.52l53.28-5.07V22.36h68.16a42.36 42.36 0 0 1 26.1 8.85 48.25 48.25 0 0 1 15.21 20.38 66.73 66.73 0 0 1 10.35-12.73c14.67-14.23 33.1-20.38 53.4-20.38 26.3 0 48.2 11 61.14 29.55V22.15h68.16a41.82 41.82 0 0 1 32.58 15c1 1.18 1.94 2.37 2.8 3.56V22.25l28-.1c9.92 0 18.87 3.23 24.6 11.43l20.38 24.27V48c0-17.15 11.65-25.88 28-25.88h28v115.64c0 8.52-2.9 14.88-7.76 19.3l43.25 3.56-2.38 29c-1.5 17.9-12.72 28.14-30.84 26.63l-22.86-1.94-.22 2.16 46.67 3.9-2.48 29.12c-1.5 17.9-12.73 28.26-30.85 26.75l-18.1-1.5-.22 2.9L622.6 282l-2.37 29c-1.5 17.9-12.73 28.15-30.85 26.64l-90.05-7.55 2.26-27.1z" fill="url(#B)"/><path d="M585.3 331.67c12.08 1 18.55-4.74 19.63-17.15l1.5-18.65-51.12-4.32 1.94-23.55 28.37 2.37c12 1 18.55-4.74 19.63-17.25l1.6-18.77-46.48-3.88 1.94-22.76 33.1 2.8c12.08 1 18.55-4.75 19.63-17.15l1.5-18.66-97.57-8.15-13.3 158.32 79.5 6.68zm-415.2-5.4L99.76 333l-15-158.22 70.32-6.68c26.2.53 45.3 13.15 57.48 37.85a95.52 95.52 0 0 1 10.68 35.59 94 94 0 0 1-3.89 36.88q-11 39.8-49.4 48zm10.13-82.18q-4.36-44.65-37.53-42.7l-8.4.76 8.84 93.72 8.42-.54c21.9-4.42 31.5-21.57 28.58-51.34zm179 33.22q.64 22.5-18.12 34C328.6 319 314.16 323 298 323.58s-30.85-2.7-43.8-9.5-19.75-17.8-20.2-32.78l-3.67-115.83 23.3-.76q23.3-.8 23.94 19.74l2.8 88.43c.32 9 5.7 13.27 16.4 12.95s15.85-5 15.64-13.92L309 163l23.3-.76q23.3-.8 23.94 19.74zm78.84 56.08l-70.53-2.27 5.17-158.86 70.54 2.27c25.88 3.88 43.24 18.76 52.2 44.86a98.51 98.51 0 0 1 6.14 36.67 94.94 94.94 0 0 1-8.52 36c-10.67 25.45-29 39.15-55.1 41.3zm20.5-80.24q1.3-44.82-31.8-47.13l-8.52-.32-3.13 94.15 8.4.54q33.5-2.4 34.87-47.24z" fill="#9a4c18"/><path d="M590.26 325.42c12.07 1 18.54-4.75 19.62-17.15l1.5-18.66-51.12-4.3 1.94-23.5 28.37 2.37c12 1 18.55-4.75 19.63-17.26l1.6-18.76-46.48-3.88 1.94-22.76 33.1 2.8c12.08 1 18.55-4.74 19.63-17.15l1.5-18.65-97.6-8.2-13.27 158.32 79.5 6.7zM175 320l-70.32 6.7-15-158.2 70.32-6.7c26.2.54 45.3 13.16 57.48 37.86a95.52 95.52 0 0 1 10.68 35.59 94.24 94.24 0 0 1-3.88 36.88q-11 39.8-49.4 48zm10.14-82.18q-4.38-44.64-37.54-42.7l-8.4.75 8.85 93.72 8.4-.54c21.9-4.42 31.5-21.57 28.58-51.33zm179 33.22q.63 22.5-18.13 34c-12.5 7.66-27 11.76-43.13 12.3s-30.85-2.7-43.8-9.5-19.67-17.85-20.1-32.8l-3.66-115.83 23.3-.75q23.3-.8 23.94 19.73l2.8 88.44c.32 8.95 5.7 13.26 16.4 12.94s15.85-5 15.64-13.9L314 156.74l23.3-.75q23.3-.8 23.94 19.73zm78.86 56.1l-70.53-2.26L377.7 166l70.53 2.26c25.88 3.88 43.24 18.77 52.2 44.87a98.46 98.46 0 0 1 6.14 36.66 95 95 0 0 1-8.52 36c-10.67 25.45-29 39.15-55.1 41.3zm20.5-80.24q1.3-44.8-31.8-47.13l-8.52-.32-3.13 94.15 8.4.54q33.5-2.43 34.84-47.24z" fill="url(#C)"/><path d="M606.65 293.6l-51.12-4.3 2.7-32.3 32.8 2.7c9.92.86 14-3.56 14.88-13.27l1.2-14.34-46.48-3.88 2.58-31.5 37.43 3.13c9.92.86 14-3.45 14.88-13.16l1.2-14.23-88.76-7.44-12.5 149.62 75.17 6.26c9.8.86 14-3.35 14.88-13.05zm-432.37 22c24.6-5.28 39.15-20.7 45.84-44.75v-.1a90.46 90.46 0 0 0 3.67-35.16 92 92 0 0 0-10.25-34v-.1c-11-22.43-28.26-34.84-53.4-35.38l-65.67 6.26 14.12 149.5zm15.2-78.2c2.48 26-3.67 50.26-32.14 56.08l-.32.1-13.05.86-9.7-102.46 12.94-1.2h.1c7.77-.43 15.42.86 22.1 5 14 8.63 18.55 26.43 19.95 41.74zm129-76.35l3.34 104.5c.43 12.62-8.1 18.12-19.84 18.44s-20.6-4.63-20.93-17.15l-2.8-88.43c-.43-12.4-7.87-15.86-19.4-15.53l-18.88.65 3.56 111.4c.43 13.27 6 22.87 17.8 29 12.94 6.8 27.07 9.5 41.63 9.06s28.47-4 41-11.64c11.32-6.9 16.4-16.94 16-30.1l-3-95.34c-.43-12.4-7.87-15.85-19.4-15.53l-18.88.65zm124.34 161.77c25-2.16 41.4-15.53 51.12-38.6v-.1a90.25 90.25 0 0 0 8.08-34.4 91.8 91.8 0 0 0-5.82-35v-.1c-8.1-23.62-23.62-38.07-48.42-41.85l-65.9-2.16-5 150zm24.9-75.7c-.76 26.1-10 49.4-38.94 51.55h-.32l-13.05-.75 3.35-102.78 12.94.43h.1c29 2.05 36.66 26 35.9 51.66z" fill="url(#D)"/><path d="M606.65 293.6l-51.12-4.3 1.83-21.57c.32-3.24-2.6-3.45-2.8-.33l-2.48 30.2 51.12 4.32-.76 8.08c.86 3.67 2.9.33 3.13-2.15l1.2-14.24zm-.76-47l1.2-14.34-46.48-3.9 1.6-19.63c.22-2.48-2.6-3.45-2.8-.1l-2.4 28.13 46.48 3.88-.86 9.5c-.33 4.2 3-1.08 3.23-3.45zm5.93-49.5c2.27-2.16 3.35-5.6 3.78-10.25l1.18-14.23L534 165.7c-6.47-.54-6.26 8.1-1.2 8.52l80.35 6.7-1.4 16.3zm-388.47 58.65a98.74 98.74 0 0 0 .54-20.28c-1.18-12.72-4.63-22.75-10.24-34-11-22.43-28.26-34.84-53.4-35.38L99.1 172c-5.07.43-4.2 8.4 1.2 7.87l56.4-5.28c25.13.64 42.4 12.94 53.4 35.37 7.76 15.53 11.32 30.63 10.57 46.16-.22 5 2.15 4 2.7-.22zM171.8 287.9a44 44 0 0 1-14.45 5.5l-13.26 1-8.52-90.5c-.33-3.77-4.64-2.8-4.32.43l9.28 98.36 13.26-1c8.85-1.83 15.53-5.4 20.5-10.25 3.02-3.02-.54-4.74-2.48-3.55zM323.65 169l10.14-.33c11.54-.32 19 3.13 19.4 15.53l2.8 87.3c.1 4.1 4 5.4 3.77-.2l-3-95.34c-.43-12.4-7.87-15.85-19.4-15.53l-13.9.43c-4.64.1-4.2 8.3.32 8.2zM309 282.92c-11.33 3.35-27.6.44-28.15-16.07L278 178.42c-.43-12.4-7.87-15.86-19.4-15.53l-13.9.43c-5.83.22-4.42 8.3.32 8.2l10-.33c11.54-.32 19 3.13 19.4 15.53l2.8 88.44c.43 12.5 9.27 17.58 20.92 17.15 5.4-.22 10.14-1.4 13.6-4 3.67-2.7.86-6.58-2.8-5.5zm192.5-25.56c1.72-13.8-.1-27.7-5.3-42.7-8.1-23.62-23.62-38.07-48.42-41.85l-60.72-2.05c-4.86-.1-3.67 8.3-.33 8.4l57.5 1.83c24.9 3.77 40.33 18.22 48.42 41.84a95.53 95.53 0 0 1 5.93 35c-.1 5.5 2.38 4.53 3-.54zm-49 31.93c-5.82 5.17-13.6 8.63-23.73 9.38l-13.37-.75 3-90.38c.1-3.67-3.13-4.64-3.23-.1l-3.17 98.9 13.37.75c13.8-1 23.08-6.8 29.12-15.42 1.5-2.26-.1-3.77-1.83-2.16z" fill="#fff"/><path d="M194.77 110.58c11.44 0 20.6-4 27.83-12.08a42.86 42.86 0 0 0 11.11-28.25 39.82 39.82 0 0 0-9.6-27.94c-6.7-7.87-15-11.75-24.9-11.75h-57.7V150.7h17.68c11.76 0 17.7-5.18 17.7-15.53v-24.7h18zM551.2 83.94V45.77c0-10.36 5.94-15.53 17.7-15.53h17.7v105c0 10.35-5.93 15.53-17.7 15.53q-9.87 0-15.53-6.8L513.8 96.9v38.4c0 10.35-5.93 15.53-17.7 15.53h-17.68V30.34l17.68-.1c7.55-.1 12.94 2.37 16.3 7.33l38.93 46.37zm-102 15.53l16.07 21.9c4.3 5.17 6.47 9.92 6.25 14.13s-2.26 8-6.36 11.32-8.4 5-12.94 4.74-9.17-2.9-13.8-8.3l-27.93-38.18v30.2c0 10.35-5.93 15.53-17.68 15.53h-17.7V30.34h57.7a31.14 31.14 0 0 1 24.7 11.43c6.58 7.55 9.82 15.75 9.82 24.38 0 15.53-6 26.64-18 33.43zm-38.72-45V82h10.14c10 0 15-4.64 15-13.8s-5-13.7-15-13.7zm-223.57 0c10 0 15 4.64 15 13.7s-5 13.8-15 13.8h-10.16V54.5z" fill="#b85a1b"/><path d="M193.7 112.3c11.43 0 20.6-4 27.82-12.08A42.87 42.87 0 0 0 232.63 72 39.8 39.8 0 0 0 223 44c-6.7-7.87-15-11.76-24.9-11.76h-57.7v120.2h17.7c11.75 0 17.68-5.18 17.68-15.53v-24.7h18zm356.43-26.64V47.5c0-10.35 5.94-15.53 17.7-15.53h17.7V137c0 10.35-5.93 15.53-17.7 15.53q-9.87 0-15.53-6.8L512.7 98.6V137c0 10.35-5.93 15.53-17.68 15.53h-17.7V32.07L495 32c7.54-.1 12.94 2.37 16.28 7.33L550.2 85.7zm-102 15.53l16.07 21.9c4.3 5.18 6.47 9.93 6.26 14.13s-2.27 8-6.37 11.33-8.4 5-12.94 4.74-9.17-2.9-13.8-8.3L409.4 106.8V137c0 10.35-5.93 15.53-17.68 15.53H374V32.07h57.7a31.09 31.09 0 0 1 24.71 11.43c6.58 7.55 9.82 15.75 9.82 24.37 0 15.53-6 26.64-18 33.55zm-38.72-45v27.5h10.14c10 0 15-4.64 15-13.8s-5-13.7-15-13.7zm-223.57 0c10 0 15 4.63 15 13.7s-5 13.8-15 13.8H175.7V56.23z" fill="#b2b2b2"/><path d="M217.75 39A30.81 30.81 0 0 0 198 32.28h-57.7v119.07h16.3c11.75 0 17.68-5.18 17.68-15.53v-24.7h18c11.44 0 20.6-4 27.83-12.08a42.86 42.86 0 0 0 11.11-28.25 39.87 39.87 0 0 0-9.6-27.94 33.85 33.85 0 0 0-3.87-3.85zm331.1 45.48v-.43l1.3 1.62V47.5c0-10.35 5.94-15.53 17.7-15.53h16.3v103.86c0 10.35-5.93 15.53-17.7 15.53a20.12 20.12 0 0 1-12.4-3.78 13 13 0 0 1-1.73-1.83L512.7 98.6v.4l-1.3-1.6v38.4c0 10.35-5.93 15.53-17.7 15.53h-16.28V32.07l17.68-.07c5.18 0 9.4 1.08 12.62 3.45a20 20 0 0 1 2.37 2.81l38.94 46.37zM446.82 100l16.06 21.9c4.32 5.17 6.48 9.92 6.26 14.12s-2.27 8-6.36 11.33-8.4 5-12.94 4.74a15.43 15.43 0 0 1-9.06-3.66 26.74 26.74 0 0 1-3.45-3.56L409.4 106.7v.75l-1.3-1.83v30.2c0 10.35-5.93 15.53-17.7 15.53h-16.28V32h57.7a31 31 0 0 1 19.73 6.69 22.89 22.89 0 0 1 3.56 3.66c6.58 7.55 9.82 15.75 9.82 24.38 0 15.53-6.05 26.64-18 33.43zM408.1 55v27.5h1.3v1.08h10.14c10 0 15-4.64 15-13.8 0-5.18-1.62-9-4.85-11.1-2.5-2.44-6.38-3.67-11.55-3.67h-10zm-223.57 0c5.18 0 9.06 1.2 11.54 3.67 3.23 2.26 4.85 5.93 4.85 11.1 0 9.16-5 13.8-15 13.8H175.8v-1.04h-1.3V55h10z" fill="url(#E)"/><path d="M302.5 28.94c34.84 0 63.1 27.83 63.1 62.23s-28.26 62.23-63.1 62.23-63.1-27.83-63.1-62.23 28.26-62.23 63.1-62.23z" fill="#b85a1b"/><path d="M302.5 32.18c33 0 59.75 26.42 59.75 59s-26.74 59-59.75 59-59.74-26.42-59.74-59 26.74-59 59.74-59z" fill="url(#F)"/><path d="M302.5 37.78c29.88 0 54 23.95 54 53.4s-24.27 53.4-54 53.4-54-24-54-53.4 24.24-53.4 54-53.4z" fill="#fff"/><path d="M271.35,124.17c-2.7-8.63-6.26-20.27-6.26-29.23,0-35.37,75-37,75,0,0,9-3.56,20.6-6.26,29.23l-.75,1.08c-16,14.13-45.08,14.13-61.05,0l-.75-1.08Z" fill="#9a4c18"/><path d="M274.26,123c-2.48-7.65-6-19.3-6-27.82,0-31.38,68.37-33,68.37,0,0,8.52-3.55,20.17-6,27.82-14.66,13-41.73,13-56.4,0Z" fill="#e5895b"/><path d="M268.54 91.82c4.46-27.07 63.46-28.37 67.84-.1a60.55 60.55 0 0 1-1.19 9.27 265.22 265.22 0 0 0-27.71 1.51c-1.4.1-2 1.5-4.86 1.5s-3.88-1.3-5.17-1.5a265.56 265.56 0 0 0-27.72-1.49 56.29 56.29 0 0 1-1.19-9zm55.22 31.38c-12.62 6.8-29.87 6.8-42.6 0a63.61 63.61 0 0 0 8.2.65c2.7 0 6.68-.43 8.1-2.9 4.2-7.66 5.93-7.45 10 0 1.4 2.48 5.4 2.9 8.08 2.9a63.61 63.61 0 0 0 8.23-.65z" fill="#fad395"/><path d="M265.4 100.44l8 .22a57.17 57.17 0 0 1 .32-11.54 13.41 13.41 0 0 1 4.85-2.26 12.29 12.29 0 0 1-4.85-3.67c2.26-.76 3.45-1.3 5.18-1.3a62.77 62.77 0 0 1 17.68 5.4l-8.3.54c5.28 1.4 9.38 2.15 14.34 3 9.5-1.2 20.06-5.83 27.6-10.57a16.44 16.44 0 0 1 1.3 3.12 11.2 11.2 0 0 1-4.76 3.62 15.64 15.64 0 0 1 4.85 2.27 67.13 67.13 0 0 1 .33 11.54l8.3-.22a71.63 71.63 0 0 1 .32-14.88 11.05 11.05 0 0 0 1.84-4.75 15.64 15.64 0 0 1-4.42 1 9.82 9.82 0 0 0 3.66-3.34 72.6 72.6 0 0 0 .76-9.81 24.24 24.24 0 0 1-8.3 5.5c.43-1.4.86-3 1.6-5.6-1.3-3.67-3.77-6.36-5.5-9.28a29.26 29.26 0 0 1-1.29 7.34 83.28 83.28 0 0 0-5.61-9.92 79 79 0 0 0-12.19-8c2.9 3.78 6.15 8.42 8 13-3.23-3.77-4.63-5.6-7.76-8.73-9.82-2.37-19.4-2.8-30.63-2.9 5.6 5 9.06 7.87 12.83 13.16-2.05-1.4-3.77-1.84-8.2-3.13-4.64.43-8.3 1.4-15.53 3.56a37.36 37.36 0 0 1 10.57 6.57 61.24 61.24 0 0 0-17.8 5.83 13.73 13.73 0 0 1 4.85 2.48c-1.07.1-2.15.1-3.23.22a181.57 181.57 0 0 1 1.4 21.67z" fill="#7f3e13"/><path d="M273.18 86.42a12.92 12.92 0 0 1-3.24-4.63v-.1l7-2.48a65 65 0 0 1 24.49 7.66 9.12 9.12 0 0 1 .43-1.73c-1.6-4.13-3.86-6.58-7.76-11.43 5.07 4.1 7.77 7.22 10 11.1l-.32 2.15a23.27 23.27 0 0 0 3.34-4.74 73.53 73.53 0 0 0-2.37-14.35 38.3 38.3 0 0 1 4.75 14.78 21.94 21.94 0 0 1-1.95 3.24 35.37 35.37 0 0 0 4.53-3.35c.65-4.3.65-6.36.54-12.4A36.47 36.47 0 0 1 314 83.62c-.87.76-1.73 1.5-2.6 2.16a69 69 0 0 0 17.36-7.88 14.51 14.51 0 0 0 2.23-3.45l1.83-6c-.43-1-.86-1.83-1.4-2.8l-2.16 7.33c-2.6-5.17-4.64-9.8-7.87-15.2a41.46 41.46 0 0 0-3.45-2.7 86.31 86.31 0 0 1 3.66 9.06 17.43 17.43 0 0 1 3 7c-5.17-6.47-8.4-10.68-14.88-16.07a117 117 0 0 0-22.86-2.59c6.68 6.15 9.92 11.33 15.1 18.66a54.55 54.55 0 0 0-17.37-8.63c-1.3-.1-6.9 1.3-8.73 1.73a51.82 51.82 0 0 1 8.95 7 55.63 55.63 0 0 0-9.49 2.15 53.16 53.16 0 0 0-7.65 2.61l2.16 1.94c3.12-.54 3.77-.86 5.5-1.07a19.83 19.83 0 0 1-3 2.15 63.22 63.22 0 0 1-6 1.94c.65 5.72 1 11.33 1.08 17l3 .1a54.8 54.8 0 0 1 .54-10.35l1.94-1.3zm66.76-3.56a18.81 18.81 0 0 1-6 1 6.34 6.34 0 0 1-2.16 2.58 24.44 24.44 0 0 1 1.79 1.56 104.8 104.8 0 0 1 .33 12.19l3.77.32a122.22 122.22 0 0 1 .11-13.8 8.64 8.64 0 0 1-3.23.64c2.9-1.72 4.42-2.7 5.28-4.42zm-6.47-.86a12 12 0 0 0 5.61-4.53 35 35 0 0 0 .43-3.77 39.58 39.58 0 0 1-6.8 3 10.7 10.7 0 0 1-1 1.4 30 30 0 0 1 1.76 3.9z" fill="#b85a1b"/><path d="M301.54 86.86a10 10 0 0 1 .44-1.73c-1.62-4.1-3.9-6.58-7.77-11.43 5.07 4.1 7.77 7.22 10 11.1l-.32 2.15a23.27 23.27 0 0 0 3.34-4.74 73.53 73.53 0 0 0-2.37-14.35 38.43 38.43 0 0 1 4.74 14.78 21.13 21.13 0 0 1-1.94 3.24 35.37 35.37 0 0 0 4.53-3.35c.65-4.3.65-6.36.54-12.4a36.22 36.22 0 0 1 1.29 13.48c-.86.76-1.72 1.5-2.58 2.16a82.49 82.49 0 0 0 13.69-5.61 42.6 42.6 0 0 0 2.59-6.58 37.79 37.79 0 0 1-3.45 3.67 29.74 29.74 0 0 0 .54-6.15c-5.15-6.47-8.38-10.68-14.8-16.1a117 117 0 0 0-22.87-2.59c6.7 6.15 9.92 11.33 15.1 18.66a54.5 54.5 0 0 0-17.36-8.63c-1.3-.1-6.9 1.3-8.74 1.73a44.38 44.38 0 0 1 18.12 12.62c-2.9-.65-5.5-1.3-8.84-.87a36.07 36.07 0 0 1 16.28 10.79z" fill="#ff9701"/><path d="M313.3 61.2a29.15 29.15 0 0 1 5.18 7.33c-.33 5.72-1.84 9.7-4.1 14.34 1.18-7.65 1.08-14.23-1.08-21.67zm-25.67 6.47a46.47 46.47 0 0 1 16.93 8.09 22.35 22.35 0 0 1 .65 7.65c-5.5-7.87-8.63-10.13-17.58-15.85zm15-6.8c3.56 1.84 5.93 3.24 8.1 4.53 1.4 7.12.76 10.36 0 16.94-1.52-9.5-2.5-12.5-8.1-21.47z" fill="#fde049"/><path d="M302.73 101.85c-2.9 0-3.88-1.73-5.18-1.84-13.26-1.83-29.12-2.58-40-1.18-1.62.2-1.62 4.85.43 5.93.65.32 1.3.75 1.94 1.08a67.51 67.51 0 0 0 2.15 10.16 8.65 8.65 0 0 0 4.21 5.82c5.4 2.9 17.25 5 23.08 5.07 2.7 0 6.68-.54 8.1-3.67a44.81 44.81 0 0 0 2.8-12.08c.22-2.26 4.2-2.48 4.42.1a43.27 43.27 0 0 0 2.81 11.86c1.4 3.13 5.4 3.67 8.08 3.67 5.83-.1 17.58-2.16 23.08-5.07a8.33 8.33 0 0 0 4.21-5.82 84.19 84.19 0 0 0 2.15-10.16c.64-.32 1.3-.75 1.94-1.08 2.05-1.08 2.16-5.7.43-5.93-10.8-1.4-26.64-.54-40 1.18-1.4.22-1.94 1.84-4.86 1.84z" fill="#232323"/><path d="M258.4 100.66c-.22.54 0 1.62.32 1.5 6.25-.86 15.3-1.08 37.64-.32-12.08-1.62-26-2.6-37.96-1.2zm88.2 0c.22.54 0 1.62-.32 1.5-6.25-.86-15.3-1.08-37.64-.32 12.08-1.62 26-2.6 37.96-1.2z" fill="#3c3c3c"/><path d="M262.6 105.3a61.75 61.75 0 0 0 1.83 8.63c.76 3.45 1.84 5.17 4.1 6.14 6.58 2.8 14.13 3.67 20.93 3.9 1.83.1 4.85-.44 5.7-2.27 1.5-3.45 2.48-9.5 2.7-13.37a2.33 2.33 0 0 0-1.94-2.7c-8.2-1.83-23.2-2.7-31.93-1.72a1.31 1.31 0 0 0-1.29 1.29zm79.7 0a61.75 61.75 0 0 1-1.83 8.63c-.76 3.45-1.84 5.17-4.1 6.14-6.58 2.8-14.13 3.67-20.92 3.9-1.84.1-4.86-.44-5.72-2.27-1.5-3.45-2.48-9.5-2.7-13.37a2.34 2.34 0 0 1 1.95-2.7c8.2-1.83 23.18-2.7 31.92-1.72a1.31 1.31 0 0 1 1.29 1.29z" fill="#ccc"/><path d="M262.6 105.3a61.75 61.75 0 0 0 1.83 8.63c.65 2.58 1.4 4.3 2.7 5.4a113.81 113.81 0 0 1 29.55-13.27 7.27 7.27 0 0 0-.86-.32c-8.2-1.83-23.2-2.7-31.92-1.73-.76.1-1.3.54-1.3 1.3zm47.13 16.28a102.07 102.07 0 0 1 32.46-16.93 1.86 1.86 0 0 0-1.08-.65c-8.62-.86-23.72-.1-31.92 1.73-1.5.32-2.05 1.08-1.94 2.7a50.19 50.19 0 0 0 2.59 13.15z" fill="#fff"/><path d="M640 0a21.26 21.26 0 1 0 21.26 21.25A21.28 21.28 0 0 0 640 0zm0 3.27a18 18 0 1 1-18 18 18 18 0 0 1 18-18zm-8.17 6.54v22.9h3.27v-6.54h4.1l4.8 6.54h4.07l-5.24-7.08A8.16 8.16 0 0 0 640 9.81zm3.27 3.27h4.9a4.91 4.91 0 1 1 0 9.81h-4.9z" fill="#767676"/></svg>