<svg xmlns="http://www.w3.org/2000/svg" viewBox="0 0 32 32"><g fill="#5c2e0e"><path d="M7.6 10.5l-3.4 1s-1.8 4.9 3 6.7l1 .4s5.4-4.9 8.1.9c0 0 .3 3.1-3.5 3.3 0 0-1.8-1.6-2.2-4.6 0 0-2.9-1.1-6.6.8l1.9 6 8.5 3.6 6.9-2.9-.1-6.7-1.1-3.4-12.5-5.1z"/><path d="M15.9 15.3l.3-5.2-1-5.5s-.4-3 1.7-3.4 5 .1 5.9 2.4c.8 2.3-1.3 8.7-1.3 8.7l-1.3 7-4.3-4z"/></g><linearGradient id="A" gradientUnits="userSpaceOnUse" x1="17.82000168" y1="4.64594424" x2="23.558844" y2="20.998147"><stop offset="0" stop-color="#e5895b"/><stop offset="1" stop-color="#fad395"/></linearGradient><path d="M17.2 15.4l.1-4.9-1.1-4.7s-.4-3 1.7-3.4 3.3.1 4.1 2.4.4 8.7.4 8.7l-1.3 7-3.9-5.1z" fill="url(#A)"/><g fill="#5c2e0e"><path d="M19 17.2l1.2-6.6-.4-4s-.4-4.7 2.7-4.6 4.3.6 5.3 3.4-.3 9.9-.3 9.9l-3.8 8.1-4.7-6.2z"/><path d="M25.1 19.8l-6.9-1c.8 5.5-4.5 5.8-4.5 5.8l-1 .3c-2.7-.7-3.2-5.7-3.7-6.2-3.3-.8-4.1.3-4.1.3l-.4 1.3c0 3.8 2.8 6.8 2.8 6.8l2.8 2.5s5.5 2.1 9.7.8l-1.2.7s2.5-1.2 4.4-4.5 2.1-6.8 2.1-6.8z"/></g><linearGradient id="B" gradientUnits="userSpaceOnUse" x1="22.07158941" y1="5.61301313" x2="25.47995507" y2="22.80489987"><stop offset="0" stop-color="#e5895b"/><stop offset="1" stop-color="#fad395"/></linearGradient><path d="M19.8 17.3l1.3-6-.4-5s0-3.1 2.2-3.2 3.3.6 3.8 3c.5 2.5-.9 8.9-.9 8.9L23 21.7l-3.2-4.4z" fill="url(#B)"/><path d="M23.4 20.8v-3.9s-1-5-9.9-8.4c-.3-.2-.6-.3-.9-.4-1.9.8-4.1 2.3-6.7 3-1 2.2.3 4.5 1.9 5.4 1.1-1.4 3.6-2.5 5.5-1.9 2.4.8 3.1 3 3.1 3l.6 1.2c.1.2.2.5.2.7 2.1.4 4.2 1.1 6.2 1.8-.1-.1-.1-.3 0-.5z" fill="#5c2e0e"/><linearGradient id="C" gradientUnits="userSpaceOnUse" x1="13.2578" y1="6.941" x2="15.4606" y2="22.8139"><stop offset="0" stop-color="#fad395"/><stop offset="1" stop-color="#e5895b"/></linearGradient><path d="M24 20.9c.1-4.5-.8-4.1-.8-4.1s-6.1-5.3-9.8-6.9c-.3-.2-.6-.3-1-.4-2 .8-4.1 1.9-6.9 2.6-1.1 2.2.4 4.5 2.1 5.4 1.2-1.4 3.9-2.5 5.9-1.9 2.6.8 3.3 3 3.3 3l.7 1.2c.1.2.2.5.2.7 2.3.4 3.9.7 6.1 1.4.1-.2.2-.8.2-1z" fill="url(#C)"/><linearGradient id="D" gradientUnits="userSpaceOnUse" x1="-.7676" y1="16.8441" x2="22.5922" y2="27.1425"><stop offset="0" stop-color="#fad395"/><stop offset="1" stop-color="#e5895b"/></linearGradient><path d="M24 21.3L17.7 19c.7 4.7-4.1 5-4.1 5l-.8-.1c-2.3-.6-3-4.6-3.4-5-3-.6-3.7.3-3.7.3l-.3 1.1c0 3.3 2.5 5.8 2.5 5.8l2.5 2.2s4 2.4 7.8 1.3h0s2.1-.2 3.8-3.1 2-5.2 2-5.2z" fill="url(#D)"/><path d="M5.2 13.1s5.7-.5 7.6-2.4L23 16.6s-6.4-6.1-10.6-7.1l-6.9 2.6-.3 1zm3.5 5.7s1.6 4 3.9 5.1c0 0 5.7 1.4 5.6-3.6 0 0-1.1 3.9-5.4 3.6 0 0-2.2-2.2-2.5-5l-1.6-.1z" fill="#ffd2a6"/><path d="M24.1 3.2l-1.8 1-1.4 4.3S19 2.6 24.1 3.2zm-4.4-1.1l-1.8 1-1.3 3.2s-2-4.7 3.1-4.2z" fill="#f1b37c"/></svg>