<svg xmlns="http://www.w3.org/2000/svg" viewBox="0 0 553.5 944.9"  xmlns:v="https://vecta.io/nano"><style><![CDATA[.Af{fill-rule:evenodd}.Ag{fill:#3c3c3c}.Ah{fill:#9a4c18}.Ai{fill:#232323}.Aj{fill:#e5895b}.Ak{fill:#4b4b4b}.Al{fill:#666}.Am{fill:#7f3e13}.An{fill:#fff}.Ao{fill:#b85a1b}.Ap{fill:#ff9701}.Aq{fill:#323232}.Ar{fill:#b2b2b2}.As{fill:#cd6c13}.At{fill:#944a26}]]></style><path d="M293 900.5c-12.5 10.7-24.6 14.8-40.5 19.3-38.4 4-72.1.9-102.4-7.3-2.4-15.5.6-32.3 10.1-45.2 20.1-5.7 53.3-20.7 79.8-42.3l85.8-2.2c12.3 23.9 14 35.8 15.3 62.4-15.6 6.2-31.6 11.3-48.1 15.3z" class="Af Ag"/><linearGradient id="A" gradientUnits="userSpaceOnUse" x1="245.5208" y1="868.3154" x2="179.9219" y2="868.3154"><stop offset="0" stop-color="#b2b2b2"/><stop offset="1" stop-color="#fff"/></linearGradient><g class="Af"><path d="M241.7 830.1c-24.9 17.1-48.4 32.3-77.8 41.1-6 8.4-9.1 19.7-9.5 29.1 31.5 7.9 63.6 10.2 95.3 6.7h0c24.5-3.4 41.5-19.1 42.7-19.5 7.6-1.9 14.8-4 22-6.2 7.1-2.2 14-4.5 21.1-7-1.4-18.1-4.3-30-12.7-46.2l-81.1 2z" fill="url(#A)"/><path d="M154.4 902.7c0 2 .1 3.9.4 5.6 31.7 8.1 55.4 9.8 96.3 6.6 18.9-5.4 28.4-9.4 39.2-18.9 16.4-4 32.1-9.1 45.5-14.5l-.3-4.7-20.5 6.8c-7.1 2.2-14.3 4.2-21.8 6.2-5.6 4.6-12.8 9.2-20.8 12.9-6.8 3.1-14.9 5.8-22.5 6.7-29.6 3.8-65.7.8-95.5-6.7z" class="Ak"/><path d="M154.4 902.7c0 2 .1 3.9.4 5.6 31.4 8.1 55 9.8 95.3 6.6l-.1-5.6c-29.7 3.9-65.8.9-95.6-6.6z" class="Al"/></g><linearGradient id="B" gradientUnits="userSpaceOnUse" x1="257.9841" y1="889.957" x2="226.902" y2="863.162"><stop offset="0" stop-color="#b2b2b2"/><stop offset="1" stop-color="#fff"/></linearGradient><g class="Af"><path d="M227.4 839.8c-19.9 13-39.7 24.3-63.5 31.4 26.5 6.1 47.5 6.3 81.8 5.3 13.5-4.5 28.5-13.7 41.9-23.2-4.9-4.7-9.8-8.6-16.1-12.2-5.5-.7-11.1-1.4-16.6-1.7 5.4 1.3 10.3 3.4 13.8 6 1.9 1.5-1.5 6.5-5.5 4-12.4-7.7-25.7-9.1-39.3-4 2.2-2.9 5.5-4.8 9.2-6-1.9.1-3.9.3-5.7.4zm29.2 15.6c1.9 1.5-1.5 6.5-5.4 4-12.3-7.7-25.8-8.5-39.5-4.3 11.9-11.7 34-7.7 44.9.3z" fill="url(#B)"/><path d="M288 891.3l4.7-3.2c8.1-2.1 16-4.5 23.9-7.1-11.3-23.8-22.4-31.7-37.2-37.5-7.6 5-16.6 12.1-23 18.4 13.1 4.8 25 16.6 31.6 29.4z" class="Ag"/><path d="M277.4 844.8c-7.2 4.9-15.2 11.3-21 17 3.2 1.2 6.3 2.7 9.2 4.7 7.4-3.7 14.8-8.2 21.9-13.2-3.2-3.1-6.4-5.9-10.1-8.5z" class="Al"/><path d="M290.8 888.9c.7-.4 1.2-.8 1.7-1.2l5.8-1.5c-6.6-15-16.8-25.7-33.9-31.5-2 1.7-4 3.4-5.8 5.1 15 5 24.9 16.4 32.2 29.1zm12-4.1c3.2-.9 6.5-1.9 9.7-3-7.2-16.7-19.2-29.7-36.8-35.9-2.3 1.6-4.8 3.4-7.1 5.3 17.1 6.5 27.4 18 34.2 33.6z" fill="#c63"/><path d="M282.7 849c-2.2-1.2-4.5-2.2-7-3l-7.1 5.3c4.6 1.7 8.7 3.9 12.5 6.4 2.2-1.4 4.3-2.9 6.4-4.4-1.5-1.5-3.1-3-4.8-4.3zm-18.4 5.7c-2 1.7-4 3.4-5.8 5.1 3.8 1.2 7.3 2.9 10.5 4.9l7.6-4.3c-3.6-2.2-7.7-4.1-12.3-5.7z" class="Ap"/><g class="Ak"><path d="M241.7 830.1c-9.4 5.6-18.6 10.9-26.7 17.6-4.6 3.7-8.9 7.6-13 11.7l1.3 1.3c7.8-7.8 16.6-15 26.2-21.7 4.4-3.1 9.1-6.1 13.9-8.9h-1.7zm63.5-1.6l-4 .1c-8.1 4.5-15.7 9.1-22.9 14.1-9.7 6.7-18.6 14-26.4 21.9l1.2 1.2c7.8-7.8 16.6-15 26.2-21.7 8.1-5.5 16.8-10.7 25.9-15.6zm-13.7.4l-5.1.1c-6.5 3.7-12.7 7.6-18.5 11.7-9.7 6.8-18.6 14-26.5 21.9l1.7 1.7c7.8-7.8 16.5-15 26.1-21.7 7.1-4.9 14.5-9.4 22.3-13.7zm-38.3.9l-4.9.1c-4.3 2.6-8.6 5.3-12.6 8.1-9.7 6.7-18.6 14-26.4 21.9l1.7 1.7c7.8-7.8 16.6-15 26.1-21.7 5-3.4 10.4-6.9 16.1-10.1z"/><path d="M196.4 858.1c-3.2.9-5.8 2.2-7.8 3.7 23-.9 47.1.1 69.2 7.1 5.7 9.7 9 21 12 32.3 1.3-.1 2.4-.6 3.3-1.5-2.6-9.8-6.3-23.3-13.3-33.8-20.5-6.6-42-8.2-63.4-7.8z"/></g></g><g class="Ag"><path d="M270.5 843.5c1.8 1.5-1.6 6.5-5.5 4-12.4-7.7-25.8-9.1-39.3-4 8.9-11.5 33.7-8.1 44.8 0zm-12.1 10.1c1.8 1.5-1.7 6.7-5.5 4-12.1-8.4-25.7-8.9-39.4-4.3 12.1-12.3 34.3-8.5 44.9.3z"/><path d="M398.9 854.9c2.6 18.1-7.7 37.8-9.3 46.3-2.1 11.4-.9 19.1-.6 32.3 25.4 15.8 92.5 16.5 119.4-6.1.1-10.1 1-24.8-3.3-33.6-7.9-13.5-14-29.7-18.4-48.3l-28.5-39.2-46.9 7.4-20.4 24.6 8 16.6z" class="Af"/></g><linearGradient id="C" gradientUnits="userSpaceOnUse" x1="424.5109" y1="872.1238" x2="396.6391" y2="872.1238"><stop offset="0" stop-color="#b2b2b2"/><stop offset="1" stop-color="#fff"/></linearGradient><path d="M498.2 892.1c-7.6-14-12.7-29.3-16.3-44.6l-26.1-35.9-41.8 6.6-17.2 20.7 7.2 14.5c.4 7 .7 11.9-.6 18.9-1.4 8-4.2 15.5-6.8 23.3-.6 1.9-1.4 4.2-1.8 6.2-1.4 7.6-1.3 15.1-.9 22.6 33.9 11.4 70.8 11.2 102.8-3 2.9-3.4 3.5-15.7 1.5-29.3z" fill="url(#C)" class="Af"/><linearGradient id="D" gradientUnits="userSpaceOnUse" x1="492.0341" y1="872.6106" x2="457.7199" y2="872.6106"><stop offset="0" stop-color="#b2b2b2"/><stop offset="1" stop-color="#fff"/></linearGradient><g class="Af"><path d="M482.9 877.3c-3.7-9.7-8.9-19.9-11.2-30.1-17.6-10.4-45.9-7.7-63.5 3 .9 5.7 1.1 14.3-.3 22.1-.3 1.9-.6 3.7-1.1 5.5.5 9.8-.6 14.3 2.7 21.2 15.8 9.9 63.4 5.3 73.1-5.1 3-3.1.9-10.2.3-16.6z" fill="url(#D)"/><path d="M394.1 932.1c25.4 13.7 84.7 12.8 109.2-5.5 0-9.4 1.9-22-2.7-30 0 0 2.4 21.1-2.7 26.9l-.7.6c-32.5 14.4-69.7 14.4-103.2 3.4-.1 1.5 0 3.1.1 4.6z" class="Ak"/><path d="M394.1 932.1c22.8 12.3 72.6 12.9 100.4-.3l-.2-6.5c-31.8 13.2-67.8 12.8-100.4 2.2 0 1.5.1 3.1.2 4.6z" class="Al"/><path d="M400.8 882.6c4.2-4.1 9.4-7.3 15-9.6-.6-7.4-1.8-14.6-3.6-21.7-3.2 2.2-5.9 4.6-8.1 7.5-1.5 8.8-2.8 15.6-3.3 23.8zm64.2-13.5c11.8 2.3 22 6.6 27.9 12.2-.9-7.8-3.2-15.8-8.4-23.5-4.4-4.9-10.2-8.6-16.6-11.1-1.3 7.6-2.3 15.1-2.9 22.4z" class="Ag"/><path d="M406.7 875.7c2.7-1.9 5.8-3.5 8.9-4.8-.6-6.6-1.7-13.1-3.4-19.5-1.3.9-2.5 1.8-3.6 2.7.3 4.9.1 10.7-.9 16.1l-1 5.5zm58.5-8.7c5.9 1.2 11.4 2.9 16.2 5-3.1-7.6-6.7-15.5-8.9-23.3-1.5-.8-3-1.4-4.5-2-1.2 6.9-2.2 13.6-2.8 20.3z" class="Al"/><path d="M415.4 869.7l-.7-6c-4.5 2.3-8.9 5.2-12.9 8.6l-.6 5.1c4.2-3.1 9.1-5.7 14.2-7.7zm-1.1-8.4c-.4-2.1-.7-4.1-1.2-6.2-3.3 2.2-6.5 4.6-9.6 7.4-.4 2-.7 4-1 5.8 3.6-2.8 7.5-5.1 11.8-7zm53.1-11.1c6.6 2.5 13 6.1 19.1 10.7 1.1 1.9 2 3.7 2.8 5.6-6.8-4.5-14.6-7.7-22.9-9.6.2-2.3.6-4.5 1-6.7zm-1.3 8.6c8.5 2.3 16.8 6.2 24.6 11.5.6 1.7 1 3.2 1.4 4.9-7.8-4.6-17.1-7.8-26.7-9.6l.7-6.8z" fill="#c63"/><path d="M415.4 869.7l-.7-6-6.6 3.9-.4 2.5c-.1 1.2-.4 2.3-.6 3.5 2.7-1.5 5.5-2.8 8.3-3.9zm-1.1-8.4l-1.2-6.2-4.4 3.1-.2 6.1c1.8-1.2 3.8-2.2 5.8-3zm53.1-11.1l6.5 2.9 2.6 7c-3.2-1.3-6.6-2.3-10.1-3.2.2-2.3.6-4.5 1-6.7zm-1.3 8.6c4 1.1 7.8 2.4 11.6 4.2.9 2.3 1.9 4.5 2.9 6.8-4.9-1.9-10-3.2-15.3-4.2.3-2.2.5-4.5.8-6.8z" class="Ap"/></g><linearGradient id="E" gradientUnits="userSpaceOnUse" x1="447.8298736" y1="861.0901896" x2="431.4851464" y2="861.0901896"><stop offset="0" stop-color="#b2b2b2"/><stop offset="1" stop-color="#fff"/></linearGradient><path d="M420 867.7c13.1-4.8 27.3-4.7 40-1.7 3.4.8 2.7 6.8-.7 6.3-13.5-1.9-25.1-1.7-38.6 1.7-3.3.9-3.2-5.3-.7-6.3zm-2.6-14.1c14.1-6.2 30.2-7.1 43.9-3 3.6 1.1 3 8.2-.6 7.4-14.8-3-27.8-2-42 2.7-3.7 1.2-4-6-1.3-7.1z" fill="url(#E)" class="Af"/><path d="M398.7 889.2c3.7-5 8.4-8.6 13-9.4 1.4-.2 2.2-.4 3.6-.6-1.7-16.6-4.5-34.8-10.7-49.8l1.5-1.8c6.6 15.3 9.6 34.1 11.3 51.3 1.7-.3 3.9-.6 5.6-.8-1.3-17.7-5.4-37.8-10.2-54l2.6-.7c4.8 16.3 8.9 36.4 10.3 54.2 10.1-1.2 18.7-1.6 28.6-1.5.1-16.5 1.1-43.1 4.5-58.8l2.3 2c-3.2 15.7-4.2 41.1-4.3 56.7 2.1 0 4.4.1 6.5.1.6-13.1 2.5-30.8 6-45.6l1.7 2.3c-3.2 14.3-5 31-5.5 43.5 4 .2 7.7.6 11.9 1 7.2.7 15 7.7 20.8 15.2 1 2.2 1.2 4.1.7 5.8-5.3-8.3-14.2-17.6-21.9-18.4-22.6-2.4-41.8-1.4-64.9 2.4-6.5 1.1-13.2 10.1-17.1 17.9-.3-3.6 1.2-7.5 3.7-11z" class="Ak"/><path d="M420 865.2c13-4.8 27.2-4.7 39.9-1.7 3.4.8 2.7 6.8-.7 6.3-13.5-1.9-25.1-1.7-38.6 1.7-3.3.9-3.1-5.3-.6-6.3zm-2.7-14.2c14.1-6.2 30.2-7.1 43.9-3 3.6 1.1 3 8.1-.6 7.4-14.8-3-27.8-2-42 2.7-3.7 1.3-4-5.9-1.3-7.1z" class="Ag"/><g class="Af"><path d="M244.5 720.9c.9-5.8-2.3-22.3-1.2-35.7 2-24 8.1-51.2 13.1-76.8l94.3-2.4c-18.4 70.1-21.3 90.4-27.5 128.2 4 8.4 5.7 15.8 5 22.4-.8 7.6-.8 37.9-.4 53.6 6.3 10.6 7.4 18.2 9.4 31-14.2 7.7-21.5 10.5-37.5 13.6l-1.9-2c-6.4-6.8-12-11.8-20.7-14.9-15.7-5.5-39.2-8.6-54.7-.1-.4-.5-.8-1.5-1.2-3.2 1.3-13 2.8-19.7 5-27.6 2.4-3.1 4.9-7.8 6.7-11.2 3.2-7.8 7.6-46.8 11.6-74.9z" class="Ai"/><path d="M344 611.4l-83.4 2.1c-4.5 22.3-13 60.7-12.4 81.2 2 10.3 4.6 40.8 2.2 48.3-1.4-1.5-2.3-4.5-2.4-11l-6.2 45.3c-.6 4.1-2.7 17.9-4.5 21.2-2 3.7-4 7.6-6.6 10.9-1.9 7.1-3.2 13.8-4.1 21 16.2-5.4 36.9-2.6 52.1 2.7 9.6 3.4 15.8 8.9 22.7 16.1 12.3-2.5 19.1-5 30.1-10.8-1.4-8.8-5.2-20.7-8.9-26.3-.3-10.7-.7-46.1.4-56.2.5-4.8-.7-9.9-2.1-13.9-2.2 11.6-5.1 17.6-10.5 26.3 10.4-52.8 19.9-104.5 33.6-156.9z" class="Ag"/></g><linearGradient id="F" gradientUnits="userSpaceOnUse" x1="314.062" y1="740.8078" x2="261.008" y2="735.9847"><stop offset="0" stop-color="#3c3c3c"/><stop offset="1" stop-color="#666"/></linearGradient><g class="Af"><path d="M257.4 629.4c-4.4 21.8-9.6 49.1-9.1 65.3.6 3.2 1.3 8.4 1.9 14.2 9 8.4 25 8.9 38.8 7.7 8.5-4.8 12.8-13.4 16.9-21.1l7-50.4c-20.3-1.6-40.5-5.9-55.5-15.7zm-6 106.9c-.1 2.9-.4 5.2-.9 6.6-1.4-1.5-2.3-4.5-2.4-11l-6.2 45.3c-.6 4.1-2.7 17.9-4.5 21.2-2 3.7-4 7.6-6.6 10.9-1.9 7.1-3.2 13.8-4.1 21 16.2-5.4 36.9-2.6 52.1 2.7 7.9 2.7 13.5 7 19.1 12.5-1.9-10.7-2.6-16.1-5-22.4.3-13.1 1.8-25.3 3.5-38.8 2.6-5.8 4.2-9.7 6-14.5 1.4-11.3.4-25.2-.5-39.5-6.8 10.5-12.2 20.7-17.9 23.8-9.4 2.3-21 .5-29.7-3.5l-2.9-14.3z" fill="url(#F)"/><path d="M294.6 655.3c1.2 3.6 5.4 8 7.7 9 4.4 2 7.6 3.5 10.9 5.8 9.1 19.3 17.8 44.1 27.4 59.4 5.8 6.5 9.1 9.9 13.5 15.5 12.8 30.2 23.6 51.6 30.5 79.1 1.3 5.2 2.3 17 2.6 24.6 2.1 4.1 7.5 7.9 11.7 9.3 3.2-5.8 8-11.8 10.4-13.5 16.8-12.1 61.3-14 76.1 6.3 3.3-3.4 5.3-17.4 2.8-21.9-2.7-2.7-10.1-7-14.2-18.1-5.3-19.5-14.2-55.2-27.3-82.9-5.2-6.8-10.7-9.9-19.7-18l-40.9-74.8-11.7-37.7-46.2 2.3-33.6 55.6z" class="Ai"/><path d="M483.7 841.4c.6-3.5.9-7.6.3-9.5 0 0-11.8-8.8-14.8-19.9-7.5-27.4-14.6-56.2-26.7-79.6-3.3-5.4-17.9-16.8-19.7-20.2l-41-74.8-10.9-34.8-76.8 3.8.6 48.8c11.4 5.8 23.7 11.1 35.9 15.8-3.7.1-7.2.1-11.4-.7l12.5 28.8c6.3 15 9 20.2 13.6 26.5 12.8 14.5 20.4 21.3 29.1 31.3-4.9-2.6-7-3.1-11.7-6.6 11.1 25.8 20.2 44.8 27.1 72.4 1.2 4.7 1.7 10.4 2 15.2.3 3 .5 6.1.6 9.1 1 1.5 2.7 3 4.5 4.2 2.7-4.2 6.3-8.9 9.4-11.1 18.2-13 58.4-14 77.4 1.3z" class="Ag"/></g><linearGradient id="G" gradientUnits="userSpaceOnUse" x1="421.6198" y1="712.6609" x2="376.6043" y2="737.3123"><stop offset="0" stop-color="#3c3c3c"/><stop offset="1" stop-color="#666"/></linearGradient><g class="Af"><path d="M368.2 750.3l6.1 6.7c-4.9-2.6-7-3.1-11.7-6.6 11.1 25.8 20.2 44.8 27.1 72.4 1.2 4.7 1.7 10.4 2 15.2.3 3 .5 6.1.6 9.1 1 1.5 2.7 3 4.5 4.2 2.7-4.2 6.3-8.9 9.4-11.1 13-9.3 37-12.5 56.7-8.1-3.2-3.5-6.5-6.9-9.7-10.7-3.5-10.7-8.1-22.9-10.6-33.8-2.3-10.2-2.6-28.4-5.8-36.3-3.4-8.5-15.6-21-24.7-30.4-2.4 8.6-5.2 16.9-10.3 24.6-8.1 4.6-17.1 7.8-28 8.9l-5.6-4.1zM291 642.1c.1 1.1.1 2.2.1 3.2.1 3.2 1.7 7.9 3.5 9.9 11.4 5.8 23.7 11.1 35.9 15.8-3.7.1-7.2.1-11.4-.7l12.5 28.8c2.6 6.1 4.5 10.6 6.3 14.2 6.6 4.2 14.4 7 19.6 7.3 10.3-1.2 17-2.4 28.1-9.9 2.3-4 4.8-10.6 5.5-17.4-3.4-15.1-11.2-36-21-57.7-10.6 4.5-20.4 6.8-34.4 9.9-14.7.3-30.2-.5-44.7-3.4z" fill="url(#G)"/><path d="M364.2 611.9l6 30.7c-12.7 18.3-19.4 20.3-26.8 40.8-.5 7.3-8.7 19.2-13.5 19.4-11.7.6-26.1.1-36.2-3.2-33.8-16.1-27.5-71-4.5-82.2l75-5.5z" class="Ai"/><path d="M288.1 608l73.3 7.3L372 645c-9.1 10.2-19.5 24.4-27.6 40-2.2 4.3-8.1 11.2-13.5 11.8-14 1.4-26.9.9-36.4-2.2-32.3-12.3-30.6-64.2-6.4-86.6z" class="Ag"/><path d="M337.8 693.3c-2.2 1.9-4.5 3.3-6.8 3.5-14 1.4-26.9.9-36.4-2.2-11.7-4.5-19-14.1-22.3-25.7 7 11.7 11.2 17.7 20.2 21 10.5 3.8 30.1 6.1 45.3 3.4z" class="Al"/></g><linearGradient id="H" gradientUnits="userSpaceOnUse" x1="321.6156" y1="689.3047" x2="321.6156" y2="659.7864"><stop offset="0" stop-color="#3c3c3c"/><stop offset="1" stop-color="#666"/></linearGradient><g class="Af"><path d="M370 639.4l3.5 9.9c-17.1 7.1-26.3 19.9-33.7 30.7-35.1 7-54.3 3.7-62.6-9.4-7.3-12.2-7.9-22-7.2-34.3 20.1 8.1 45.1 10.7 67 11 12.4-2.4 22.7-4.6 33-7.9z" fill="url(#H)"/><path d="M279.4 646.1c8.7 4.5 22.4 8 49.2 11.9-16 2.1-29.7 1.4-35.6-.4-4-1.3-9.2-5.2-13.6-11.5z" fill="#7f7f7f"/><path d="M280.6 671.3c6.3 4.6 15.8 7.3 33.9 8.9-10.3 4.7-19.4 5.5-23.5 4-2.9-1.2-6.8-5.4-10.4-12.9z" class="Ag"/><path d="M265.1 670.3c-4.7 9 2.2 22.5 19.9 30.2-11.4-6.6-16.9-17.9-19.9-30.2zm-5.5 15.9c-1 8.4 8.6 13 16.2 13.6-6.9-2.2-13.2-7.4-16.2-13.6z" class="Ar"/><path d="M346.2 652c1.7 0 3.2 1.4 3.4 3 .1 1.7-1.1 3.1-2.8 3.1s-3.2-1.4-3.4-3.1c-.1-1.7 1.1-3 2.8-3z" class="Aq"/><path d="M345.4 652.5c1.7 0 3.2 1.4 3.4 3.1s-1.1 3.1-2.8 3.1-3.2-1.4-3.4-3.1c-.2-1.8 1.1-3.1 2.8-3.1z" class="Ai"/><path d="M345.5 653.4c.6 0 1.4.4 1.8.9-.4-.2-.8-.4-1.2-.4-1.2 0-2.1 1-1.9 2.2 0 .5.2.9.5 1.3-.6-.4-1.1-1.1-1.2-1.8-.1-1.3.8-2.2 2-2.2z" class="Ag"/><path d="M335.4 679c1.7.3 2.7 2 2.3 3.8s-2.1 3-3.8 2.7-2.7-2-2.3-3.8c.5-1.8 2.2-3 3.8-2.7z" class="Aq"/><path d="M334.4 679.4c1.7.4 2.7 2 2.3 3.8s-2.1 3-3.7 2.7c-1.7-.4-2.7-2.1-2.3-3.9.4-1.7 2.1-2.9 3.7-2.6z" class="Ai"/><path d="M334.2 680.4c.7.1 1.2.6 1.5 1.2-.3-.3-.6-.5-1.1-.6-1.2-.2-2.4.6-2.7 1.9-.1.5-.1 1 .1 1.4-.5-.5-.7-1.2-.5-2 .3-1.3 1.6-2.1 2.7-1.9z" class="Ag"/><path d="M282.8 673.9c1.4 0 2.8 1.4 3.1 3.1.4 1.7-.6 3.1-1.9 3.1-1.4 0-2.8-1.4-3.2-3.1-.3-1.7.6-3.1 2-3.1z" class="Aq"/><path d="M282.2 674.5c1.4 0 2.8 1.4 3.1 3.1.4 1.7-.6 3-1.9 3-1.4 0-2.8-1.4-3.1-3-.4-1.7.5-3.1 1.9-3.1z" class="Ai"/><path d="M282.4 675.4c.6 0 1.2.3 1.6.9-.4-.2-.7-.4-1.1-.4-.9 0-1.6.9-1.4 2.2.1.4.3.9.6 1.2-.6-.4-1-1-1.2-1.7-.2-1.2.5-2.2 1.5-2.2z" class="Ag"/><path d="M280.8 646.2c1.7 0 3.2 1.4 3.4 3.1.1 1.7-1.1 3.1-2.8 3.1s-3.2-1.4-3.4-3.1 1.1-3.1 2.8-3.1z" class="Aq"/><path d="M279.9 646.7c1.7 0 3.2 1.4 3.5 3.1.1 1.7-1.2 3.1-2.8 3.1-1.7 0-3.2-1.4-3.4-3.1s1.1-3.1 2.7-3.1z" class="Ai"/><path d="M280.1 647.6c.7 0 1.4.4 1.8.9-.4-.2-.8-.4-1.2-.4-1.2 0-2.1.9-1.9 2.2.1.4.2.9.5 1.2-.6-.4-1-1-1.1-1.8-.2-1.1.7-2.1 1.9-2.1z" class="Ag"/><path d="M222.6 464.8c6.9-10.3 25.8-27 40.3-26.9 10.7 1.5 21.4 5 31.3 9.7l.2 7.7-9.3 67.4c-20.9 5.4-41.8 13-62.6 23.2-48 6.8-67.6-60.1-36.9-77.3l2.5-.6c11.4-.2 23.4-.5 34.5-3.2z" class="Am"/></g><linearGradient id="I" gradientUnits="userSpaceOnUse" x1="245.7877" y1="511.3035" x2="251.8947" y2="534.3223"><stop offset="0" stop-color="#c63"/><stop offset="1" stop-color="#ff9701"/></linearGradient><path d="M290.5 454.1c-8.9-2.1-22.4-8.4-28.5-11.1-10 1.5-27.1 13.7-33.8 23.1 3.9 1.4 6.2 3.2 9.6 7.2-5.5-2.2-8-3.2-12.6-3.7-11.9 3.1-25.2 3.5-37.1 3.6-4.4 2.4-7.6 6.3-9.6 10.7 19.7-30 57 31.1 43.5 56.2 20.2-10.2 39.4-17.7 59.5-23.9l9-62.1z" fill="url(#I)" class="Af"/><linearGradient id="J" gradientUnits="userSpaceOnUse" x1="244.4083" y1="477.5519" x2="251.9247" y2="498.2219"><stop offset="0" stop-color="#ff9701"/><stop offset="1" stop-color="#c63"/></linearGradient><g class="Af"><path d="M290.5 454.1c-6.6-3.6-17.5-9.4-28.5-11.1-10 1.5-27.1 13.7-33.8 23.1 3.9 1.4 6.2 3.2 9.6 7.2-5.5-2.2-8-3.2-12.6-3.7-11.9 3.1-25.2 3.5-37.1 3.6 15.2.4 19.8 15.6 29.6 26.6 26.6-5.5 34.6-11.1 61.6-14.4l11.2-31.3z" fill="url(#J)"/><path d="M205.1 472.7l-4.3.2c19.5 6.1 36.2 44.4 28.7 63.6l3-1.4c5.2-22.5-9.5-53.6-27.4-62.4z" class="Ao"/><path d="M232.9 460.7c-1.9 1.9-3.5 3.7-4.7 5.5 3.9 1.4 5.8 7.2 9.3 11.3 10.4 1.3 18.8-.1 32.3-9.2-18 5-28.5-1.5-36.9-7.6z" fill="#de7721"/><path d="M221.1 533.9c-24.8 10.7-46.2 37.8-69.1 41.8l.3-76c13.8-7.1 27.8-14.3 43.1-20.6 14.6 7.5 28.7 36.1 25.7 54.8z" class="Ah"/><path d="M221.5 527.6c-27.3 12-46.7 33.8-67.4 41.3l1.9-65.3c13.5-7.8 27.8-15.3 43.5-21.7 11.5 8.9 21.6 29.4 22 45.7z" class="Aj"/><path d="M175.7 464.3c2.5 17.6 8.6 19.6 13.6 34.9 9.1 27.9-5.5 39-23 42.2L152 575.7c-8.9 1.9-21 1.4-30.7-1.8C89.6 563.5 76.8 527.6 90 498c5.8-12.9 10.9-20.3 15.7-35 .6-1.7.2-1.2 1.7-2.3 18.4-14.9 47.2-12.3 66.1 0l1.9 1.3.3 2.3z" class="Ah"/><path d="M111.7 464c-4.9 15.1-11.4 25.6-15.8 35.7-11.9 27.1.4 58.8 28.9 68.5 9.3 3.1 19.6 3.7 29.2.6 23.7-10.3 40.8-37.1 29.8-65.9-4.4-9-9.6-17-12.7-38.5-16.3-10.9-42.7-14.2-59.4-.4z" class="Aj"/></g><linearGradient id="K" gradientUnits="userSpaceOnUse" x1="109.8458536" y1="606.004035901162" x2="136.2864136" y2="424.716718498838"><stop offset="0" stop-color="#fad395"/><stop offset="1" stop-color="#e5895b"/></linearGradient><g class="Af"><path d="M111.7 464c-4.9 15.1-11.4 25.6-15.8 35.7-11.9 27.1.4 58.8 28.9 68.5 9.3 3.1 19.6 3.7 29.2.6-26.8-19.5-29.4-63.4-24.6-113-6.4 1.3-12.5 3.9-17.7 8.2z" fill="url(#K)"/><path d="M59.5 385.1c5.5-7.2 10.9-14.7 15.9-22.3 4-6 9.8-15.3 11.7-22.2.3-1 .7-2 1.3-2.9 3.2-5 9.5-6.6 15-5.9 6.3.7 12 4 15.8 9.1 5.6 7.6 5.9 17.1 3.7 26-3.5 14.5-13.5 28.9-22.8 40.2l-2.7 3.3L55 390.5l4.5-5.4z" class="Ah"/><path d="M63.8,388.4c7.3-9.3,25.3-33.4,28.9-46.4c3.7-13.5,55.6-1.2,3.7,61.6L63.8,388.4z" class="Aj"/></g><linearGradient id="L" gradientUnits="userSpaceOnUse" x1="107.8468" y1="346.1613" x2="99.1865" y2="353.7719"><stop offset="0" stop-color="#fad395"/><stop offset="1" stop-color="#e5895b"/></linearGradient><g class="Af"><path d="M93.8 339.9c5.3-6.1 24-2.8 25.4 14.9-10 2.2-24.2-2.8-25.4-14.9z" fill="url(#L)"/><g class="Ak"><path d="M116.4 381.5l78.8 10.2c11 1.4 19.2 10.7 19.2 21.7v79.1c0 10.2-6.9 18.8-16.8 21.3l-95.8 24.3c-.7.2-1.5.4-2.3.6h-.1c-2.2.5-4.3.9-6.6 1.1-9 .8-18.4-.8-26.4-5.2C53.1 527 47 513.4 47 498.2v-95.3c0-11.4 9.7-19.9 20.8-20.4l40.8-1.9c2.6-.2 5.3.1 7.8.9z"/><path d="M108.9 385.6l85.7 10.9c8.5 1.2 14.8 8.3 14.8 16.8v79.1c0 7.9-5.3 14.5-13 16.4l-97.9 24.8 8.4-39v-87.3l2-21.7z"/></g><path d="M155.7 519.1l-57.3 14.5 11.5-24.5 61.8-8.1c-1.8 8.6-4.9 14.7-16 18.1z" class="Ag"/><path d="M209.3 481.2v11.2c0 1.3-.1 2.5-.4 3.7l-37.2 4.9c.3-1.2.5-2.5.7-3.9 1-5.6 4.6-10.4 10.6-11.4l26.3-4.5zM68.1 387.5l40.8-1.9c9.7-.5 17.8 6.5 17.8 15.4v100.7c0 41.4-74.6 48.1-74.6-3.5v-95.3c0-8.2 7-15 16-15.4z" class="Al"/><g class="Ag"><path d="M129.1 449.6c-3 14.3-12.4 29.2-27.9 31l-45.6 5.3v-.3h-.7c-31 0-54.9-26.2-54.9-56.7 0-28.9 21.4-54 50-56.6 7.6-.6 11.4.3 19.5 1.4l95.4 10.9c34.2 4.4 30.9 53.9 3 59.8l-38.8 5.2z"/><path d="M188.9 412.1c9.1 1.1 10.2 11.4 10.2 13.6V473c0 3.9-2.4 5.9-5.6 6.3l-41.5 4.9c-11.8 1.4-14.9-4.8-14.9-10.7v-61.4h51.8z"/><path d="M163.9 391.6c30.7 4.1 26.1 44.6 3.2 47.7l-39.2 5.4c-2 15.1-11.2 29-24 30.5l-43.3 5L59 377.4l104.9 14.2z"/></g><path d="M175.4 400.8c6.3.5 8.9 8.7 9.1 14.2H59.7l-.4-23 116.1 8.8z" class="Ak"/><path d="M54.9 377.2c27.4 0 49.7 23.1 49.7 51.7 0 28.5-22.2 51.7-49.7 51.7S5.1 457.4 5.1 428.9c0-28.6 22.3-51.7 49.8-51.7z" class="Ar"/><path d="M54.9 384.3c23.6 0 42.8 19.9 42.8 44.6 0 24.6-19.2 44.6-42.8 44.6-23.7 0-42.9-19.9-42.9-44.6 0-24.6 19.2-44.6 42.9-44.6z" class="Ak"/><path d="M73.7 388.9c14.2 7.3 24 22.5 24 40 0 17.6-9.8 32.8-24 40-3 .8-6.3 1.2-9.6 1.2-21.9 0-39.6-18.4-39.6-41.2s17.7-41.2 39.6-41.2c3.4 0 6.6.5 9.6 1.2z" fill="#6ea6b8"/><path d="M88.3 422.7c0 17.4-11.5 32.1-27.1 36.1-9.3 2.4-22-1.7-27.2-9.9-3.7-5.8-6-12.9-6-20.4 0-20.4 16-37 35.6-37 16.8 0 24.7 16.4 24.7 31.2z" fill="#9fd4e6"/><path d="M81.1 436.2c3.6 1.4 5 6 3.1 10.4-1.9 4.5-6.4 6.9-10.1 5.6-3.7-1.4-5-6-3.1-10.4s6.5-6.8 10.1-5.6zm-26.7-35.5c6.4 2.4 8.9 10.5 5.5 18.3s-11.2 12.2-17.6 9.8c-6.4-2.3-8.9-10.5-5.5-18.3 3.4-7.7 11.2-12.1 17.6-9.8z" fill="#eaf4f7"/><path d="M93.6 382c8.4 1.2 18.2 14.3 21.4 22.4 2.9 7.4 4.5 15.7 4.5 24.5 0 10.5-2.3 20.4-6.4 28.8-3.6 7.6-13.4 18-19.9 18.8l-4.5.5c5.4-2.5 10.2-6.6 14.3-11.6 7.3-9.4 12-22.2 12-36.5s-4.6-27.1-12-36.5c-3.6-4.5-7.9-8.3-12.7-10.8l3.3.4z" class="Al"/><path d="M118 414.9h-3.1c-1.7-7.3-4.5-13.9-8.2-19.4l3.5.3c2.1 3 3.7 6.1 4.8 8.6 1.3 3.3 2.3 6.9 3 10.5z" fill="#999"/><g class="Ag"><path d="M58.6 496.2v5c0 9.9 3.3 18.8 12.2 23.8 16 8.9 43.8.8 43.8-20.2v-9.4c0-2.4-1.9-4.3-4.2-4.2l-47.5.8c-2.4 0-4.3 1.9-4.3 4.2z"/><path d="M62.9 497.1v4.1c0 8.3 2.5 15.9 10.1 20.1 13.2 7.3 37.4 1.2 37.4-16.6l.1-8.6c0-.3-.1-.4-.3-.6-.1-.1-.4-.2-.6-.2l-45.9.9c-.5 0-.8.4-.8.9z"/></g><path d="M64 497.7v4c0 6.7 2 12.8 8.1 16.2 10.6 5.9 30.2.9 30.2-13.3l.1-6.8c0-.3-.1-.5-.3-.6-.1-.1-.4-.2-.6-.2l-37.5.7c0-.1 0-.1 0 0z" class="Ak"/><path d="M228.4 399.5l8.1 2.1c3.7.9 6.3 4.2 6.3 8.9v54.1c0 4.7-2.6 7.9-6.3 8.9l-8.5 2.2.4-76.2z" class="Al"/><path d="M242.8 410.5v11h-14.5l.1-12.5z" fill="#7f7f7f"/><path d="M151.6 402.6l73.9-3.2c5.8-.2 9.7 4.5 9.7 9.4v57.5c0 4.9-4 9.6-9.7 9.4l-73.9-3.1c-5-.2-9-4.4-9-9.4v-51.3c0-5 4-9.2 9-9.3z" class="Al"/><path d="M151.7 405.4c-3.5.1-6.3 3-6.3 6.6v51.3c0 3.5 2.7 6.4 6.3 6.6l73.9 3.1c3.8.1 6.8-2.8 6.8-6.6v-57.5c0-3.7-3-6.7-6.8-6.6l-73.9 3.1z" class="Ar"/><path d="M151.7 405.4c-3.5.1-6.3 3-6.3 6.6v30.3h87v-33.5c0-3.7-3-6.7-6.8-6.6l-73.9 3.2z" fill="#ccc"/><path d="M143 418v39c.4.1.8.1 1.2.1l53.1 1.7c23.6.8 21.2-43.4 0-42.7l-53.1 1.7c-.4.1-.8.2-1.2.2z" fill="#a35a15"/><path d="M141.6 417.9l52.8-1.7c21.1-.7 23.5 43.5 0 42.7l-52.8-1.7c-3.6-.1-6.4-2.4-6.4-5.3v-28.7c0-2.9 2.8-5.2 6.4-5.3z" class="As"/><path d="M139.8 419.8c-1.7.1-4.5 1.2-4.5 3.4v19.4H202c1.5 0 3.8-.9 3.8-3.7.1-10.3-5-21.2-14.5-20.8l-51.5 1.7z" class="Ap"/><path d="M164.5 424.9l19 11.4c.5.3.8.8.8 1.4s-.3 1.1-.8 1.4l-19 12.5c-.6.4-1.2.4-1.7.1-.6-.3-.9-.9-.9-1.4v-23.9c0-.6.4-1.2.9-1.5s1.1-.3 1.7 0z" class="As"/><path d="M162.3 424.6l19 11.4c.5.3.8.8.8 1.4s-.3 1.2-.8 1.5l-19 12.4c-.6.4-1.2.4-1.7.1-.6-.3-.9-.9-.9-1.5v-23.8c0-.6.3-1.2.9-1.5.5-.4 1.1-.4 1.7 0z" fill="#d3e8ef"/><path d="M161.6 426.3h0v15.4h11.5l6.8-4.4-18.3-11z" class="An"/><path d="M135.2 427.5l11.4 2.2c1.6.3 2.8 1.9 2.8 3.7v9.9c0 1.9-1.2 3.4-2.8 3.7l-11.4 2.2v-21.7z" class="As"/><path d="M133 426.7l10.7 1.8c1.9.3 3.3 1.9 3.3 3.7v9.9c0 1.9-1.4 3.5-3.3 3.7l-10.8 1.4c-1.2.1-2.2-.7-2.2-1.8v-16.8c.1-1.2 1.1-2.1 2.3-1.9z" class="Ak"/><path d="M132.6 428.5h0v8.6h11.6c.5 0 .9-.4.9-.9v-4c0-.9-.8-1.7-1.7-1.8l-10.8-1.9z" class="Al"/><path d="M143.9 367.5c4.4-4.5 18.9-6.2 24.5-3.7 4.2 1.9 7.6 5.5 9.8 9.4 3 5.3 5 11.1 1.6 16.8-4.3 7.1-22.2 4.9-29.4 2.2-2.7-1-6.7-8.5-7.5-12.3 1.9-5.4 1.1-6.1 1-12.4z" class="Ah"/><path d="M145.8 379.4c1.3 2.6 2.8 7.6 6.3 9.1 7.9 3.7 21.7 2 23.5-.5 3.7-5.3-.7-16.6-9.1-20.4-4.5-2-17.1.1-19.7 2.8.1 4.2-.1 6.2-1 9z" class="Aj"/><path d="M176.4 379.4c-1.4-4.7-4.9-9.6-9.9-11.8-4.5-2-17.1.1-19.7 2.8 6.7 8.5 13.7 10 29.6 9z" fill="#fad395"/><path d="M121.9 361.2c6.3-2.4 18.8-3.1 23.3-.9 4.8 2.3 8.4 6.6 10.9 11.2 3.2 6.3 5.2 13 1.1 19.2-5.3 8.1-29.7 6.6-33.5 1.2-2.3-3.3-7.3-12.7-5.8-20l4-10.7z" class="Ah"/><path d="M128.2 389.3c8.9 4.7 22.2 1.9 24.3-.9 4.5-5.9-.1-19.2-9.6-23.8-4.1-2-14.2-1.2-19.6.7-.1.4-.2.9-.3 1.3-.6 2.4-1.4 4.8-2.3 7.2-.2 2.3 2.4 12.8 7.5 15.5z" class="Aj"/></g><linearGradient id="M" gradientUnits="userSpaceOnUse" x1="141.5255" y1="366.7423" x2="134.0092" y2="379.8959"><stop offset="0" stop-color="#fad395"/><stop offset="1" stop-color="#e5895b"/></linearGradient><g class="Af"><path d="M153.7 378.6c-1.3-5.4-5.2-11.2-10.8-13.9-4.1-2-14.2-1.2-19.6.7-.1.4-.2.9-.3 1.3-.2.9-.5 1.9-.8 2.8 6.8 7.9 14.9 9.5 31.5 9.1z" fill="url(#M)"/><path d="M317.2 433.2l-33.5-75.5 164.9-40.5-.9 18.7-19.7 28.8c-8.4 10.5-14.2 20.2-14.8 24.5l-4.3 30.6 15.3 25.1-47.2 64.7-84.8-.7-10.2-33.5 35.2-42.2z" class="Ah"/><path d="M287.9 476.6l8.1 26.9 78.2.6 43.5-59.6-14.5-24 4.8-34.4c.9-6.4 20.8-33.3 39-57.5l-155.8 32.8 32.2 72.5-35.5 42.7z" class="Aj"/></g><linearGradient id="N" gradientUnits="userSpaceOnUse" x1="394.6668" y1="453.312" x2="342.0076" y2="453.312"><stop offset="0" stop-color="#e5895b"/><stop offset="1" stop-color="#fad395"/></linearGradient><g class="Af"><path d="M287.9 476.6l7.1 23.7 22.1 3.4 34 .3 23.9-31.2c5.3-16.4 8.7-32.7 8.3-50.3 3-7.1 6.5-12.9 9.5-19.9-18.1 18.7-38.4 33.6-58.1 39.9-4.7-1.9-8-5.5-11.3-8.5l-35.5 42.6z" fill="url(#N)"/><path d="M285.6 443.5l19.4-5.2 12.2-5.2c1.9 8.2 7.1 20.9 15.4 25.4 22.8-3.4 58-21.1 76.2-38.8l37.7 18.4c4.4-.4 11.7.6 18.1 3.4l-1.4 84.6c-23 20.9-37.5 29.4-56.3 45.5-6 16.3-8.7 28.8-9.2 38.5 2.4 5.4 3.7 8.8 4.5 14.3-21.1 11.9-36.9 15.4-59.5 19.8-34.9-.5-77.9-6.9-96-32 4.6-14 8.4-22.1 11.2-34.9-.1-19.5-3.7-38.3-10.5-71.5.8-11.2 4.5-24.2 17.3-30l16-27c.6-2.8 1.5-4.4 4.9-5.3z" class="Ak"/></g><linearGradient id="O" gradientUnits="userSpaceOnUse" x1="388.0947" y1="539.8073" x2="417.3849" y2="547.8272"><stop offset="0" stop-color="#ccc"/><stop offset="1" stop-color="#fff"/></linearGradient><g class="Af"><path d="M280.7 448.9c-20.1 17.6-26.7 30-29.2 52.8 2.4 14 6.9 30.5 8.6 44.6.6 5.4 3.2 30 2.3 34-2.7 11.8-5.7 20-9.5 31.3 18.8 22.7 61.7 26.9 89.3 27.3 9.4-1.8 18.7-3.7 27.9-6.4s17.8-6.3 26.2-10.9c-.8-3.4-4-10.4-4-10.4.6-12.2 3.4-23.3 7.3-34.8-3.4 2.1-6.1 3.9-8.6 5.2 1.8-4.5 8-10.6 12.5-14 12.7-9.6 24.6-18.4 36.5-28.7l17.4-14.7-16.4-82.8-31.2-15.3c-18.9 16.8-52.6 34.2-76.5 37.7-2.2.3-1.4.4-3.2-.6-7.9-4.2-13.3-13.9-16.3-22.8l-7.2 3-25.9 5.5z" fill="url(#O)"/><path d="M280.7 448.9c-20.1 17.6-26.7 30-29.2 52.8 1.6 9.4 7.4 23.8 13.4 33.3 33.2-8.3 55.3-3.7 88.3 7.3 21.9-4.3 44.9-13.7 56.6-21.5 1.2-27.4 8.6-41.9 24.6-59.3l14.2 18.4-7.7-38.5-31.2-15.3c-18.9 16.8-52.6 34.2-76.5 37.7-2.2.3-1.4.4-3.2-.6-7.9-4.2-13.3-13.9-16.3-22.8l-7.2 3-25.8 5.5z" class="An"/><path d="M440.1 538.9c6-4.8 11.8-9.6 17.4-14.7l-13-65.4-12.5-1.3c-34.3 26.4-28.7 68.4-22.3 90.1 1.5 5.6 26.5-5.7 30.4-8.7z" fill="#ccc"/></g><linearGradient id="P" gradientUnits="userSpaceOnUse" x1="318.314" y1="590.421" x2="387.3554" y2="597.3949"><stop offset="0" stop-color="#fff"/><stop offset="1" stop-color="#ccc"/></linearGradient><g class="Af"><path d="M274.1 553.1c22.8-3.8 49.4-2.5 72.1 12.2 12.7-2.9 23.9-8.1 34.8-14.5-.3 8.1.2 13.9 0 22l-9 10.9-.4 26.1c-6 12.6-16.1 23.1-29.9 29.2-27.6-.5-70.1-4.8-88.7-27.3 3.8-11.3 6.8-19.5 9.5-31.3.9-4-1.7-28.6-2.3-34-.4-3-.9-6-1.4-9.1 3.8 4.9 8.5 9.6 15.3 15.8z" fill="url(#P)"/><path d="M394.7 616.8c-14.7 7.1-34.8 14.5-49.7 15.7-37.5-.1-67.1-5.4-90.6-24.8-.1-.6.1-1.3.6-1.9 25.5 19.4 53.8 24.7 90.1 24.4 16.8-1.9 32-7.2 48.9-15.4.6.5.8 1.2.7 2zm-87.6-173.6c5.5 12.5 11.4 22.7 23.5 28.8 24.3-4 66.4-25.1 85.9-42.6.7-.1 1.3.3 1.7.9-20.1 18-62.6 39.6-87.6 43.6l-.6-.1c-12.6-6.3-18.9-16.7-24.6-30.2.5-.2 1.1-.3 1.7-.4z" fill="#999"/><path d="M486.9 469.6c8.6 8.5 15 13.9 24.8 21l1.2 1.2c18.8 26-25.2 95.9-70.1 72.6l-2-1.8c-8.1-11.8-15.2-21.5-24.5-30.3-3.5-3.2-6-7.9-6.4-12.3l5.8-33c-5.5-30.7 18.2-53.4 49-46.1 10.5 5.1 19.4 17.2 22.2 28.7z" class="Am"/></g><linearGradient id="Q" gradientUnits="userSpaceOnUse" x1="436.3251" y1="519.3873" x2="425.6389" y2="532.6093"><stop offset="0" stop-color="#c63"/><stop offset="1" stop-color="#ff9701"/></linearGradient><path d="M465.5 448.1c-31.9-13.2-68.8 11-55.6 72 14.3 11 25.5 25 35.4 39.6 5.3 2.7 10.6 4 15.7 4.1-7.3-2.1-11.9-5-13.9-9.1-12.7-25.6 56.7-79.5 64.8-46 .2-5.3-.8-10.1-3.3-13.6-7.6-5.5-15.9-12.2-23.1-19.2-.3 5-1.9 8.3-4.1 13.1 3.3-19.5-3.8-31.4-15.9-40.9z" fill="url(#Q)" class="Af"/><linearGradient id="R" gradientUnits="userSpaceOnUse" x1="432.9718" y1="519.1287" x2="455.0686" y2="492.8661"><stop offset="0" stop-color="#c63"/><stop offset="1" stop-color="#ff9701"/></linearGradient><g class="Af"><path d="M465.5 448.1c-38.2-13.1-58 22.9-40.6 56.4 9.7 9.1 15.4 15.3 24.4 23.6 12.5-19.7 46.7-43.6 61-29.8-.4-1.1-1-2.1-1.7-3.2-7.6-5.5-15.9-12.2-23.1-19.2-.3 5-1.9 8.3-4.1 13.1 3.3-19.5-3.8-31.4-15.9-40.9z" fill="url(#R)"/><path d="M431.6 473.6c16.6 10.5 33 17.9 49.8 15.3 1.5-7.8 1.3-14-.4-19.4-3.6 12-21.1 9.7-49.4 4.1z" fill="#de7721"/><path d="M436.3 547.3c.6 1.4 1.4 2.2 2.2 3-5.3-27.4 44.4-68.5 66.2-58-1.1-1.2-2.4-2.4-4.2-3.2-23.8-4-65.4 31.5-64.2 58.2z" class="Ao"/><path d="M505.5 502.9c8.6 5 16.6 16.8 22.8 26.4 5 7.7 8.5 13.2 13.3 18.6l-18.8 56.2c-3.7.1-9.4-1.2-16.3-4-17.9-10.2-40.5-33.6-56.7-51.6.1-.5.1-1 .1-1.5 2.2-22 38.7-50.3 55.6-44.1z" class="Ah"/><path d="M496.2 502.3c23.2 16 28.9 34.4 41 48.9L521 599.1c-4.2-.4-6.8-1.4-11.7-3.2-15.1-8.5-35.3-28.4-58.3-54.1 5.6-17.4 28.6-36.6 45.2-39.5z" class="Aj"/></g><linearGradient id="S" gradientUnits="userSpaceOnUse" x1="487.4978" y1="554.4805" x2="509.241" y2="535.6151"><stop offset="0" stop-color="#e5895b"/><stop offset="1" stop-color="#fad395"/></linearGradient><g class="Af"><path d="M501.3 506.2c18.9 15 24.7 31.8 35.9 45.1l-19 18.9c-20.2-17.3-38.6-31.4-44.8-41.4 5.3-11 13.5-17.2 27.9-22.6z" fill="url(#S)"/><path d="M523.1 559.7l5.5 6.3 8.6-14.7 3.8-4c4.9 4.8 8.7 8.5 10.8 15.1 1.9 6 3.6 30.6-3.9 40-6.5 8-17.5 18.4-32.8 24.4-26.6 10.4-58.3 23.9-80.8 34.8l-13.5-64c33.4-12.9 37.5-22.2 48.4-36.9 12.9-17.4 40.8-17.1 53.9-1z" class="Ah"/><path d="M537.2 551.2l-14.1 6.6c-23.3-12.4-42-3.7-49 5-7.3 9.1-12.5 24.6-49.1 35.6l6.7 56.7 84.3-34.6c12.5-5.1 23.8-16.1 27.6-21.1 4.8-6 6.1-25.4 3.2-34.7-1.4-4.5-3.8-7.9-9.6-13.5z" class="Aj"/></g><linearGradient id="T" gradientUnits="userSpaceOnUse" x1="494.4493" y1="612.3632" x2="481.6592" y2="584.8644"><stop offset="0" stop-color="#e5895b"/><stop offset="1" stop-color="#fad395"/></linearGradient><g class="Af"><path d="M537.2 551.2c-6 .1-10.6 2.4-14.1 6.6-23.3-12.4-42-3.7-49 5-7.3 9.1-12.5 24.6-49.1 35.6l3.2 32c44-10.6 84.2-27.9 120.2-53.1 0-4.8-.5-9.4-1.5-12.7-1.5-4.4-3.9-7.8-9.7-13.4z" fill="url(#T)"/><path d="M451.6 599.4c-10-22.4-15-33.3-13.8-59.2.1-2.7-2.9-8.1-6.4-9.4-6.7-2.4-19.2-1.7-25.8.9-4.2 1.7-5.9 5-7.4 9.1-2.5 6.9-3.5 16.3-2.7 19.3 3.2 12.2 7.4 23 8.4 36 11.2 5 26.8 8.7 37.9 13.8l9.8-10.5z" class="At"/><path d="M446.3 598.5c-4.2-9.1-8.9-17.9-10.9-27.9-2.2-10.7-2.8-19.2-2.2-30.1.1-2.1-2.3-5.2-4.5-5.9-5.2-1.7-14.6-1.2-19.9.2-3.2.9-4.1 1.2-5.5 4.1-2.9 5.6-4.3 15.6-4 19 .9 8.9 7.6 18.7 8.9 35 10.1 4.3 22.5 7.2 32.6 11.5l5.5-5.9z" class="Aj"/></g><linearGradient id="U" gradientUnits="userSpaceOnUse" x1="413.8649" y1="565.3492" x2="413.8649" y2="544.5259"><stop offset="0" stop-color="#e5895b"/><stop offset="1" stop-color="#fad395"/></linearGradient><g class="Af"><path d="M428.5 539.1c.6-2.8-3.6-5.3-5.5-5.3-4.9-.4-10.6.2-14.3 1.2-3.2.9-4.1 1.2-5.5 4.1-2.9 5.6-4.3 15.6-4 19 1.7 7.9 27.8 4.7 27.9.9.4-7.6.2-13 1.4-19.9z" fill="url(#U)"/><path d="M365.3 615.2c-1.8-1.9-3.8-4.5-4.7-6.5-1.2-2.7-3-14.8-3.2-19.9-.1-2.3.8-4.5 2.3-6.2 12-13.2 34.1-20.2 51.3-19.9 12.8 2 29.4 13.4 38 20 1.7 1.3 1.7 9.3 2.3 11.7l-5.7 5.7-.5 40.5 13.4-7.3c1.2 11.1-3.7 17.8-6.3 19.9-7.3 5.8-24.6 14.3-36 18.5-9.6 1.8-32.5-1.2-41.3-4.2-4.2-4.5-7.8-13.5-9-19.5.4-1.9.9-4.8 2.2-6.6-.5-2.3-2.9-24.4-2.8-26.2z" class="At"/></g><linearGradient id="V" gradientUnits="userSpaceOnUse" x1="410.1235" y1="613.7381" x2="416.5186" y2="577.9257"><stop offset="0" stop-color="#e5895b"/><stop offset="1" stop-color="#fad395"/></linearGradient><path d="M452.2 589c12.9 14 10.9 47.7 0 59.1-10.8 8.2-23.5 14.2-36.6 18.5-10.9 1.5-26.3-.1-37.9-2.7-3.5-3.5-6.8-13.3-7.3-18.1.3-1.7 1-3.5 2.4-6-1.4-4.4-3.2-23-2.8-27.3-2-1.9-4.1-3.7-5.2-5.9-1.9-3.9-2.7-15.2-2.9-18.9 0-.7.3-1.5.7-2 11-12.2 31.8-18.4 49.1-18.1 19.3 7.2 26.6 13.3 40.5 21.4z" fill="url(#V)" class="Af"/><linearGradient id="W" gradientUnits="userSpaceOnUse" x1="376.5618" y1="629.3389" x2="407.2581" y2="616.2289"><stop offset="0" stop-color="#e5895b"/><stop offset="1" stop-color="#fad395"/></linearGradient><g class="Af"><path d="M415.6 666.6c-6.8.9-15.3.6-23.5-.3-4.4-21.1-5.5-45.1-4.4-57 4.5-1.9 10-3.5 18.6-3.7-7.5-3.7-16.1-3.4-23.7-2.8-1.2-8.4-1.6-16.3-2.4-24.9-.1-1 .7-3.4 1.7-4.8 9.6-3.8 20.4-5.6 30-5.5 1.5 3.6 3.1 7.2 4.7 10.8 2.9 6.9 4.1 14.3 4.5 21.7-.5 3.2-1.7 6.3-3 9.2.5 15.7-.3 30.3-1.4 45-.5 4.2-.8 8.3-1.1 12.3z" fill="url(#W)"/><path d="M371.3 638.1c12.7.6 26.1 0 38.6-1.2-1.9 1.7-4 3.1-5.8 3.5-11.4 1.3-22.9 1.5-34.4 1 .5-1.1 1-2.2 1.6-3.3zm-4.1-26c13.6-4.2 27.1-7.1 38.7-7.7 3.4.9 4.7 1.3 7.3 2.5-15 .9-29.2 4.3-45.5 9-.1-1.2-.4-2.5-.5-3.8z" class="At"/><path d="M416.5 578.4c1.7 6.6 2.3 14.3 2.5 21.6-.5 4-1.9 6.8-2.5 8.9.8 16.2-.1 30.1.1 45.4 2.4-5.5 3-38.7 3-45.2.9-2.6 1.7-5.1 2.2-8.4-.1-5.4-.6-11.2-1.4-17-1.2-1.9-1.9-3.3-3.9-5.3z" fill="#d1794d"/><path d="M169.8 174.7c-4-3.3-7.3-7-10.7-10.9-6-17.1-7.3-31.5-5.1-48.9 14 14.5 27.2 26.6 48 31.9l5.4 1.4-13.3 43.8c-18.7-1.3-20.3-2.5-35.2-13.5l9.9-3.2c.3-.3.7-.4 1-.6z" class="Am"/><path d="M200.7 152.1c-13.2-3.5-25.9-9.9-41.9-24.5-.1 12 2 24.4 5.2 33.6 4.8 5.6 10.6 11.1 16.3 14.8-3.8 2.2-5.8 3-9.9 4.2 7 5.2 12.6 5.6 19.8 6l10.5-34.1z" class="Ao"/><path d="M200.7 152.1c-13.2-3.5-25.9-9.9-41.9-24.5 3.8 10.4 9.7 20.7 18.4 28-3.2-.2-4.8-.5-8.6-1.3 6.5 7.9 14.8 14.3 25.4 19.4l6.7-21.6z" fill="#ff9626"/><path d="M480.2 272.7c-.7 15.3-1.2 38.9-6.9 52.2-4.6 10.8-37.9 42-57.8 58l-2.3-12-8.4 5.9c-11.9 18.9-30.1 38.7-48.2 46.9-17.6 7.9-71.5 12.3-86.3.3-9.6-7.9-19.4-23.4-25.8-34.2-11.5-18.9-26.1-29.8-38.2-56.3-7.4-16.4-9.5-36.8-5.5-54.4-3-17-10.4-32.3-17.5-47.9l-.4-1.4c-6.3-39.7-2.8-90.5 26.1-121.5 25.7-27.4 66.4-43.1 102.8-48.8 39-6 80.7-.1 116.4 17 30.6 14.6 57.8 39.2 66.8 72.9 8.5 31.8 5.5 64.8-5.5 95.5l-9.3 27.8z" class="Ah"/><path d="M312.3 66.3c82.1-12.7 161.5 25.1 177.5 84.7 7.7 28.9 5.9 60.6-5.5 92.3l-9.4 28.4c-.7 17.4-1.4 39.2-6.5 51-5.4 12.7-73 77.5-114 96.1-15.4 7-67.6 11.6-80.6 1-7.9-6.5-13.9-17.1-23.6-33.1-9-14.8-26.1-31.5-37.2-55.9-5.7-12.5-9.7-32.2-5-52-3-17.9-10.2-33.1-18.1-50.3-6.3-39.9-3.5-86.5 23.3-115.3 22-23.4 58.3-40.6 99.1-46.9z" class="Aj"/></g><linearGradient id="X" gradientUnits="userSpaceOnUse" x1="354.0993" y1="237.5681" x2="422.6962" y2="221.0388"><stop offset="0" stop-color="#fad395"/><stop offset="1" stop-color="#e5895b"/></linearGradient><path d="M312.3 66.3c-13.3 21.3-19.7 50.8-12 77.5 55.4-8.4 69.7-6.9 98.4 1.7-6.6 14.6-9.6 32-8.6 51.4-15 5.4-29.1 10.7-40.1 15.6l-17.3 20.7c33.8-.9 43.4-4.8 57.4-2.7 7.9 15.6 14.4 37.4 11.5 59.1 20.4-7.7 31.5.4 31.9 16-12.7 23.5-23 37.9-40.5 58.9 7.3-6.1 11.7-8.5 19.7-14.4-15.9 26.2-33.8 45.9-58.4 68.8-15.4 7-67.6 11.6-80.6 1-7.9-6.5-13.9-17.1-23.6-33.1-9-14.8-26.1-31.5-37.2-55.9-5.7-12.5-9.7-32.2-5-52-3-17.9-10.2-33.1-18.1-50.3-6.3-39.9-3.5-86.5 23.3-115.3 22.1-23.5 58.4-40.7 99.2-47z" fill="url(#X)" class="Af"/><linearGradient id="Y" gradientUnits="userSpaceOnUse" x1="292.2225" y1="255.6339" x2="292.2225" y2="287.9976"><stop offset="0" stop-color="#e5895b"/><stop offset="1" stop-color="#fad395"/></linearGradient><g class="Af"><path d="M341.4 222.8l-8.6 10.4c33.8-.9 43.4-4.8 57.4-2.7 4.8 9.3 5.1 18.3 7.1 30.5-44.9 6.4-59.6 9.3-91.3 17.6-9.4 4.8-15.5 9-20.4 13.4-3.7-6.8-5.4-13.8-8-21.5-2.4-7.1-9.6-5.3-10.2.6-.9 10.2-3.2 18.7-6.5 26.3-8.8-6-19.9-8.9-31.7-10.9l-13.3 1.2c-2.9-2.5-5.6-5.3-8-8.8-3-17.9-10.2-33.1-18.1-50.3-1.3-8.4-2.2-17.1-2.6-25.8 3.9-2.1 8.2-3.7 13-4.6 20.4 8.9 37.4 24.5 53.6 41.8 7.8 2.5 14.5.8 21.4-1.1-5.1-6.8-8.8-13.8-10.2-20 7.1 8.1 16.3 13.2 25.3 15l51.1-11.1z" fill="url(#Y)"/><path d="M273.7 419.9c-7.9-6.5-13.9-17.1-23.6-33.1-9-14.8-26.1-31.5-37.2-55.9-5.7-12.5-9.7-32.2-5-52 .2 22 4.5 43.7 12.7 57.7 9.1 15.5 22.7 34.3 30 45.6 12.6 19.5 15.9 27.2 23.1 37.7z" fill="#fbfac4"/><path d="M492.9 208.7c-.5 3.7-1.3 6.8-2.1 10.6l-37 17.4-6.9 12.8-34 19.9 1.7-30.7 78.3-30z" fill="#b26036"/><path d="M192 204.3c.8-28 .1-48 20.3-69.6-12.7 26.7-10.2 41-7.8 69.7l-12.5-.1z" fill="#fbfac4"/><path d="M479.2 292.8l-1 10.4c-.9 8.1-2.4 15.9-4.9 21.7-5.7 13.4-44.9 40.2-58.9 52.6-5.6 5-17.5 14.2-24.7 19.6-.9.9-3.6 4-4.5 5-8.9 9.4-18.8 17.3-28.7 21.7-17.6 7.9-71.5 12.3-86.3.3-9.6-7.9-19.4-23.4-25.8-34.2-11.5-18.9-26.1-29.8-38.2-56.3 15.3 9.9 27.4 12.1 57.5 2.2 9.9 1.2 17.1-.1 30.2-6.3 33.8 1.3 77-10.4 96-21.5 6-3.2 17.2-15.6 24-18 6.3.2 9.9 1.2 15.2 2.9-3.8.4-5.8.7-8.1 1.3 5.3 1.7 9.6 3.8 13.7 13.2 2.7-8.9 3.2-19.4 3-27.9l20-36.4c-6.1 35.8 2.9 64.8 21.5 49.7zm-68.1 9.5c-2 20.7-6.1 37.9-13.1 52.6-2.2 4.8 2.3-21.4-.1-17.3-9.9 30.2-32.2 57.2-41.3 59.8-17.5 5.2-22 3.1-31.8-2.6-5.2.6-16.2 1.8-24 .9 5.1 5.8 2.5 6 12.2 13-10 1.3-21.4 1.6-29.2-4-5.9-6.6-16.6-22-26-34.1 2.2 5 3.3 8.8 6.8 15-11-12.2-25.1-30.2-30.2-35.8 48.4 3.3 146.4-8.5 176.7-47.5z" fill="#a86d54" fill-opacity=".502"/><path d="M444.8 147c-27.5-5.3-45.7-13.5-76.3-13.5-42.8.1-80.6 16.8-118.7 33.3l86.3-108.1c42.4-9.2 69-5 109.7 8 29.5 9.4 35.6 11.4 65.1 15.4-5.7 4.2-12.5 9.6-18.6 13l24.8 3.6c-5.4 3.6-12.5 8.6-18.1 11.3-.1 29.4 1.9 50.4 3.9 79-25.6 28.8-43.2 58.4-65.2 90.4 3.5-31.1-.8-53.4-7.9-83.3-4.8-8.9-9.6-11.4-18.9-15.6 16-6.1 24.9-11.7 37.7-24.2-3-3-7.3-4.5-13-5.4 3.9-1.1 6-2.2 9.2-3.9z" fill="#663010"/><path d="M269 151.4c114-49.3 142.1-9.4 198.8-7-6.2 2.7-11.2 4.3-18.1 6.6 2.8 1.6 4.6 3.5 7 5.9-9.8 7.6-17.6 18.2-33.6 24 5.9 3.5 8.4 6.8 11.9 13.3 5.6 23.5 10.5 50 7.8 68.6 17-24.7 33.3-51.6 54.7-75.7-2-29-3.9-44.2-3.8-76.3-1.6-.5-3.7-1.2-5.8-2.4 5.5-1.8 11.4-4.2 14.5-6.3-9.9-1.4-19.1-2.8-28.4-5.3 9.6-2.7 17.1-6.6 23.3-11.2-53.9-7.3-85.2-37-158.3-21l-70 86.8z" class="Am"/><path d="M269 151.4c99.6-43.1 138.9-24.1 184-17.5 7.1-1.4 12.6-3 19.7-5.5-10.7-.3-15.1-1.7-23-4.1 18.2-3.4 30.4-7 44.1-13.3-1.6-.5-3.7-1.2-5.8-2.4 5.5-1.8 11.4-4.2 14.5-6.3-9.9-1.4-19.1-2.8-28.4-5.3 9.6-2.7 17.1-6.6 23.3-11.2-53.9-7.3-85.2-37-158.3-21L269 151.4zm187.6 5.6c-9.8 7.6-17.6 18.2-33.6 24 21.6 2.4 32.8 1.1 44.6-2.8 3.2-3.6 5-6.3 8.3-10.4-8.1 4-11.9 5.6-21.4 8 15.6-7 30.2-25.8 34.9-34.6-7.6 5.8-19.9 11.4-32.8 15.8z" class="Ao"/></g><linearGradient id="Z" gradientUnits="userSpaceOnUse" x1="-2767.3259" y1="1211.2429" x2="-2841.616" y2="1991.8567" gradientTransform="matrix(7.200000e-02 0 0 -7.200000e-02 607.9549 209.2377)"><stop offset="0" stop-color="#b85a1b"/><stop offset="1" stop-color="#ff9701"/></linearGradient><g class="Af"><path d="M497.1 85.8c-34.9-4.8-60.3-18.9-93.7-23.9-35 14.5-63.1 39.1-86.2 63.9 36-13.9 69.8-18.2 112.3-12.5-13.4-7.6-18.1-8.8-37.2-12.4 28.9-1.4 47.2 3.7 72.3 2.4-9.1-6-14.7-10.6-26.2-17.8 23.3 3.9 38 5.1 58.7.3z" fill="url(#Z)"/><path d="M429 179.5c7.8-.1 16.7-1.4 24.1-4 8.7-7.1 13-12 23.7-22.8-18.1 12.8-30.7 20.6-47.8 26.8z" class="Ap"/><path d="M197.3 111.8c-1.3-20.8.5-41.6 6.7-62 9.2-15.3 22-27.4 34.5-37.5-4.7 11-7.1 24.2-8.7 34.3C255.2 20.3 282.5 8.2 314.3 0c-11.4 17-14 24-20 39.2C330.6 25.8 370.2 26 407.1 30c-18.1 16.4-35 32.8-51.8 52.3l-23 26.7 10.4 8 10.4-2.2 36.6 3c-36.3 2.7-74.1 15.9-105.6 35.4 9.4 1.6 16.3 2.4 25.3 2.5-24.7 8.5-41.8 14.4-71.1 19.1-21.2-3.4-43-19.5-59.8-39.5-4.5-23.3-.7-42.8 5.7-60.3 2.3 15.1 5.5 24.3 13.1 36.8z" class="Am"/><path d="M182.8 132.2c-2.5-11.7-2.7-25.8.4-40 2.8 12 7.3 21 13.4 27.3 3 10.7 7.1 19.6 11.2 28.4-9.1-41.5-6-72.5 1.4-96.6 7.1-10.8 12.5-17.4 20.2-24.8-3 10.9-6 20.9-7.6 29.6-3.7 6.6-5.9 12.8-7.9 19.9 20-33.7 52.3-55.5 88.3-67.8-18.9 29.8-24.8 58-24.2 79.1 4.2-18.3 6.7-28.6 13.3-40.8 26.3-9.9 69-14.5 101.6-12.1-25.5 23.2-49 51.6-60.7 74.6 20.2-1.6 39.1 2.7 57.4 8.8-37.1-2.2-79.9 11.8-121.1 38.7 5.4.8 10.4 1.7 16 2.2-12 3.2-27.6 8-46.2 10.9-20.1-5.2-34-12.6-55.5-37.4z" class="Ao"/></g><linearGradient id="a" gradientUnits="userSpaceOnUse" x1="288.0605" y1="81.2715" x2="288.0605" y2="166.6714"><stop offset="0" stop-color="#ff9701"/><stop offset="1" stop-color="#b85a1b"/></linearGradient><g class="Af"><path d="M393 34.5c-25.5 23.2-49 51.6-60.7 74.6 20.2-1.6 39.1 2.7 57.4 8.8-35.3-2.4-72.9 1.4-115.6 25.3 1.6-26.5 15.6-63.9 29.4-78.3-5.6 15.4-7 22.9-6.6 32 8.8-20 18.4-32.6 31.6-45.6 22.8-8.7 44.5-13.9 64.5-16.8zm-189.5 86.7c-3.1-28.5 0-51.2 5.8-69.8 7.1-10.8 12.5-17.4 20.2-24.8-13.3 16.6-15 33.8-15.5 49.5 20-33.7 52.3-55.5 88.3-67.8-32.7 21.2-44 56.1-48.5 79 7.4-9.9 12.7-15.7 20.2-22.4-.9 30.5-4.4 65.7-9.8 79.8-1.4-17-1.9-26.1-4.3-40.6-.9 19.2-11.6 51.8-21.5 65.7-9.1-17.8-19.3-35.6-24.8-63.1.9 22.8 2.4 36.5 7.1 53-4.5-3.5-13.1-26.5-17.2-38.5zm-20.3-29c2.8 12 7.3 21 13.4 27.3 1.6 5.5 3.4 10.7 5.4 15.4-3.9-3.2-8.1-6.9-11.3-12-.9 3.2-1.3 4.8-1.4 7.5-4-9.7-6.7-19.5-6.1-38.2z" fill="url(#a)"/><path d="M206.6 123.3c-4-30.4-1.9-48.5 6.7-73.7-3.9 23.4-7.8 48.3-6.7 73.7zm94.6-.4c6-4.3 12.3-8.4 20.5-10.8 12.7-2.1 24.4-1.5 36.1-.9-19 1.8-38 4.5-56.6 11.7zm-6.5-.7c4.5-30.2 19.6-50.6 35.1-67.5-16.2 26.2-24.9 41.8-35.1 67.5zm-26.9-9.2c-1.6-14.2-.5-29.4 4.9-44.7-1 15.7-1.5 31.1-4.9 44.7zm-17.8 1.3c-2.1-6.6-4.4-14.1-5.5-21.5 1-17.6 8.4-27.9 17.4-39.9-9.7 19.4-13.9 40-11.9 61.4zm-29.9 9.9c-2.7-8.1-5.8-21.7-7.1-31.1 4.2-17.3 16.3-34.6 32.3-50.9-17.2 27.4-27.1 44.5-25.2 82z" fill="#fde049"/><path d="M246.3 232.3c9.6 11.9 12.7 30.6 10.7 48.2-7.8 8.4-30 12.6-41.1 7.3-8.7-13.7-11.7-37.7-4.4-51.7 7.1-13.6 24.8-16.2 34.8-3.8z" class="Ai"/></g><linearGradient id="b" gradientUnits="userSpaceOnUse" x1="237.0926" y1="273.6029" x2="238.792" y2="289.4636"><stop offset="0" stop-color="#bdd6de"/><stop offset="1" stop-color="#fff"/></linearGradient><g class="Af"><path d="M248 236.9c8.6 10.4 13.5 31.5 11.5 46.9-9.4 4-30.7 5.9-39.2 1.4-7.8-12-10.4-32.5-3.7-44.8 6.5-11.9 22.4-14.3 31.4-3.5z" fill="url(#b)"/><path d="M248 236.9c4.2 5.1 7.6 12.8 9.6 21.2-6.4 16.1-36.6 24.1-44.9-.1-.1-6.5 1.1-12.7 3.8-17.6 6.6-11.9 22.5-14.3 31.5-3.5z" class="An"/><path d="M238.1 241c11-3 20 6.8 22.5 16.3 2.5 9.4-.4 22.4-11.4 25.3-10.9 3-20-6.8-22.5-16.3-2.5-9.4.5-22.4 11.4-25.3z" fill="#022740"/></g><radialGradient id="c" cx="-1483.9491" cy="-5386.6543" r="152.122" gradientTransform="matrix(6.084295e-02 -8.331408e-02 8.331408e-02 6.084295e-02 787.9589 481.0825)" gradientUnits="userSpaceOnUse"><stop offset="0" stop-color="#33b4ff"/><stop offset="1" stop-color="#022740"/></radialGradient><g class="Af"><path d="M259.1 269.4c-1.4 5.7-5.1 10.1-10.2 11.5-5.2 1.4-10.6-.6-14.7-4.8 1.4-5.7 5.1-10.1 10.3-11.4 5.1-1.5 10.5.5 14.6 4.7z" fill="url(#c)"/><path d="M240.4 249.6c5.4-1.4 11.2 2.9 13 9.6s-1.1 13.4-6.5 14.8-11.2-2.9-13-9.6c-1.8-6.8 1.1-13.4 6.5-14.8z" fill="#151720"/><path d="M228.6 249.3c4.9-1.3 9.8 1.4 11.1 6.1 1.2 4.7-1.7 9.5-6.6 10.8-4.8 1.3-9.7-1.4-11-6.1-1.2-4.6 1.7-9.5 6.5-10.8z" class="An"/><path d="M169.8 212.3c3-5.7 15.5-19.2 30-25.3 20.9 7.8 33.1 16.3 43.7 25.8 7.5 11.4 14.3 28.2 14.7 37.8-18.8-12.5-41.2-36.1-61.8-39.8-9.3 3.6-17.2 7.6-26.6 15.1-.7-4.6-2-7.6 0-13.6z" class="Am"/></g><linearGradient id="d" gradientUnits="userSpaceOnUse" x1="-5447.5718" y1="221.6848" x2="-5483.8521" y2="-304.7652" gradientTransform="matrix(7.200000e-02 0 0 -7.200000e-02 607.9549 209.2377)"><stop offset="0" stop-color="#b85a1b"/><stop offset="1" stop-color="#7f3e13"/></linearGradient><g class="Af"><path d="M249.9 233.5c-2.7-6.8-6.2-13.6-9.1-18.3-13.2-10.7-24.3-17.9-40.9-24.3-6.9 3.2-16.5 9.7-22 16 7.3-3.6 13.4-6.3 18.4-7.8 12.6 2.7 28.3 12 33.3 15.7-3.2-.5-5-1.1-8.2-1.4 10.7 7.2 20.1 14 28.5 20.1z" fill="url(#d)"/><path d="M397.6 263c-13.1 2.9-24.5 10.1-32.2 17.6-12.7 4.5-18.8 5.3-28.7 5.8-17.8-8.6-23.1-36.4-12.5-53.1 29.8-6.5 64.5-8 72.7-5.9 7.3 8.5 11.8 27.9.7 35.6z" class="Ai"/></g><linearGradient id="e" gradientUnits="userSpaceOnUse" x1="364.9303" y1="264.814" x2="367.4793" y2="279.825"><stop offset="0" stop-color="#bdd6de"/><stop offset="1" stop-color="#fff"/></linearGradient><g class="Af"><path d="M397.6 263c-11.9 4.1-21.2 9.2-28.9 16.7-13.3 3.1-19.9 3.8-29.3 3-13.9-8.4-17.6-29.7-10-44.1 11.7-6.5 52.8-12 63.5-5.8 7.9 7.6 10.4 21.1 4.7 30.2z" fill="url(#e)"/><path d="M325.6 258c-.5-6.7.7-13.6 3.7-19.4 11.7-6.5 52.8-12 63.5-5.8 3 3 5.3 6.7 6.6 10.8-10.3 17.1-60.3 34.2-72.8 16.3-.4-.6-.7-1.3-1-1.9z" class="An"/><path d="M386.1 230.8c6.3 3.2 10.7 9.1 12.2 15 1.5 5.5.9 12.2-2.3 17.8-8.7 3.1-16.1 6.8-22.4 11.8-10.6-.9-18.4-9.1-20.6-17.5-2.5-9.3 1.1-22.1 12.6-27.4 7.6-.6 15-.6 20.5.3z" fill="#022740"/></g><radialGradient id="f" cx="-167.8805" cy="-5583.2637" r="212.106" gradientTransform="matrix(5.959735e-02 -6.721199e-02 6.721199e-02 5.959735e-02 766.7664 589.4238)" gradientUnits="userSpaceOnUse"><stop offset="0" stop-color="#33b4ff"/><stop offset="1" stop-color="#022740"/></radialGradient><g class="Af"><path d="M395.5 259.3c-.7 2-1.7 3.9-2.9 5.5-6.3 2.4-11.7 5.3-16.6 8.7-4.8.1-9.6-1.6-13.8-5.3 2.2-6.4 7.3-11.5 14.2-13.4 6.9-1.7 14 .2 19.1 4.5z" fill="url(#f)"/><path d="M372.1 238.5c7.2-1.9 14.6 2.5 16.6 9.9 2 7.3-2.2 14.9-9.4 16.8-7.1 1.9-14.6-2.5-16.6-9.9-2.1-7.3 2.2-14.9 9.4-16.8z" fill="#151720"/><path d="M354.7 235.2c5.9-1.6 12 1.9 13.6 7.8 1.6 6-1.9 12-7.8 13.6s-12-1.9-13.5-7.8c-1.6-6 1.8-12.1 7.7-13.6z" class="An"/><path d="M262.7 214.8c6.1 25.6 12.8 29.4 22.4 31.5-8.6-8.6-14.6-16.5-22.4-31.5zm5-4.9c6.3 15.6 13.8 28.7 24.4 34.8 41-4.9 70.1-23.8 120-26.6-4.8-5.2-12.2-7.1-20.4-10.4-33.3-3.7-63.4 8.7-97.6 11.5-9.4.7-18.3-4.1-26.4-9.3z" class="Am"/></g><linearGradient id="g" gradientUnits="userSpaceOnUse" x1="-3820.2842" y1="-33.7528" x2="-3798.2292" y2="-358.5028" gradientTransform="matrix(7.200000e-02 0 0 -7.200000e-02 607.9549 209.2377)"><stop offset="0" stop-color="#b85a1b"/><stop offset="1" stop-color="#7f3e13"/></linearGradient><g class="Af"><path d="M390.8 211.2c-32.3-3.5-63.9 8.9-96.4 11.5-6.7.6-13.1-1.4-19-4.2 7.1 9.6 9.4 12.9 16.4 17.8 11.9-2 26.1-3.7 36.1-7.2-3.5-.3-6.3-1.2-8.8-3.1 25.1-5.2 42.8-12.6 71.7-14.8z" fill="url(#g)"/><path d="M414.7 233.8l95.3-36.4-8.7 12.6-48.1 23.5-6.1 11.1-33.6 16.8z" class="Ai"/><path d="M414.3 239.4l.6 10.9 31.8-14.5 3.1-4.8 6.6-3.1c2.4-1.6 7.8-4 9.9-9l-52 20.5z" class="Ag"/></g><linearGradient id="h" gradientUnits="userSpaceOnUse" x1="291.2086" y1="240.3704" x2="298.8828" y2="294.7285"><stop offset="0" stop-color="#fff"/><stop offset="1" stop-color="#fff" stop-opacity="0"/></linearGradient><g class="Af"><path d="M282.2 257.8c-.2-4.5 2.2-7.3 6.5-8.4 34.5-8.6 80.2-14.6 115.6-13.7 2.8.1 5.4 2 6.4 4.5-63.1 20.2-99.3 50.2-115.1 66-.3-.2-.6-.4-.8-.6-8.2-7.7-12-36.5-12.6-47.8zm-98.7 47.6c-.3-.5-.6-1-.8-1.5-3.7-9.7-6.3-28.7-7.3-39.3-.3-3.1 1.9-5.8 4.9-6.4 23.1-4.8 46.7-7 70.2-4.3 4.5.4 5.6 3.7 6.3 7.6.3 1.8.5 3.6.8 5.4-36.2 10.3-57.4 25.1-74.1 38.5z" fill="url(#h)"/><path d="M242.1 320.3c-15.5 2.2-36.4 2.8-50.3-2.2-6.1-2.2-10.7-5.1-12.6-9.1-5.6-11.5-8.4-33.7-9-43-.1-1-2.2-2.1-3.5-3.1-1.9-1.5-3-8.7-2-11 31.1-8.4 59.4-11.6 87.5-8.1 3.6.5 7 1.9 10.3 3.2 3.7 1.4 9.6.8 13-2.2 5-4.2 8-4.6 13.8-6.1 41.4-10.8 96.2-16.5 135.1-13.8 1 3.7 1.9 9.1 0 12.9-.8 1.7-7.1 3.8-7 5.8.1 11.6 0 22.2-2.3 31-4.2 15.9-18.5 22-33.3 26.6-32.6 10.2-82.7 16.7-91.2 8.8-8.2-7.6-12.7-30.1-14.3-48.2-5-3.1-9.6-3-13.5.9 1.1 8.3 2.3 18.3 1.9 27.8-.5 17.1-4.6 27.2-22.6 29.8zm41.9-62.7c.9 14.8 5.1 40.2 12.1 46.7 7.6 7.1 78.6-5 102-17.9 13-7.2 12.5-26.4 11.4-44.1-.2-2.6-2.6-4.8-5.1-4.9-34.8-.9-80.6 5-115.2 13.6-3.5 1-5.4 3.1-5.2 6.6zm-27 20.1c-.4-5.6-1.2-11.2-1.9-16.1-.6-3.5-1.5-5.8-4.8-6.1-23.1-2.5-46.3-.4-69.6 4.3-1.9.4-3.7 2.1-3.5 4.5 1 10.4 3.7 29.6 7.3 38.9 1.1 2.9 4.1 5.2 8.4 6.9 14.4 5.9 41.8 4.6 55.9 1.1 4.6-1.2 6.9-5.7 8-11.2 1.5-7.7.7-17.3.2-22.3z" class="Ai"/><path d="M173.6 264.6c-.4-4 2.7-6.8 6.3-8.3 12.7-5.2 44.7-10.9 71.9-8.9-28.4-3.5-56.5-.2-83.8 7.3.3 8.7 3.9 5.2 5.6 9.9zm102-7.6c2.7-3.5 5.5-7 12-9.3 30.5-10.9 82.9-16.3 106.1-19.7-34.6.6-73.3 6-103.5 14.3-4.5 1.2-7.5 1.2-10.5 4-3.4 2.9-3.9 6.6-4.1 10.7zm-94.1 47.9c6.9 16.9 46.7 13.4 59.8 10.7 3-.6 5.6-1.2 7.8-2-15.3 3.8-58.8 6.7-67.6-8.7zm134.3 4c20.6-1 70.4-9.1 85.5-21.1-16 9.3-64 19.4-85.5 21.1z" class="Ag"/><path d="M479.3 270.1l-14.5-23.8c-6.2-22.3 17.2-70.5 45.4-71.4 24.6-.7 25.6 44.9 23.6 61.3-2.7 23.5-23.8 53.5-47.4 60.1-10.1 2.9-19.8 0-22.8-9.8l15.7-16.4z" class="Ah"/></g><linearGradient id="i" gradientUnits="userSpaceOnUse" x1="498.3957" y1="243.6401" x2="524.4519" y2="272.3397"><stop offset="0" stop-color="#e5895b"/><stop offset="1" stop-color="#fad395"/></linearGradient><path d="M463.5 286.5c-1.2-14.3-.5-26.6 1.3-40.2 2.3-17.4 19.6-64 45.6-64.8 16.8-.5 19.9 33.3 17.4 54-4.3 35.7-46.6 70.7-64.3 51z" fill="url(#i)" class="Af"/><linearGradient id="j" gradientUnits="userSpaceOnUse" x1="492.6557" y1="209.8809" x2="508.6434" y2="241.8562"><stop offset="0" stop-color="#fad395"/><stop offset="1" stop-color="#e5895b"/></linearGradient><g class="Af"><path d="M470.2 223.2c7.3-20 21.5-44.4 40.2-44.9 12.9-.4 17.7 19.4 18.1 38-10.2 21-30.1 38.2-46.6 38.2-15.7-.1-16.1-19.4-11.7-31.3z" fill="url(#j)"/><path d="M482.3 266.3c9.3-6.4 9.1-24.4-5.9-18.3 1.7-19.8 14.2-47.9 30.8-48.6 13.5-.6 19.8 44.4-13.1 61.3l-11.8 5.6z" class="Ah"/></g><linearGradient id="k" gradientUnits="userSpaceOnUse" x1="481.094932" y1="215.473179952645" x2="515.1905392" y2="258.147905647355"><stop offset="0" stop-color="#c76636"/><stop offset="1" stop-color="#e5895b"/></linearGradient><path d="M482 266.5c17-8.9 8.6-26.2-.9-23 2.9-14.7 12.2-39.7 26.8-40 9.8-.1 10 26.4 7.3 37-5.3 20.4-23.3 32.5-33.2 26z" fill="url(#k)" class="Af"/><linearGradient id="l" gradientUnits="userSpaceOnUse" x1="257.5958" y1="317.1285" x2="257.5958" y2="285.6538"><stop offset="0" stop-color="#fbfac4"/><stop offset="1" stop-color="#fad395"/></linearGradient><g class="Af"><path d="M247.1 320.6c7-7.6 20.4-21.6 20.4-47.4 2.6 16.4-3.2 42.7-15 52.5-2.9-.8-4.5-2.4-5.4-5.1z" fill="url(#l)"/><path d="M247.1 320.6c4.1 4.2 9.5 3.4 14.5 2.1 4.9-1.3 9.4-4 14.2-5.9 4.7 1 7.8 4 10.4 8.4-8.6 4.3-18.1 8.1-27.3 8.8-7.3-.9-13.5-7.9-11.8-13.4z" class="Aj"/></g><g class="Ah"><path d="M240 318c14.1-10.5 25.6-32.3 25.4-52.1 0-3.5 1.3 1 1.4 2.3 3.6 23.1-8.2 43.2-19.8 52.5-.9 4.2 6.4 11.8 11.8 13.3-8.7.4-16.2-5-18.8-16z"/><path d="M385.8 306.3c6-12.7 23.4-28 37.8-22.2-12.9 3.2-28.4 13.4-37.8 22.2z" class="Af"/></g><linearGradient id="m" gradientUnits="userSpaceOnUse" x1="404.748" y1="282.2461" x2="404.748" y2="294.3876"><stop offset="0" stop-color="#fbfac4"/><stop offset="1" stop-color="#fad395"/></linearGradient><g class="Af"><path d="M385.8 306.3c11.8-12.9 23.3-21.5 37.8-22.2-12.9 5-27.3 16.2-37.8 22.2z" fill="url(#m)"/><path d="M355 385.1c-12.9 28.4-65.4 29.6-69.3 7.9l69.3-7.9z" fill="#bd7447"/></g><linearGradient id="n" gradientUnits="userSpaceOnUse" x1="325.6101" y1="401.6136" x2="325.6101" y2="383.8507"><stop offset="0" stop-color="#fbfac4"/><stop offset="1" stop-color="#fad395"/></linearGradient><g class="Af"><path d="M383.1 344.1c-13.6 25.5-23.8 41.7-31.6 47.3-13.7 10-85.9 17.4-83.2-8.1l20.7 1.4 94.1-40.6z" fill="url(#n)"/><path d="M245.7 345c40.3 1.2 74.7-4.9 111.5-14.3 13.1-3.4 29.9-11.2 35.6-19.2-1.1-.4-1.9-.6-4-.7 4.5-4.8 8.6-5.9 14.1-5.8-5.3 1.4-7.6 2.9-8.1 3.6-.5.9 3 1 1.9 2.4-5 7.4-13 15.2-18.4 23.5-14.1 22-25.3 41.8-33 48.4-10.4 9-55.8 14.8-75.6-1.2 2.7-.3 5.3-.1 8 .1-1.6-4.4-3.3-15.4-7-22.5-2.1-4-6.2-7.9-8.8-10.4-5.5-.4-10.2-1.9-16.2-3.9z" class="Ah"/><path d="M269.6 349.8c4.8 5.8 9.7 26.4 12.1 33.1 11.8 9.6 50.8 3.6 60-2.3 9.9-9.3 26.6-41 36.6-53.4-29.7 14.1-75.5 20-108.7 22.6z" fill="#792936"/><path d="M357.8 358.6c-12.5-4.4-63.7 1.2-69.2 27.7 15.9 4.5 45.2-.6 53.1-5.6 4.4-4.2 10.2-12.8 16.1-22.1z" fill="#c93853"/><path d="M310.2 364.5c-10.7 4.6-19.4 11.7-21.5 21.8 15.9 4.5 45.2-.6 53.1-5.6-1-19.2-21.8-21.3-31.6-16.2z" fill="#f25e79"/></g><linearGradient id="o" gradientUnits="userSpaceOnUse" x1="342.4735" y1="361.1841" x2="350.8594" y2="360.522"><stop offset="0" stop-color="#bdd6de"/><stop offset="1" stop-color="#fff"/></linearGradient><path d="M284.2 384.6c14 7.3 48.9 1.7 57.5-3.9 2.2-2 4.5-5 7.2-8.6-1.7-.1-6.6.6-8.4 1.8-1 .6-3 1.4-7.3 2.8-13.8 4.7-40.3 3.9-44.9 1.5-2.8-1.4-.7-3.2 2.2-4.5-5.3 1.2-7.3 2.5-7.5 4.6s1 4.2 1.2 6.3zm-12.7-34.9c3.5 4.1 7.8 8.6 10.1 8.9 18.8 3.2 51.3-2.2 65.4-11.2 1.3-1.7 4.4-6.7 7.2-11.2-26.5 7.6-57.9 11.5-82.7 13.5z" fill="url(#o)" class="Af"/><linearGradient id="p" gradientUnits="userSpaceOnUse" x1="344.5962" y1="364.632" x2="326.059" y2="365.7354"><stop offset="0" stop-color="#bdd6de"/><stop offset="1" stop-color="#fff"/></linearGradient><path d="M341.1 381.1c-.6-2.2-1.4-4.6-2.2-6.6l-5.7 2.1c-13.8 4.7-40.3 3.9-44.9 1.5-2.8-1.4-.7-3.2 2.2-4.5-5.3 1.2-7.3 2.5-7.5 4.6-.1 2.2 1.1 4.2 1.2 6.3 13.7 7.1 47.1 1.9 56.9-3.4zm-66.4-27.9c2.7 2.8 5.3 5.1 6.9 5.4 15.5 2.7 40.2-.6 56.3-6.8 1.4-2.2 2.5-5.6 2.2-8.1-21 5.8-45 8.7-65.4 9.5z" fill="url(#p)" class="Af"/></svg>