<svg xmlns="http://www.w3.org/2000/svg" xmlns:xlink="http://www.w3.org/1999/xlink" viewBox="0 0 404.16 572.15"><style><![CDATA[.B{fill:#9a4c18}.C{fill:#e5895b}.D{fill:#7f3e13}.E{fill:#fff}.F{fill:#b85a1b}.G{fill:#232323}.H{fill:#3c3c3c}.I{fill:#fde049}.J{fill:#fbfac4}]]></style><defs><linearGradient id="A" x1="462.7" y1="-2521.73" x2="462.63" y2="-2521.91" gradientTransform="matrix(-60.75, 16.51, -21.94, -78.17, -27054.9, -204311.94)" xlink:href="#o"><stop offset="0" stop-color="#c63"/><stop offset="1" stop-color="#ff9701"/></linearGradient><linearGradient id="B" x1="458.02" y1="-2525.16" x2="458.21" y2="-2524.74" gradientTransform="matrix(-56.61, 15.39, -15.98, -56.92, -14244.34, -150345.84)" xlink:href="#A"/><linearGradient id="C" x1="553.8699" y1="657.7643" x2="521.452799999997" y2="645.479600000001" xlink:href="#o"><stop offset="0" stop-color="#e5895b"/><stop offset="1" stop-color="#fad395"/></linearGradient><linearGradient id="D" x1="133" y1="537.96" x2="125.66" y2="454.79" xlink:href="#o"><stop offset="0" stop-color="#fad395"/><stop offset="1" stop-color="#e5895b"/></linearGradient><linearGradient id="E" x1="403.42" y1="-2550.26" x2="403.68" y2="-2550.26" gradientTransform="matrix(119.02, 4.16, 4.98, -142.48, -35057.68, -364598.83)" xlink:href="#o"><stop offset="0" stop-color="#ccc"/><stop offset="1" stop-color="#fff"/></linearGradient><linearGradient id="F" x1="371.61" y1="-2577.89" x2="371.97" y2="-2577.84" gradientTransform="matrix(94.26, 3.29, 2.86, -81.74, -27423.44, -211462.26)" xlink:href="#o"><stop offset="0" stop-color="#fff"/><stop offset="1" stop-color="#ccc"/></linearGradient><linearGradient id="G" x1="204.008153753837" y1="406.240530083795" x2="202.069913481017" y2="414.947402349128" xlink:href="#o"><stop offset="0" stop-color="#d0d0d0"/><stop offset="1" stop-color="#fff"/></linearGradient><linearGradient id="H" x1="194.8508" y1="410.7592" x2="205.5808" y2="410.9738" xlink:href="#G"/><linearGradient id="I" x1="260.84" y1="117.86" x2="187.24" y2="126.55" gradientTransform="matrix(-0.99, 0.14, 0.14, 0.99, 487.41, 54.96)" xlink:href="#D"/><linearGradient id="J" x1="303.8444" y1="46.6408" x2="297.3412" y2="1.1184" xlink:href="#o"><stop offset="0" stop-color="#b85a1b"/><stop offset="1" stop-color="#ff9701"/></linearGradient><linearGradient id="K" x1="212.1365" y1="12.2505" x2="222.6736" y2="54.0752" xlink:href="#o"><stop offset="0" stop-color="#ff9701"/><stop offset="1" stop-color="#b85a1b"/></linearGradient><linearGradient id="L" x1="135.56" y1="154.73" x2="128.94" y2="172.51" gradientTransform="matrix(-0.99, 0.14, 0.14, 0.99, 487.41, 54.96)" xlink:href="#C"/><linearGradient id="M" x1="513.41" y1="-2579.76" x2="513.33" y2="-2580.5" gradientTransform="matrix(-44.95, 6.4, -6.38, -44.81, 6994.79, -118703.39)" xlink:href="#D"/><linearGradient id="N" x1="508.41" y1="-2590.18" x2="508.03" y2="-2590.99" gradientTransform="matrix(-30.58, 4.35, -5.5, -38.68, 1652.46, -102204.93)" xlink:href="#o"><stop offset="0" stop-color="#c76636"/><stop offset="1" stop-color="#e5895b"/></linearGradient><linearGradient id="O" x1="162.96" y1="326.03" x2="393.78" y2="294.02" xlink:href="#D"/><linearGradient id="P" x1="5179.52" y1="-701.49" x2="5153.65" y2="-698.44" gradientTransform="matrix(-1, 0.07, 0.08, 1.11, 5378.66, 592.17)" xlink:href="#C"/><radialGradient id="Q" cx="5057" cy="-11.59" r="18.02" gradientTransform="matrix(-1.02, 0.12, 0.12, 1, 5407.96, -337.07)" xlink:href="#o"><stop offset="0" stop-color="#33b4ff"/><stop offset="1" stop-color="#022740"/></radialGradient><radialGradient id="R" cx="5019.77" cy="-248.81" r="10.29" gradientTransform="matrix(-1.18, 0.14, 0.14, 1.21, 6124.99, -151.54)" xlink:href="#Q"/><linearGradient id="S" x1="3720.29" y1="6079.57" x2="3758.38" y2="6101.38" gradientTransform="matrix(-0.92, -0.14, -0.14, 0.99, 4469.13, -5355.59)" xlink:href="#o"><stop offset="0" stop-color="#b85a1b"/><stop offset="1" stop-color="#7f3e13"/></linearGradient><linearGradient id="T" x1="216.066900000001" y1="138.8763" x2="299.1665" y2="146.8757" xlink:href="#S"/><linearGradient id="U" x1="2054.26" y1="-812" x2="2059.08" y2="-725.3" gradientTransform="matrix(-0.99, 0.11, 0.11, 0.99, 2337.24, 750.27)" xlink:href="#o"><stop offset="0" stop-color="#fff"/><stop offset="1" stop-color="#fff" stop-opacity="0"/></linearGradient><linearGradient id="V" x1="1995.17" y1="-662.47" x2="1989.51" y2="-690.38" gradientTransform="matrix(-0.99, 0.11, 0.11, 0.99, 2260.25, 788.77)" xlink:href="#o"><stop offset="0" stop-color="#fbfac4"/><stop offset="1" stop-color="#fad395"/></linearGradient><linearGradient id="W" x1="540.49" y1="-2610.82" x2="540.37" y2="-2610.81" gradientTransform="matrix(-73.94, 8.03, -2.37, -21.79, 34026.14, -60923.64)" xlink:href="#o"><stop offset="0" stop-color="#bdd6de"/><stop offset="1" stop-color="#fff"/></linearGradient><linearGradient id="X" x1="547.92" y1="-2634.67" x2="547.58" y2="-2634.72" gradientTransform="matrix(-51.04, 5.54, -1.9, -17.53, 23165.78, -48915.07)" xlink:href="#o"><stop offset="0" stop-color="#fff"/><stop offset="1" stop-color="#bdd6de"/></linearGradient><linearGradient id="Y" x1="457.03" y1="-2618.58" x2="456.96" y2="-2618.76" gradientTransform="matrix(40.44, 54.28, 62.95, -46.9, 146633.05, -147185.03)" xlink:href="#A"/><linearGradient id="Z" x1="451.95" y1="-2658.17" x2="452.14" y2="-2657.75" gradientTransform="matrix(37.68, 50.58, 45.84, -34.16, 105093.78, -113216.71)" xlink:href="#A"/><linearGradient id="a" x1="261.65" y1="472.66" x2="311.55" y2="555.65" xlink:href="#D"/><linearGradient id="b" x1="203.74" y1="485.8" x2="247.29" y2="582.29" xlink:href="#D"/><linearGradient id="c" x1="6194.07" y1="-20373.76" x2="6186.73" y2="-20456.94" gradientTransform="matrix(-1.3, 0.18, 0.1, -0.78, 10159.8, -16551.17)" xlink:href="#D"/><linearGradient id="d" x1="1151.17" y1="-2060.77" x2="1151.33" y2="-2060.16" gradientTransform="matrix(-4.62, 22.57, -20.59, -4.22, -37069.81, -34215.98)" xlink:href="#C"/><linearGradient id="e" x1="504.9" y1="-2566.53" x2="505.01" y2="-2566.24" gradientTransform="matrix(56.52, -32.43, -23.62, -41.17, -88977.67, -88792.71)" xlink:href="#C"/><linearGradient id="f" x1="504.63" y1="-2566.31" x2="504.75" y2="-2565.98" gradientTransform="matrix(56.52, -32.43, -23.62, -41.17, -88977.67, -88792.71)" xlink:href="#C"/><linearGradient id="g" x1="128.41" y1="476.55" x2="156.19" y2="464.71" xlink:href="#C"/><linearGradient id="h" x1="137.12" y1="520.3" x2="161.63" y2="555.64" xlink:href="#C"/><linearGradient id="i" x1="119.88" y1="472.54" x2="119.53" y2="447.21" xlink:href="#C"/><linearGradient id="j" x1="88.14" y1="439.05" x2="60.02" y2="501.68" xlink:href="#o"><stop offset="0" stop-color="#787878"/><stop offset="1" stop-color="#3c3c3c"/></linearGradient><radialGradient id="k" cx="539.15" cy="-2551.76" r=".18" gradientTransform="matrix(66.09, -19.89, 11.11, -67.7, -7238.6, -161566.86)" xlink:href="#o"><stop offset="0" stop-color="#fde049"/><stop offset="1" stop-color="#ff9701"/></radialGradient><linearGradient id="l" x1="38.405928745425" y1="517.806387185726" x2="33.516180311593" y2="533.189422005093" xlink:href="#C"/><linearGradient id="m" x1="32.372370960879" y1="496.501411699692" x2="26.331917714288" y2="515.535867945556" xlink:href="#C"/><linearGradient id="n" x1="25.905179206508" y1="468.41631367935" x2="19.571774365229" y2="488.350035938789" xlink:href="#C"/><linearGradient id="o" gradientUnits="userSpaceOnUse"/></defs><path d="M133.8 402.2a147.1 147.1 0 0 1-16.93 17.87l-.8 1.06c-12.28 21.42 25.25 71.64 56.9 49.95l1.3-1.56c5.05-9.75 4.73-11.8 10.86-19.27a15.9 15.9 0 0 0 3.73-9.82l-8.52-25.08c4.35-22.05.3-53.22-20-42.45-22.3 11.8-26 20.1-26.6 29.25z" class="D"/><path d="M162.1 376.27c17.6-3.94 27.32 23 26.3 63.73-9.63 9.5-11.4 15.56-17.57 27.58a25.46 25.46 0 0 1-11.26 4.42c5.25-2.18 8.38-4.88 9.53-8.18 7.57-20.6-47.32-56.14-51.1-29.95-.52-4.1 0-7.8 1.6-10.62a160.42 160.42 0 0 0 15.75-16.43c.56 3.7 1.94 6.14 4 9.57-3.8-14.46 14.53-32 22.76-40.12z" fill="url(#A)"/><path d="M164.5 374.65c10.53-2.6 16.83 6.82 20.55 22.5 2.8 11.8 3.2 16.16-3.32 26.64-5.33 8.58-10.17 12.8-16.16 19.85-10.58-14.05-37.5-29.52-47.12-17.87a15 15 0 0 1 1.09-2.61 160.25 160.25 0 0 0 15.75-16.42c.56 3.68 1.94 6.13 4 9.57-3.78-14.46-1.94-21.82 6.28-29.92-.03 0 9.42-9.4 18.93-11.74z" fill="url(#B)"/><path d="M174.6 401.1c-11.28 9.2-22.87 16-35.37 15.3a42.69 42.69 0 0 1-1.29-15.4c3.42 8.8 16.4 6.4 36.66.1z" fill="#de7721"/><path d="M176.44 457.3a5.75 5.75 0 0 1-1.4 2.41c1.9-21.3-37.44-48.6-52.9-38.9a9.9 9.9 0 0 1 2.92-2.83c17.35-4.8 50.4 18.83 51.47 39.3z" class="F"/><path d="M259.1 339.5c3.85-8.1 5.38-9.4 10.9-15.84l-88.6 15.6c5.08 9.6 8.82 20.63 8.72 29.33 12.24 11.77 15.38 14.83 30.43 22.12 26.85-8 34.36-17.8 36.66-22.85.2-9.4.75-18.95 1.9-28.37z" class="B"/><path d="M263 325.24c-4.25 5-5.84 8.4-8 13-1.22 9.78-1.76 20.2-2 29.53-9.06 9.18-23.94 16.2-33.08 19-11-8.15-14.35-10.15-19.13-14.24a21.09 21.09 0 0 1-6.9-12.11 39.55 39.55 0 0 0-2.45-7.66 33.72 33.72 0 0 0 18.25 12.14c-10.07-5.84-15.32-16.3-20.83-26.54L263 325.23z" class="C"/><path d="M195 362.15c0-5.53-1.9-4.82-3.67-9.4 5.27 7 12.5 4.36 17.83 5.76 2.12 1 6.1-.42 8.17.17 10.3-5.95 18.76-4.34 28.38-17a191.42 191.42 0 0 1-.24 24.79c-2.05 5.82-14.56 7.1-24.72 10.6 0 .02-15.96-5.64-25.75-14.93z" fill="url(#C)"/><path d="M98.2 507.5s15.66-57.34 19.66-67.34c0 0 1.34-11.66 17-6s24 16 26 27-12.66 43-14 48.67-14.66 28.67-32.66 27.67-19.67-20-16-30z" fill="url(#D)"/><path d="M163.9 488.16c-4.3-22.2-8.53-39.47-11.7-53.05a106.92 106.92 0 0 1 4.46-17.23 23.44 23.44 0 0 1 1.79-15.59c-.6 5.5-.68 7.67 0 11.1a55.62 55.62 0 0 1 5.86-11.33l3.46-12.55.62-13.35L167 372a76.54 76.54 0 0 0 13.76-8.07 45.23 45.23 0 0 1 6.72-6.83c6.53 11.5 13.34 22 21.88 26.23 17.37-2.52 36.44-10.6 48.08-23.12 2.24.87 1.4.7 3.37 2.34 12.1 3.85 39.48 21.82 51.88 24l-16 5.24-14.57 20.2 11.4 34.33 2 4.36c-3.17 4-8.73 11.4-9.4 13.3-1.94 12.6-1.4 21.45-.06 34.35a68.63 68.63 0 0 1 7 17.13c-17.36 12.56-30.8 18.3-51.22 24.1-35.4 2.13-62-5.83-86.35-16.94a35.76 35.76 0 0 1 3.92-11.13c2.32-6.4 3.33-11.25 4.33-23.45z" fill="#4b4b4b"/><path d="M168.34 376.25a128.07 128.07 0 0 0 15-8.73 18.79 18.79 0 0 1 3.66-3.71c5.1 8.93 13 19.8 21.38 23.68 17.54-2.7 36.27-9.85 48.14-21.92 1.9.76 1-.08 2.46 1.2 12.76 4.13 24.64 19 36.8 21.2l-2.3 58.54c-9 11-15.7 20.94-19.17 33.66 2.57-3.75 4-6.4 6.47-9.3-1.15 11.5.38 21.08 1.3 29.07a63.59 63.59 0 0 1 6.2 13.86c-15.13 11-30.16 16.74-47.44 21.62-27.62 1.7-52.35-2.5-80.25-15.23a30.29 30.29 0 0 1 2.46-7.87c2.5-8.82 4-16.3 3.87-24.77-2.67-15.92-5.7-28.8-11.43-53.65a192.47 192.47 0 0 1 8.66-31.77c-.27-9.37.7-18.6 4.08-25.9z" fill="url(#E)"/><path d="M168.34 376.25a147.45 147.45 0 0 0 15-8.73 18.79 18.79 0 0 1 3.66-3.71c5.1 8.93 13 19.8 21.38 23.68 17.54-2.7 36.18-10.35 48.06-22.42 1.9.68 1.07.33 2.54 1.7 12.76 4.13 38.72 20 50.87 22.2-.08 2.62-13.16 5.13-13.25 7.75l-17.47 25.06c-9.35 12.33-24.44 24.8-37.16 29.5-22.9-5.9-41.94-8.7-64.48-5.4a60.08 60.08 0 0 1-21.81-13.2 188.35 188.35 0 0 1 8.45-30.55c-.44-7 .67-19.82 4.08-25.9z" class="E"/><path d="M179.34 465.12c17.92-4 38.9-3.93 57.4 7.32 10-2.87 18.64-7.54 27-13.27.12 6.65.72 11.4.83 18.13l-6.72 9.28.63 21.36c-6.67 12.6-13.7 21.1-24.3 28-25 .67-47.92-3.83-73.5-15.5a29.89 29.89 0 0 1 2.45-7.87c2.6-9.26 3.88-15 3.87-24.77-2.66-15.92-5.7-28.8-11.42-53.65 7.1 14.68 10.7 20 23.73 31.2z" fill="url(#F)"/><path d="M286.22 508.07a1.54 1.54 0 0 1 .54 1.41c-11 7.4-32.66 18.58-45.72 21-28.82 1.93-52.75-3.3-79.27-14.5a1.32 1.32 0 0 1 .56-1.38c26.26 11.1 50 16.24 78.6 14.4 14.44-3.25 31-11.57 45.3-20.92zM182.6 368a4 4 0 0 1 1.12-.92 83.26 83.26 0 0 0 10.61 15.51 49.3 49.3 0 0 0 12.8 10.52A80.63 80.63 0 0 0 236 383.6a113.12 113.12 0 0 0 22.83-17 3.91 3.91 0 0 1 1.49.58 110.88 110.88 0 0 1-23.61 17.76 82.49 82.49 0 0 1-29.58 9.69l-.42-.1a50.66 50.66 0 0 1-13.37-11 84.08 84.08 0 0 1-10.69-15.6z" fill="#999"/><path d="M169.17 415.7h12.88q-.3 2.76-.72 5.52l-13.54.1 3.26-2.9z" fill="#4b4b4b"/><path d="M173.45 417.45l-.5 2.28c-.12.54-.34.46-.6.53s-.3 0-.53 0l.66-2.84H172a.29.29 0 0 1-.28-.4l.1-.45h2.35c.33 0 .33.15.3.42a.46.46 0 0 1-.45.42h-.5zm5.14 2.8c.2-.1.4-.22.45-.4a4.14 4.14 0 0 0 .07-.45h-1l.1-.53h.57a.47.47 0 0 0 .42-.41c0-.2 0-.26.07-.44h-.92c0-.17.06-.34.08-.52h.65a.44.44 0 0 0 .42-.39c0-.2 0-.26.06-.44h-1.9l-.6 3.6h1.53c.2 0 .03-.01.03-.01zm-1.27-3.64l-.1.55-.45 2.58a.53.53 0 0 1-.56.47c-.3 0-.45-.14-.4-.46l.18-.93h-.67c0 .32-.13.62-.2.94a.6.6 0 0 1-.58.48 4.33 4.33 0 0 0-.53 0c.08-.33 0-.1.13-.57s.45-2.1.54-2.56 0-.23.1-.55a4 4 0 0 0 .5 0c.23 0 .44.14.38.45l-.18.9h.65l.16-.9a.53.53 0 0 1 .53-.44 3.88 3.88 0 0 0 .49.03z" class="E"/><path d="M235.5 410.83c0-.4-.12-.8-.1-1.2s.16-.86.2-1.28h2.36a3 3 0 0 1 2 .74l5.08.37c.73.06.2 0 .22 0a6 6 0 0 1 3.51 2.33v-1.55l.42-1.25 7.76 1.1c0 .77.1 1.53.14 2.3a4.24 4.24 0 0 1-.49 2h.32c0 .7.13 1.74.15 2.35a4.36 4.36 0 0 1-.55 2.18c.33 0 .66.08 1 .14 0 .74.12 1.77.15 2.44a2.81 2.81 0 0 1-.27 1.56 5 5 0 0 1-.76 1.37 1.46 1.46 0 0 1-1.46.48l-6-.82v-1.46a4.19 4.19 0 0 1-3.19 2.1s.45.05-.32 0l-5.28-.33c-.13-.7-.1-1.4-.15-2.1-3 2.22-6.45 1.9-8.58-1.4a5.24 5.24 0 0 1-3.23 3.08s.46-.05-.33.06l-5.45.77c-.2-1.1-.26-2.2-.4-3.3-.1.87 0 1.64-.75 2.26a2.5 2.5 0 0 1-3.49-.08c-.1-.07 0 0-.32-.38l-1.82-2.46c-.05 1.23.06 2.36-.88 3.28a2.43 2.43 0 0 1-1.61.66l-2.45.23c0-.1 0-.23-.06-.34a2.13 2.13 0 0 1-3.18-.41 14.14 14.14 0 0 1-.92-1.4c-.3 1.7-1 2.62-2.6 2.94-.72.14-1.74.2-2.5.33l-.35-1.17c-.12-.4 0-.87.05-1.3-1.58 1.8-3.13 3.08-5.52 3.27a5.35 5.35 0 0 1-5.48-3.15 14.51 14.51 0 0 1-.83-1.94 4.72 4.72 0 0 1-3.1 1.56h-.68a14.3 14.3 0 0 1-.29 2.15 3 3 0 0 1-2.86 2.26c-.78.08-1.8 0-2.63.07l-.65-1.24c.87-4.87 1.62-9.75 2.14-14.7 1.83 0 4-.15 5.76-.18s2.44.8 3.24 2.28c.06.1.06.24.13.33a8.27 8.27 0 0 1 5.85-3.8 5.55 5.55 0 0 1 5.34 2.26c0-.84.05-1.7.1-2.54 1.8-.17 4.22-.5 5.86-.6s2.1.46 3.14 1.5v-1.76c.82 0 1.58-.15 2.42-.17a2.45 2.45 0 0 1 2.11 1l1.76 2.24v-.93c.16-1.66.84-2.4 2.4-2.53.66-.06 1.64 0 2.36-.06v.1c1.43-.16 3.3-.48 4.65-.5 1.85 0 2.77.75 4 2a9 9 0 0 1-.07-.93c0-.37.1-.88.13-1.28.7 0 1.67-.08 2.34-.06 1.56.06 2.28.83 2.6 2.4h0s-.1.1-.1.08z" class="D"/><path d="M255.6 422.42c.85.53 1.1-.56 1.1-1.36l-.07-1.4-3.3-.46-.07-1.8 1.8.24c.88 0 1.08-.37 1.1-1.28 0-.34-.07-1-.08-1.38l-2.93-.4-.08-1.68 2.1.28c.74.05 1.06-.33 1-1.2 0-.33-.06-.94-.07-1.3l-6.12-.9.46 11.95 5 .7c.83.1 0 0 .16 0s.02.03.02.03zm-27.5-1c-1.38.35-3.28.44-4.75.66l-1.36-12.28 4.57-.5c2 0 3 1.06 3.95 2.76a8.1 8.1 0 0 1 .75 5.51c-.48 2-1.14 3.35-3.16 3.85zm.4-6.47c-.24-1.77-.85-3.16-2.62-3.2-.17 0-.38.06-.55.07l.88 7.22a5.32 5.32 0 0 0 .56-.06c1.77-.54 1.97-2.24 1.73-3.97zm12 2.57a2.66 2.66 0 0 1-1 2.69 4.15 4.15 0 0 1-2.79 1 4.61 4.61 0 0 1-3-.79 3.07 3.07 0 0 1-1.5-2.63l-.75-8.64c.43 0 1.1-.08 1.5 0 1 .1 1.5.3 1.65 1.5l.65 6.58c.1.85.5 1.06 1.15 1s1-.2.94-1.1l-.8-8.08c.4 0 1.1-.06 1.47 0 1 .1 1.53.3 1.7 1.5l.82 6.98zm5.56 4.66l-4.67-.3-.63-12.1 4.47.34c2 .37 2.85 1.64 3.67 3.4a9 9 0 0 1 .68 2.76 6.79 6.79 0 0 1-.28 2.73c-.63 1.33-3.05 2.1-3.2 3s0 0 0 .2-.03-.01-.03-.01zm.74-6.22c2.1-.9-1.4-3.3-2.38-3.62h-.52q.2 3.58.43 7.17a3.44 3.44 0 0 0 .54 0c1 .06 1.52-3 1.84-3.43s0 0 .08-.1.02.02.02.02z" class="I"/><path d="M188.7 413.37c-.63.4-.93-.56-1.7-.54l-4.88.15c-.47 4.15-1 8.27-1.7 12.4h1.5a1.81 1.81 0 0 0 1.89-1.76c.13-.73.2-1.8.33-2.6.47 0 1.14 0 1.58-.05a3.53 3.53 0 0 0 2.59-1.39 5.77 5.77 0 0 0 1.22-3 4.22 4.22 0 0 0-.57-2.81c-.1-.16-.34-.2-.3-.4.01-.02.03-.01.02 0zm29.2 1.83v-.05l.1.15c0-1.2-.07-2.56 0-3.7s.53-1.42 1.52-1.53c.34-.05 1 0 1.37 0l.22 10.28c0 1.36-.56 1.52-1.53 1.72a1.52 1.52 0 0 1-1.12-.36.52.52 0 0 1-.16-.19l-3.56-4.72s0 .05 0 0l-.1-.14v3.93c0 1.22-.53 1.6-1.6 1.8-.36.07-1 .06-1.43.13l.1-12.1c.44-.05 1.1-.07 1.5-.1a1.7 1.7 0 0 1 1.07.26c.2.15.14.16.23.28 1.1 1.5 2.27 2.92 3.42 4.36h0zm-9 2.16c.38.67 1 1.55 1.36 2.1a2.35 2.35 0 0 1 .55 1.45 1.81 1.81 0 0 1-.57 1.26 1.87 1.87 0 0 1-1.14.64 1.09 1.09 0 0 1-.82-.3 1.15 1.15 0 0 1-.33-.37c-.84-1.2-1.63-2.5-2.42-3.74v.06a.69.69 0 0 1-.1-.17c-.07 1.1 0 2.1-.1 3.2a1.8 1.8 0 0 1-1.67 1.86c-.37.07-1 .13-1.47.2l.43-12.32 1.64-.18 3.38-.34a2.42 2.42 0 0 1 1.76.48c.15.1.2.24.3.33a3.88 3.88 0 0 1 .82 2.28c.06 1.2-1.28 2.9-1.54 3.4s-.1.16-.08.17zm-3.35-4.17c0 .92 0 1.84-.08 2.76h.12c.03 0 0 .1 0 .1.24 0 .66-.06.9-.1a1.43 1.43 0 0 0 1.36-1.5 1.22 1.22 0 0 0-.39-1.08 1.24 1.24 0 0 0-1-.27c-.34 0-.6.07-.9.1zm-19.9 2a1.15 1.15 0 0 1 1 .34 1.28 1.28 0 0 1 .28 1.13c-.13.88-.54 1.4-1.44 1.45h-.87v-.1c0-.02-.08 0-.1 0l.3-2.8h.88z" fill="url(#G)"/><path d="M196.28 411.78c3.2-.34 5.42 2 5.3 5.55s-2.7 6.85-6 7.22-5.6-2.37-5.34-5.9 2.83-6.53 6.05-6.86z" class="F"/><path d="M196.26 412.1c3.05-.32 5.13 1.9 5 5.26s-2.55 6.5-5.7 6.84-5.3-2.23-5.06-5.58 2.7-6.2 5.75-6.52z" fill="url(#H)"/><path d="M192.84 421.8c.53-.9-.56-2.1-.34-3 .86-3.27 6-5 6.77-.85.2 1-.4 2.17-.66 3.14a.29.29 0 0 1-.08.13c-1.6 1.67-3.8 2.34-5.63.66a.41.41 0 0 1-.06-.11z" class="B"/><path d="M193.2 421.65a3.24 3.24 0 0 1-.41-2.84c.8-2.93 5.5-4.5 6.2-.78.18 1-.46 2.06-.66 3-1.1 1.54-4 .9-4.93.68-.74-.2-.18-.05-.2-.06z" fill="#fad395"/><g class="D"><path d="M192.45 419.37l.73-.07a7.07 7.07 0 0 1 .11-1.18c.07-.24.4-.23.42-.3s-.42-.24-.35-.34a.61.61 0 0 1 .46-.19 4.61 4.61 0 0 1 1.58.37l-.76.14c.44 0 .83.23 1.3.13a7.48 7.48 0 0 0 2.57-1.38c0 .12.13.18.08.32s-.3.33-.43.4c.12.12.33 0 .4.22a6.35 6.35 0 0 1 0 1.15c.24 0 .5-.07.75-.1a10.23 10.23 0 0 1 .11-1.56c0-.1.2-.4.16-.48s-.36.2-.35.1.27-.17.3-.4a7.34 7.34 0 0 0 .11-1c-.2.16-.54.6-.75.6s.2-.38.13-.56a5.74 5.74 0 0 0-.43-.86 4.85 4.85 0 0 1-.15.74 5.21 5.21 0 0 0-.48-.94 4.57 4.57 0 0 0-1-.67 6.5 6.5 0 0 1 .66 1.22c-.3-.18-.33-.67-.68-.76a9.82 9.82 0 0 0-2.71 0 7.42 7.42 0 0 1 1.08 1.22c-.3-.1-.38-.24-.76-.2a6.57 6.57 0 0 0-1.4.5 3.16 3.16 0 0 1 .91.59 6.46 6.46 0 0 0-1.66.78c.1 0 .37.12.4.2s-.27 0-.26.07c0 .72.36 1.6-.05 2.26-.06.01-.07-.01-.06-.01z"/><path d="M193.27 417.8c0-.1-.24-.35-.26-.42s0 0 0 0a2.35 2.35 0 0 1 .65-.33 3.51 3.51 0 0 1 2.19.52c.05 0 .06-.12 0-.18a3.94 3.94 0 0 0-.62-1.09 3.8 3.8 0 0 1 .84 1c0 .07-.08.26 0 .2a1 1 0 0 0 .3-.53 8.9 8.9 0 0 0-.12-1.39 4.21 4.21 0 0 1 .34 1.43c0 .15-.2.33-.16.33a1 1 0 0 0 .39-.36 6.57 6.57 0 0 0 .13-1.26 4.43 4.43 0 0 1 0 1.36c0 .13-.2.16-.23.27a8.1 8.1 0 0 0 1.62-1 1.09 1.09 0 0 0 .22-.38 2.43 2.43 0 0 0 .2-.63c0-.15-.08-.16-.1-.28l-.23.77-.64-1.45c0-.08-.28-.27-.27-.22s.18.6.27.84a3.44 3.44 0 0 1 .24.68c-.45-.45-.7-1.16-1.3-1.43s-1.4 0-2-.1a12.27 12.27 0 0 1 1.25 1.77 4.25 4.25 0 0 0-1.54-.71 3 3 0 0 0-.77.26 5 5 0 0 1 .75.64c-.27.05-.62.23-.86.3s-.65.13-.7.33.1.14.18.2.44-.18.47-.14-.2.14-.27.24-.5.08-.52.3c-.1.48 0 1.2-.07 1.75h.28a2 2 0 0 1 .13-1.1c.06-.1.2-.1.2-.2zm6.1-1.07c-.16-.1-.42.1-.53.17a1.22 1.22 0 0 0-.2.27c0 .06.13.1.13.16 0 .28-.14 1 0 1.2s.22.17.36 0a3.74 3.74 0 0 0 .06-1.35c0-.06-.3.1-.27.07a2.36 2.36 0 0 0 .47-.48zm-.58 0a1.29 1.29 0 0 0 .51-.5c.06-.12.1-.38.05-.37a4.78 4.78 0 0 0-.59.35c-.1.05-.07.1-.1.16a.76.76 0 0 0 .11.35z"/><path d="M195.86 417.56s.06-.12 0-.2a4.3 4.3 0 0 0-.63-1.1 3.84 3.84 0 0 1 .84 1c0 .07-.08.26 0 .2a1 1 0 0 0 .3-.53 8.9 8.9 0 0 0-.12-1.39 4.21 4.21 0 0 1 .34 1.43c0 .15-.2.33-.16.33a1 1 0 0 0 .39-.36 6.59 6.59 0 0 0 .13-1.27 4.51 4.51 0 0 1 0 1.37c0 .13-.2.16-.23.27a6.45 6.45 0 0 0 1.26-.75c.16-.14.17-.5.28-.68-.08 0-.26.4-.32.37s.17-.47.05-.6c-.4-.46-.7-1.16-1.27-1.44s-1.4 0-2-.1a12.27 12.27 0 0 1 1.25 1.77 4.25 4.25 0 0 0-1.54-.71 3 3 0 0 0-.77.26 3.73 3.73 0 0 1 1.55 1.13 2.21 2.21 0 0 0-.81 0c.54.23.83.9 1.42.95.04.05.04.06.04.03z"/></g><path d="M195.88 419.12a.55.55 0 0 0-.46-.14 13.93 13.93 0 0 0-3.7.31c-.2 0-.1.53 0 .6s.17.06.18.1l.16 1c.08.28.1.45.37.57a4.45 4.45 0 0 0 2.08.32.86.86 0 0 0 .77-.47 7.22 7.22 0 0 0 .33-1.27c.08-.3.34-.36.4-.05a3.43 3.43 0 0 0 .21 1.21c.2.3.27.36.78.3a5.75 5.75 0 0 0 2.09-.81 1.21 1.21 0 0 0 .42-.67l.25-1.08c0-.06.1-.1.18-.15s.26-.6.07-.6a12.56 12.56 0 0 0-3.66.58c-.13 0-.4.42-.45.27s0 0 0 0l-.02-.02z" class="G"/><path d="M191.84 419.46c-.12 0-.08.17 0 .15a22.75 22.75 0 0 1 3.45-.43 30.54 30.54 0 0 0-3.33.27zm8-1c.12 0 .06.15 0 .15a22.69 22.69 0 0 0-3.4.39c.8-.22 2.75-.45 3.3-.53s.1.01.12.02z" class="H"/><path d="M192.16 419.9c-.27.2.06.62.1.88s.12.5.34.6a4.47 4.47 0 0 0 1.92.22.58.58 0 0 0 .54-.31 7 7 0 0 0 .32-1.38c0-.27 0-.27-.17-.3a9.61 9.61 0 0 0-2.93.14c-.1 0-.06.12-.13.15s0-.01 0-.01zm7.34-.9c.26.23-.13.67-.2.94a1.14 1.14 0 0 1-.4.69 5.65 5.65 0 0 1-2 .68c-.18 0-.4.07-.5-.2a4.67 4.67 0 0 1-.17-1.33c0-.27 0-.26.2-.33a10.07 10.07 0 0 1 2.92-.56c.08 0 0 .1.1.12s.04-.03.05-.03z" fill="#ccc"/><path d="M107.67 129.68a74.52 74.52 0 0 1-7.66-10.1c-3.26-14.7-2.9-26.65.68-40.87 10 13.37 19.83 24.6 36.36 31.1l4.4 1.72-15.37 34.67c-15.3-2.88-16.47-4.16-27.7-14.65l8.42-1.74a3.61 3.61 0 0 0 1-.22z" class="D"/><path d="M135.4 114c-10.6-4.1-20.4-10.82-32.14-24.3a85.44 85.44 0 0 0 .94 28.19 63.37 63.37 0 0 0 12 13.82 33.92 33.92 0 0 1-8.56 2.57c5.2 4.94 9.85 5.82 15.7 7l12-27.15z" class="F"/><path d="M135.4 114c-10.6-4.1-20.4-10.82-32.14-24.3 2.16 8.9 5.9 18 12.38 24.85a43.09 43.09 0 0 1-6.95-1.9 61.85 61.85 0 0 0 19.06 18.58z" fill="#ff9626"/><path d="M353.82 241.44c-2.1 12.57-4.94 31.92-10.85 42.32-4.84 8.45-34.72 41.9-52.7 53 0 0-36.9 22.93-52.7 27.9-15.2 4.78-64.16 5-75.15-6.38-7.2-7.45-13.93-29-18.17-38.47-7.62-16.78-15-32.46-22.3-55.5a74.23 74.23 0 0 1 .85-45.41c-.78-14.33-5.3-27.67-9.66-41.2l-.17-1.24c-1.15-33.4 6.74-74.94 33.66-97.54 23.94-20.1 59-29 89.65-30a167.06 167.06 0 0 1 94.32 25.65c23.8 15.1 43.76 38.07 47.84 66.72 3.85 27.06-2 54-14.14 78.15l-10.3 22z" class="B"/><path d="M236 54.5c69-2.33 130.66 36.9 137.87 87.56 3.5 24.58-1.12 50.5-13.7 75.57l-10.6 22.53c-2.3 14.22-5.07 32.2-10.43 41.45-5.7 9.92-67.22 67.74-102.88 78.95-13.38 4.25-60.94 4.77-70.57-5.23-5.83-6.12-10-23.2-16.4-37.38-5.93-13.14-15-33.9-21.6-55.15a69.52 69.52 0 0 1 1-43.36c-.6-15.07-5.1-28.33-9.94-43.25-1.16-33.5 5.67-71.72 30.73-92.8C170 66.14 201.7 55.67 236 54.5z" class="C"/><path d="M236 54.5c-13.12 16.2-21.38 39.94-17.6 62.77 46.53-1.4 58.1 1.2 81 11.2-7 11.36-8.7 38.84-9.94 54.9-12.92 3-25.25 2.9-34.76 5.8l-16 12.27c28 2.6 34.57 5.45 46 8.52 4.93 13.73 7.3 20 2.78 37.6 17.52-4.3 25.93 3.44 24.7 16.33-12.77 18.06-22.24 32.37-38.8 47.9 6.7-4.3 10.54-5.83 17.72-9.92-15.73 20.1-32.18 42.3-54.75 58.68-13.38 4.25-60.93 4.78-70.56-5.22-5.83-6.12-10-23.22-16.4-37.38-5.93-13.14-15-33.9-21.6-55.15a69.55 69.55 0 0 1 1-43.37c-.6-15.07-5.1-28.32-9.94-43.24-1.16-33.5 5.67-71.72 30.73-92.8 20.46-17.26 52.17-27.72 86.47-28.9z" fill="url(#I)"/><path d="M165.68 355.23c-5.84-6.1-10-23.2-16.4-37.37-5.93-13.14-15-33.9-21.6-55.16a69.53 69.53 0 0 1 1-43.36c-2 18.15-.66 36.54 4.7 48.86 6 13.67 11.74 35.9 16.58 45.85 8.5 17.3 10.7 31.7 15.65 41.1z" class="J"/><path d="M370.67 190l-2.76 8.5-32.23 10.6-7 9.93-30 13 4.4-25.03 67.6-16.84z" fill="#b26036"/><path d="M123 169.14c3.4-23 .14-44.22 18.9-60.07-13.2 20.74 8.42 40.12 7.5 64.07z" class="J"/><path d="M337.2 134.27c-22.2-7-36.34-15.75-61.58-18.75-35.33-4.17-68.18 5.9-101.16 15.66l81.93-80.4c35.88-3.4 57.32 2.76 89.64 17.47 23.44 10.65 28.2 13 52.17 19.2-5.18 2.9-11.3 6.75-16.68 9l20.08 5.44c-4.8 2.4-11.15 5.92-16.07 7.52-3 24.25-3.44 41.72-4.66 65.53-24 21.2-41.48 43.9-62.76 68 6-25.3 4.65-44.06 1.75-69.45-3.1-7.77-6.7-10.4-14-14.8 13.77-3.4 21.72-7.15 33.52-16.13-2.2-2.76-5.6-4.44-10.2-5.77a46.91 46.91 0 0 0 8-2.39z" fill="#663010"/><path d="M191.78 120.33c99-29.34 118.2 6.45 164.66 14a147.22 147.22 0 0 1-15.63 3.67 25.34 25.34 0 0 1 5.11 5.5c-8.8 5.3-16.34 13.24-30 16.54 4.54 3.42 6.32 6.4 8.5 12.15 2.3 20 3.67 42.24-.4 57.35 16.47-18.68 32.67-39.3 52.62-56.93 1.26-24.1 1.26-36.8 4.53-63.26a22.74 22.74 0 0 1-4.52-2.6c4.74-1 9.85-2.4 12.55-3.77a211.81 211.81 0 0 1-22.94-7.12 56.62 56.62 0 0 0 20.3-6.94C342.76 77.55 320 49.85 258.1 55.76l-66.23 64.55z" class="D"/><path d="M191.88 120.4l66.24-64.55c61.88-5.9 84.66 21.8 128.4 33.15a56.42 56.42 0 0 1-20.31 7 209.58 209.58 0 0 0 22.94 7.11c-2.7 1.38-7.8 2.83-12.55 3.77a22.36 22.36 0 0 0 4.52 2.61c-11.9 3.86-22.3 5.6-37.68 6.53 6.25 2.72 9.82 4.38 18.58 5.66a98.36 98.36 0 0 1-16.77 2.66c-36.5-10-67-29.53-153.48-4zm182.8 13.5c-4.82 6.73-18.7 20.8-32.26 25 8.16-1 11.44-2 18.5-4.43-3.17 3.06-4.95 5.12-7.9 7.8-10.18 2-19.48 2-37.1-2.12 13.7-3.3 21.23-11.23 30-16.54 11.17-2.33 21.87-5.74 28.8-9.7z" class="F"/><path d="M386.42 88.93c-28.3-7.43-47.9-21.6-74.86-29-30.3 8.37-55.95 25.9-77.44 44.13 31.1-7.86 59.38-8.1 93.86.9-10.28-7.56-14.1-9-29.4-14 24 1.73 38.55 7.78 59.3 9.16C351 94.24 346.8 90 338 82.83c18.74 5.45 30.84 8.06 48.42 6.1z" fill="url(#J)"/><path d="M320.94 159.42a63.88 63.88 0 0 0 20.26-.9c7.85-5.1 11.86-8.64 21.75-16.45-16.26 8.72-27.34 13.93-42 17.35z" fill="#ff9701"/><path d="M136.6 80.54c1.06-17.3 4.6-34.3 11.76-50.48 9.08-11.67 20.83-20.37 32.17-27.5-4.9 8.63-8.27 19.22-10.6 27.5 23.53-19.14 47.3-26.4 74.3-30.06-11.07 12.85-14 18.4-20.4 30.42C255.07 23 287.75 27 317.8 34a493.73 493.73 0 0 0-48 38l-21.64 19.77 7.76 7.65 8.83-.72 29.84 6.13c-30.17-1.48-62.7 5.68-90.63 18.67a118.89 118.89 0 0 0 20.67 4.55c-21.18 4.55-35.9 7.72-60.56 8.7-17.2-4.95-33.5-20.4-45.35-38.48-1.37-19.74 3.63-35.34 10.7-49.15.43 12.56 2.2 20.52 7.1 31.55z" class="D"/><path d="M122.62 95.88A78.69 78.69 0 0 1 127 63c1.08 10.13 3.92 18 8.26 23.8 1.4 9.2 3.93 16.86 6.47 24.53-3.42-35.2 2.2-60.34 10.67-79.42 6.95-8.2 12-13.17 19.2-18.43-3.55 8.62-7.1 16.62-9.18 23.6a68.25 68.25 0 0 0-8.51 15.65c19.88-25.75 48.63-40.58 79.55-47-18.6 22.67-26.28 45.42-27.78 62.78 5.3-14.65 8.4-22.85 15-32.27 22.66-5.57 58.37-5.06 85 .17-23.36 16.6-45.52 37.64-57.52 55.4 16.87.67 31.9 6.1 46.4 13-30.37-5.5-67 1.8-103.73 19.82 4.4 1.17 8.48 2.5 12.94 3.4-10.26 1.46-23.55 3.8-39.25 4.4-16.07-6.37-26.8-13.87-42-36.43z" class="F"/><path d="M305.56 36.1a263 263 0 0 0-54.8 7.35c-12.2 9.4-21.4 18.83-30.64 34.5.55-7.57 2.5-13.53 8.62-25.68-12.84 10.58-28.14 40-32.1 61.68 37.68-15.38 69.1-14.7 97.92-9.24-14.5-6.87-29.54-12.3-46.4-13 12-17.76 34.16-38.87 57.5-55.46zM140.84 88.87c2.16 10.33 7.08 30.13 10.34 33.35-2.28-14.1-2.1-25.5-.54-44.4C152.4 101 159 116.7 164.7 132.3c9.52-10.47 21.56-36.18 24.27-52 .5 12.3 0 19.84-.48 34 5.8-11.1 12.3-39.73 16-64.8A109.77 109.77 0 0 0 185.67 66c6-18.54 18.78-46.16 47.9-60.3-30.92 6.47-59.67 21.3-79.55 47 2-12.9 5-26.87 17.7-39.23-7.2 5.26-12.26 10.22-19.2 18.43-6.56 14.74-11.44 33.1-11.74 57zM126.87 63c-2.42 15.3-1.14 23.7 1.13 32a23.58 23.58 0 0 1 1.94-6 42.07 42.07 0 0 0 8.17 11.11 126.48 126.48 0 0 1-2.89-13.31C130.88 81 128 73.1 127 63z" fill="url(#K)"/><path d="M156.12 30.76c-9.7 20-13.1 34.7-12.92 60.12 1.62-20.98 7.3-41.2 12.92-60.12zm113 65.3c-9.62-1.7-19.24-3.3-29.9-2.87-6.95 1.26-12.52 3.95-18 6.9 16-4.16 32-4.46 47.95-4.02zm-17.48-49.3C237.2 59.1 222.7 74.43 216 98.84c11-20.15 19.74-32.23 35.68-52.1zm-48.57 5.47a83 83 0 0 0-8.45 36.39c4.26-10.98 6.17-23.52 8.5-36.4zM195.7 38.4c-8.64 9.07-15.65 16.84-18.3 31.2a126.94 126.94 0 0 0 2.42 18.24 94.71 94.71 0 0 1 15.92-49.44zm-12.46-10.5c-14.92 11.86-26.58 25-31.74 38.8a177.43 177.43 0 0 0 2.75 26.3c2.16-31.06 12.1-44.2 29-65.1z" class="I"/><path d="M353.3 239.16l-9.6-21.1c-2.9-19.07 21.2-56.42 44.5-54.33 20.28 1.8 16.64 39.6 13.4 53-4.7 19.07-24.92 41.7-45.13 44.86-8.66 1.32-16.35-2-17.8-10.37l14.72-11.93z" class="B"/><path d="M338.68 251.08a147.85 147.85 0 0 1 5.13-33c3.6-14 22.54-50.84 44-48.85 13.9 1.27 13.12 29.44 9 46.27-7.14 29.07-45.5 53.66-58.07 35.7z" fill="url(#L)"/><path d="M350.12 202.18c8.05-15.76 22.18-34.37 37.6-33.05 10.7 1 12.73 17.76 11.2 33.14-10.6 16.2-28.6 28.43-42.3 26.77-12.94-1.6-11.33-17.52-6.54-26.95z" fill="url(#M)"/><path d="M356.26 236.4c8.3-4.43 10-19.2-3-15.63 3.38-16.18 16.5-38.07 30.27-37.06 11.13.86 11.9 38.55-16.9 49.23z" class="B"/><path d="M356 236.44c14.9-5.64 9.78-20.7 1.53-19.08 3.82-11.82 14-31.58 26-30.3 8.14.82 5.67 22.74 2.28 31.25-6.35 16.24-22.4 24.48-29.9 18.15z" fill="url(#N)"/><path d="M341.1 204.47l-22 26.94c-.92 7.54-1.08 27-24.58 57.6-.22-.88 1.87-11.63-3.3-24.2-11.67 10.67-17.27 20.4-40.34 18.84-10.9 1.9-26.86 1-52.17-5-11.48 3.76-20.13 2.44-28.12 0-30.16 18.06-36.52-14.15-47.8-25.07 6.58 25.28 13.7 42.65 20.83 61.12 4 10.45 10.3 33.37 17.27 41.7 10.67 12.66 59.55 13.87 74.88 9.16 8.72-2.64 32.45-16.9 33.27-17.68 6.52-3.83 11.76-8.54 17-12.22 13-9.12 50.27-47.06 56.65-58.3 2.83-4.84 3.45-8.14 5.23-15.3.76-3 1.43-6 2.1-9.15l2.52-3.15c-17.12 11.1-20.97-14.22-11.44-45.28z" style="mix-blend-mode:multiply" fill="#a86d54" fill-opacity=".50196"/><path d="M236.9 297.47c-67.83 2.66-86.83-2.84-86.83-2.84 7.15 25.52 17.25 50.16 32.33 55.75 1.8-1.2 4.14-10 5.17-12.1 1-1.4 0-4.16-1-5.55 5.12 2.77 10.23 1.4 15.34 1.4-4 2.2 0 14.74 1.25 19.07 11.9.77 23.23-8.76 33.1-14.4 13.32-7.6 40-49.33 40-49.33-28.03 16.66-39.37 8-39.37 8z" fill="url(#O)"/><path d="M177.1 333.18s22.3 4.73 38.6-.2c0 0-11.56 8.43-22.7 8.43a18.57 18.57 0 0 1-15.89-8.22z" fill="#bd7447"/><path d="M153.25 167.1s-16.36 6.4-38.34 4.06c0 0-4.65 5.87-2.53 24.34l8.76 36.5 56.78-6.34s-3.5-3.6-4.8-14.14c-3.54-28.6-19.86-44.43-19.86-44.43z" fill="url(#P)"/><path d="M121.9,170.15s-11.67,19.33,4.5,62.17l-6.17.5s-17.17-44.34-6.5-63.34Z" class="B"/><path d="M207.33 213.37s4.32-46 28.4-51.2c23.3-5 56.9 11.7 56.9 11.7l10.48 37.38z" class="C"/><path d="M171.7 217.08c-7.62-28.27-43.28-20.93-47-7.9-6.92 24 8.46 34.07 14.2 34.73 5.47.63 29.2-1.4 32.75-12.2 1.9-5.83 1.26-10.1.04-14.62zM286.1 227c-.52-6.2-49.4-42.47-69.2-8.37-16.56 28.5 10.17 45.76 19.3 46.33 8.64.53 42.7-2.37 48.52-15.8 3.12-7.25 1.87-16.5 1.4-22.15z" class="G"/><path d="M287.74 225.7a28.91 28.91 0 0 0-6-15.67c-2.47-3.1-12-7.74-16.52-8.58-11.53-2.15-34.65-5.3-44.47 18.92-11 27.13 10.6 38.95 18.56 39.5 7.6.54 40.62-2.48 45.93-14.77 2.83-6.62 2.93-14.1 2.5-19.4z" class="E"/><ellipse cx="243.17" cy="241.22" rx="22.18" ry="21.72" transform="matrix(.9931298632618354 -.11701741194167743 .11701741194167743 .9931298632618354 -26.54 30.1)" fill="#022740"/><path d="M244.88 262.9a20.6 20.6 0 0 1-18.51-7.52 20.6 20.6 0 0 1 15.57-10.29c7.37-.87 14.87 3.16 19.12 8.47-3.06 5.45-9.35 8.53-16.18 9.34z" fill="url(#Q)"/><path d="M241.3 229.7a12.52 12.52 0 1 1-10.83 13.88 12.46 12.46 0 0 1 10.83-13.88z" fill="#151720"/><path d="M254.63 221.85a8.5 8.5 0 1 1-7.36 9.43 8.46 8.46 0 0 1 7.36-9.43z" class="E"/><path d="M125.8 217.68a30.19 30.19 0 0 1 .87-6.19c.9.42 3.55.93 4.7.32 2.34-1.25 4.63-2.84 7.2-3.3a55.45 55.45 0 0 1 8.55-.36c5.4 0 12-.57 16.73 3.2a3.85 3.85 0 0 0 4.29.57 28.88 28.88 0 0 1 1.54 3.76c5.63 17.15-5.14 26-8.9 27.54-4 1.58-25.62 5.8-31.1-5.83a44.75 44.75 0 0 1-3.86-19.72z" class="G"/><path d="M128.26 219.83c.2-5.36-.4-19.44 19.7-21.88 12.06-1.46 18.4 2.62 23.7 18.24 5.45 16.1-5.2 26.4-8.87 27.8-3.84 1.45-26.13 4.77-31.34-5.9-2.95-6.04-3.37-13.27-3.2-18.26z" class="E"/><ellipse cx="146.54" cy="234.58" rx="14.68" ry="15.02" transform="matrix(.9931298632618354 -.11701741194167743 .11701741194167743 .9931298632618354 -26.44 18.75)" fill="#022740"/><path d="M147.75 249.56a13.52 13.52 0 0 1-12.29-5.26 13.46 13.46 0 0 1 10.28-7.05c4.87-.58 9.85 2.23 12.7 5.92-2.04 3.83-6.16 5.83-10.68 6.4z" fill="url(#R)"/><path d="M145.26 226.6a8.67 8.67 0 1 1-7.12 9.55 8.45 8.45 0 0 1 7.12-9.55z" fill="#151720"/><path d="M157.1 222.15a5.88 5.88 0 1 1-4.84 6.48 5.73 5.73 0 0 1 4.84-6.48z" class="E"/><path d="M166.08 149.66s-.83 22.94-9.78 23.66-28.55-3.5-50.1 5.55c0 0 2.34-15.94 13.34-17.72s22.12-1.82 27.47-2.08c7-.33 19.5-8 19.07-9.4z" class="D"/><path d="M162.64 155.94s-9.83 6.7-20 7.24-24.8 1.1-30.1 7.12c0 0 16-1.06 21.62-.9s24.4 1.55 28.5-13.45z" fill="url(#S)"/><path d="M212.84 180.74s7.57-9.23 18.26-11.62c38-8.5 69.55 22.26 69.55 22.26s-4.53-20.6-20.92-26.64c0 0-23.56-10.36-30.6-11.1s-35.22-6.45-36.3 27.1z" class="D"/><path d="M219 169.14s.36-13.5 19.94-14.3a117.54 117.54 0 0 1 24.8 7.34c12.66 5.43 21.84 8.13 29 7.58 0 0-15.06 4.54-33.8-1.8s-31.86-8.7-39.93 1.17z" fill="url(#T)"/><path d="M306.15 212.13L387 194.18l-8.45 9.07-41.4 13.2-6.26 8.2-29 9.4 4.24-21.94z" class="G"/><path d="M305.16 216.55l-.73 8.88 27.23-7.9 3-3.43 5.7-1.7c2.17-1 6.77-2.28 9.06-6.06l-44.28 10.3z" class="H"/><path d="M196.8 215.68c-.87 9.25-1.3 32.87 4.44 40a2.4 2.4 0 0 0 .51.56c14.58-10.83 47.2-30.6 100.37-39.37a5.85 5.85 0 0 0-4.55-4.4c-28.37-5-65.8-5.6-94.6-2.8-3.48.32-5.9 2.35-6.18 5.9zm-85 26.32c15-8.68 33.8-18.06 64.1-22.17v-4.4c0-3.16-.6-5.9-4.13-6.82-18.6-4.9-37.8-5.93-56.93-4.87a4.89 4.89 0 0 0-4.75 4.59c-.4 8.76-.54 24.25 1.28 32.48l.4 1.28z" fill="url(#U)"/><path d="M157.07 260.9c14.8.06 19.27-7.58 21.83-21.25 1.4-7.55 1.52-15.74 1.7-22.53 3.65-2.62 7.3-2.16 11 .93-.86 14.7.15 33.3 5.8 40.5 5.77 7.33 46.84 8.05 74.3 3.74 12.44-2 24.65-5.13 29.9-17.44 2.83-6.74 4.3-15.27 5.5-24.64.17-1.6 5.5-2.57 6.34-3.8 1.95-2.87 1.9-7.25 1.53-10.38-30.95-6.72-75.67-8.68-110.24-5-4.87.47-7.35.4-11.85 3.3a11.45 11.45 0 0 1-10.71.18 36.4 36.4 0 0 0-7.92-3.83c-22.08-6.16-45.2-6.93-71.24-3.92-.94 1.78-1 7.68.34 9.1 1 1 2.54 2.17 2.46 3-.63 7.54-1 25.7 2.1 35.64 1 3.48 4.35 6.44 9 8.9 10.58 5.64 27.44 7.65 40.1 7.7zm41.13-45.28c.3-2.85 2.05-4.37 4.83-4.6 28.8-2.8 66.33-2.1 94.25 2.76a4.45 4.45 0 0 1 3.51 4.52c-1.24 14.4-3.06 29.9-14.36 34.1-20.32 7.62-78.83 8.92-84.07 2.3-4.84-6.12-5.23-27-4.15-39zm-26.95 30.9c-1.53 4.3-4 7.66-7.8 8-11.83 1.1-34-1.1-44.84-7.58-3.13-1.93-5.3-4-5.86-6.54-1.78-7.8-1.66-23.55-1.23-32a3.47 3.47 0 0 1 3.32-3.2c19.32-1 38.26 0 56.5 4.83 2.63.66 3 2.55 3.1 5.45 0 4-.07 8.54-.33 13.14-.22 4.14-.73 11.94-2.85 17.9z" class="G"/><path d="M108.78 208.16c-.8-3.95-4.14-1.55-3.37-8.6 22.8-2.9 45.75-2.2 68.18 4-21.57-4.8-48-4-58.8-1.3-3.07.8-5.84 2.7-6.1 5.9zM196.2 206c2.78-1.82 5.1-1.47 8.93-1.9 25.23-3.1 57-2.8 84.87.85-19.08 0-61.87-1.92-87.67 3.16-5.5 1.16-8.1 3.58-10.73 6.08.68-3.26 1.58-6.18 4.6-8.18zm-32.6 50.55a42.64 42.64 0 0 1-6.52.66c-10.83.63-43.24-1.26-46.75-15.72 5.23 13.37 40.57 16.25 53.27 15.05zm125.28-2.67c-13.52 7.9-54.53 8.4-71.16 6.8 17.46 1.14 57.2-1.16 71.16-6.8z" class="H"/><path d="M229.1 329.17c-14.36 21.5-57.54 17.14-57.9-.66z" fill="#bd7447"/><path d="M258.3 299.46c-14.55 19-25.13 30.85-32.3 34.52-12.57 6.47-72.7 4.56-67.08-15.65l16.8 3.36 82.48-22.22z" fill="url(#V)"/><path d="M271.82 283a64.14 64.14 0 0 1-11.59 4.11 4.89 4.89 0 0 1-2 .19 85.29 85.29 0 0 1-13.23 3.93 362.58 362.58 0 0 1-99.69 2.42c5.14 2.24 6.43 3.63 11.4 4.32 5.7 6.4 9.92 14.47 11.55 20.62-3.23.18-3.76.2-9.27-.36 24.27 9.06 60.12 9.82 72.7 3.36 9.62-4.92 27.36-18.87 43.82-37.25a10.93 10.93 0 0 1-3.69-1.34z" class="B"/><path d="M166.42 299.77a58 58 0 0 1 8.78 17.76l.28.94 8.16 1.5a143.46 143.46 0 0 0 27.58 1.48c5.4-.32 13.58-1.12 18.5-3.6 7.4-3.8 15.32-10.27 21.58-15.7 4.58-4 9.05-8.2 13.32-12.52a100.34 100.34 0 0 1-18.77 6h-.17a372.74 372.74 0 0 1-79.25 4.21z" fill="#792936"/><path d="M166.42 299.77a38.52 38.52 0 0 0 5.47 9.16c2.24 1.16 6.68 1.64 8.8 2.38-3.54 1.44-4.87 2.9-5.3 7.17 13.4 2.85 42.17 5.53 54.15-.7a88.73 88.73 0 0 0 12.3-8.1 36.05 36.05 0 0 0-8.52-1.53c7.37-1.77 15.44-5.2 18.63-8.18 1.35-1.3 4.07-4.57 4.47-7.34a72.78 72.78 0 0 1-10.75 2.93 374 374 0 0 1-79.25 4.21z" fill="url(#W)"/><path d="M168.88 304.68a29 29 0 0 0 3 4.25c2.24 1.16 6.68 1.64 8.8 2.38-3.54 1.44-4.87 2.9-5.3 7.17 12.5 2.6 38.35 5.15 51.54.38a28.47 28.47 0 0 0 4.37-16.38c-20.23 2.1-39.5 3.52-62.4 2.2z" fill="url(#X)"/><path d="M163.67 261.88c6.55-6.2 19.1-17.77 18.84-39.24 2.6 13.6-2.68 35.5-13.7 43.55a6.7 6.7 0 0 1-5.14-4.31z" class="J"/><path d="M163.86 258.7c1.95 4.7 7 5.84 12 6.53 4.74.66 9.66.17 14.5.3 3.76 2.32 5.4 5.62 6 9.85-9 .37-18.77 0-27-2.58-6.1-3.1-8.94-10.52-5.5-14.1z" class="C"/><path d="M157.05 259.58c13.28-8.58 24-26.68 23.62-43.1-.1-2.95 1.2.84 1.44 1.9 3.65 19.2-7.4 35.82-18.25 43.47-.75 3.6 5.77 10.82 10.9 12.07-8.42.33-15.1-5.1-17.6-14.35z" class="B"/><path d="M254.74 293.13s-17.17 19.5-61.84 18.34l36.84-.67s6.33.33 5.83 3.5c0 0 18.5-13 28.17-24zm-86.84 6.75s2.63 9.75 19.38 11.75c0 0-9-2.68-11.9 6.85l-4.24-7.1-5.62-11.87z" fill="#792936"/><path d="M327.32 436.14a164.49 164.49 0 0 0 3.68 25.62l.06 1.4c-2.22 25.26-61.92 39.5-75.46.88l-.18-2.1c1.46-11.14 2.9-12.53 2.15-22.6a15.78 15.78 0 0 1 2.55-10.31l21.42-14c9.1-20.4 30.32-42.3 40.85-20 11.54 24.46 9.8 33.54 5.05 41.18z" class="D"/><path d="M319 396.45C306.77 381.4 286.06 380 260.74 429c-6.54 12.66.45 20-1.4 33.73a30.46 30.46 0 0 0 6.72 11.13c-3.07-5.3-4.08-9.55-3.14-12.94 5.62-21.43 71.16-12.27 59.2 11a16 16 0 0 0 4.8-9.47 178.25 178.25 0 0 1-3.51-23.67c-2.58 2.53-5.13 3.52-8.76 4.87 11.4-8.88 6.42-35.2 4.34-47.2z" fill="url(#Y)"/><path d="M317.9 393.53c-7.16-9.2-19.78-10.08-31.85-.2-9.1 7.43-9.87 14.66-10.54 27.36-.55 10.4 1 17 1.88 26.66 16.76-3.93 47.77 2.1 49 17.85a16.93 16.93 0 0 0 .6-2.8 178.16 178.16 0 0 1-3.51-23.68c-2.58 2.54-5.13 3.54-8.76 4.88 11.4-8.86 14.13-15.93 12-27.92.02 0-2.34-13.83-8.82-22.14z" fill="url(#Z)"/><path d="M294.43 407.6c4 14.92 9.6 28.2 20.27 36.1a37.59 37.59 0 0 0 9.91-11.3c-7.86 4.6-17.14-6.08-30.18-24.8z" fill="#de7721"/><path d="M260.6 450.78a6 6 0 0 0-.23 2.85c10.67-18.13 58.7-13 65.84 5.15a11.31 11.31 0 0 0-.77-4.22c-11.52-15.55-52.26-19.3-64.88-3.86z" class="F"/><g class="B"><path d="M204.27 486s52.72 18.77 62.13 23.5c0 0 5.38 7.22 7 27.1s.28 30.08-7.6 32.9-35.2-10-47.26-15.6c-4.7-2.18-54.83-25-61-47.65S195 481.7 204.27 486z"/><path d="M240.7 531.6l22.54-70.6s-.43-8.57 20.9-12.05 35.3 5.9 39.1 13.9-18.67 73.32-19.83 78.66-7.3 18.84-31.2 27.36-35.3-27.14-31.5-37.25z"/></g><path d="M243.86 530.5l20.3-63.27s.07-12 19.73-15.33 31.36 4.77 34.87 12.37-17.55 70.05-18.62 75.13-5.2 18.4-27.25 26.5-32.53-25.78-29.04-35.4z" fill="url(#a)"/><path d="M203.07 489.15s51.12 18 60.52 22.76c0 0 9.7 1.33 11.28 21.2s-3.32 30.65-11.2 33.5-31.6-10.6-43.67-16.18c-4.7-2.18-54.83-25-61-47.65s34.8-17.94 44.07-13.62z" fill="url(#b)"/><path d="M157.93 485.22s-26 47.58-32.15 56.1c0 0-2.86 9.35-22.73 7.74s-29.73-8.18-31.27-16.4 20.67-35.85 23-40.5 21.9-25 45.25-27.47 23.64 12.07 17.9 20.54z" fill="url(#c)"/><path d="M69.84 536.53c5.94-2.37 9.54-6.44 12.72-13.2 2.5-9-1.9-18.15-6.53-25.78.9-4.05 1-8.75-.54-12.5a51.44 51.44 0 0 0-6-9.62 53.16 53.16 0 0 1-5.8-8.68c-4.45-8.9-7.2-18.5-10.33-27.94-1.27-3.77-5.3-4.76-8.82-4.66a30.27 30.27 0 0 0-10.19 2.39c-5.28 2.34-10.56 6.64-10.88 12.93a25 25 0 0 0 6.63 19.36c2.87 3.12 4.77 5 6.7 8.63l.7 64.66 12.12 9.25c6.7-.5 10.43-1.2 16.53-4.35l-1.8-3.55.07-4.7 5.47-2.47z" class="B"/><path d="M50.8 547.46a29.13 29.13 0 0 0 13.48-3.76l5.53-7.1c5.6-5.05 7.4-8.75 9.2-14.25 1.5-7.68-2.82-16.87-7.3-24.06 1.1-3.85 1.48-8.42.07-11.48-3.13-7-8.28-11.3-11.7-18.12-4.45-8.9-6.78-17-10.55-28.47-1.62-4.8-21.55-.18-22.1 9.65a21.77 21.77 0 0 0 2.89 13c2.86 4.74 6.62 6.25 10.44 13.87l.72 63.7 9.38 7.13z" class="C"/><path d="M27.78 447.9a4.62 4.62 0 0 0-.29 1.81 21.73 21.73 0 0 0 2.88 13 29.61 29.61 0 0 0 3.83 4.77c6.78-1.3 16.14-4.84 14.72-8.63a61.13 61.13 0 0 1-4.33-15.06c-2.42-1.72-12.74-.25-16.74 4.14z" fill="url(#d)"/><path d="M202.13 501.23s12.15 30.54.14 38.45c-22.9 15.06-53.9-1.6-53.9-1.6s-25.07-14.27-5.45-27.74 59.2-9.12 59.2-9.12z" class="B"/><path d="M207.4 497.27s13.26 30.54.16 38.44c-25 15.06-58.82-1.58-58.82-1.58s-27.35-14.27-5.94-27.75 64.6-9.1 64.6-9.1z" class="C"/><path d="M208.45 495.1l3.5 3.17s1.5 8-3.4 12.1a17.58 17.58 0 0 1-10.71 3.93l-.83-12.18zm-39.85-11.65c-9.76-6.46-27.45-9.84-35.6-10.07h-.07c-.1-.23-1.6-4.17-1.72-4.4-11.3 12-18 30.17-16 44.24.24 0 12.1 25.93 46 23.5.95-.06 9.14-23.7 9.14-23.7s-8.1-2.4-9-8.75l3.1-2.94 2.73 3 4.38-1.8c.18-6.68-.33-11.1-2.95-19.07z" class="B"/><path d="M151 480.48a107.42 107.42 0 0 0-18.72-3.59c-2.86 3.9-7.38 10.24-9.78 16.22-1.07 3-3 14-3.58 18.3a141.51 141.51 0 0 0 13.69 5.59c1.44-6.53 5.2-20.16 7.14-23.56A50.23 50.23 0 0 1 151 480.48z" class="C"/><path d="M202.08 479c-13-5.66-35.18-7.08-45.54-6.18h-.07l-.78-.8c-8.7 16.17-11.33 36.2-1.68 51.27a4.56 4.56 0 0 1 .85-.25c12.63 1.35 26.5 4.35 41.22-.14 2.1-3.07 2.47-5.17 3.4-8.18 2.45-2.1 5.95-6.67 2.8-12.86l2.1-3.58 3.83 2.54 3.73-2.63c-2.24-6.74-4.3-11.2-9.86-19.2z" class="B"/><path d="M181.7 478.3a.76.76 0 0 1-.08.11h0zm17.85 4.07a103.57 103.57 0 0 0-14.56-3.5 38.92 38.92 0 0 0-8 16.42c-.66 4.53.86 19.57 2 26.22a39.09 39.09 0 0 0 14.74-2c2.93-7.12 3.64-13.45 2-22.6a31.39 31.39 0 0 1 3.8 13.33c4.6.1 9.23-3.6 9.17-7.33l-.64-1.9h.07a80 80 0 0 0-8.58-18.62zm-17.95-3.97a152.22 152.22 0 0 0-24.28-1.25c-1.75 5.05-4.42 13.3-4.54 20.68.1 3.6 3.1 16.4 4.37 21.2 6.62 1 13 2 18.83 2.34-1.14-7.15-2.68-22.57-1.88-26.7a42.46 42.46 0 0 1 7.5-16.29z" class="C"/><path d="M199.55 482.37a103.57 103.57 0 0 0-14.56-3.5 38.92 38.92 0 0 0-8 16.42 47.56 47.56 0 0 0 0 8.1c5.18.1 10.5.2 15.85.6-.33-3.66-.34-6.62-.46-11.3 1.68-3.62 3.8-6.32 7.08-10.38z" fill="url(#e)"/><path d="M181.66 478.4a152.84 152.84 0 0 0-24.33-1.26c-2.2 6-4.3 13.53-4.54 20.68a60.36 60.36 0 0 0 .93 6.09c6.3-.36 13.2-.56 20.43-.55-.22-3.83-.3-7.05.08-8.65a42.51 42.51 0 0 1 7.58-16.4z" fill="url(#f)"/><g class="B"><path d="M143.64 483.75s-7.46-9.38-16.8-13.86a61.29 61.29 0 0 0-11.53 1.79 128 128 0 0 1 12.7-4.29l-1.1-26.54s-14.63-.12-21.8 8.48c0 0-5.12 11.8-.32 24.35 0 0 1 2.34 2.06 2.6a61.91 61.91 0 0 1 22.73 10.51s7.13 11.52 10.64 20.46l9.52-.45a60.19 60.19 0 0 0-6.1-23.04z"/><path d="M123.1 440.85l1.28 26.54s13.94 7 19.8 14.62c0 0 5 12.14 5.32 22.75 0 0 3.46-21.84 7.7-28.5 0 0-3.66-13.34-9.08-21.37 0 0-13.47-15.02-25.02-14.03z"/></g><g class="C"><path d="M143.5 480.48s-6.67-8.28-15-12.23l-1.12-22.86s-12.94-.68-19.35 6.92a63.8 63.8 0 0 0-.37 17.3 5.93 5.93 0 0 0 4.29 5.34c4.45 1 12.3 3.3 19 8.2a150.17 150.17 0 0 1 8.61 15.91 5.59 5.59 0 0 0 3.23 3l7 2.53s-.92-13.14-6.3-24.12z"/><path d="M123.88 445.22l.57 23s12.75 6.2 18.1 12.9c0 0 6.16 10.3 6.42 19.67 0 0 1.6-18.86 5.5-24.75 0 0-3.35-11.77-8.3-18.87 0 .03-11.7-12.82-22.28-11.95z"/></g><path d="M124.54 445.16s1.52 15.52-3.4 22.75c0 .08 16.06 6.55 21.4 13.24 0 0 6.16 10.3 6.42 19.67 0 0 1.6-18.86 5.5-24.75 0 0-3.35-11.77-8.3-18.87 0 0-11.05-12.92-21.62-12.04z" fill="url(#g)"/><path d="M138.06 501.6s5.1 7.66 26.9 9.5c3.3.28 5.63 3.76 5 7.46a97.34 97.34 0 0 1-3.15 13.84c-1.08 3.43-4.06 5.6-7.24 5.15-10-1.4-29.94-2.57-39.05-24.5z" class="B"/><path d="M131.32 502.08s9.6 9.82 29.22 11.27a5 5 0 0 1 4.55 5.9 69.83 69.83 0 0 1-2.83 10.94 6.13 6.13 0 0 1-6.52 4.07c-9-1.12-28.63-5.52-36.82-22.85z" class="C"/><path d="M118.92 511.4l2-11.32s0 24.33 35 29.42l-.13 4.75s-25.33-1.26-36.87-22.85z" fill="url(#h)"/><path d="M131.46 446.36s3.58 6.86-1.7 21.2c0 0-11.8 1.88-19.47 6.32 0 0-3.53-2.16-3.53-8.94a75.24 75.24 0 0 1 1.44-12.63s8.24-10.96 23.27-5.95z" fill="url(#i)"/><path d="M201.34 501.1l-5.3-4.05-.24-.18s7.43 11 .27 26.12l16.62-7.76a52.22 52.22 0 0 0-9-25.23" class="C"/><g class="H"><path d="M124.27 563.27L58.7 555.6a14.74 14.74 0 0 1-11.59-10L16.65 435.4c-1.55-5.62 1.5-10 6.85-9.65l69.63 4c5.74.33 11.5 5.36 12.83 11.2l26 114.27c1.16 5.08-2.3 8.67-7.7 8.04z"/><path d="M134.72 572.07l-74.9-8.74c-5.77-.68-11.7-5.77-13.24-11.4L12.54 433.75c-1.77-6.4 1.72-11.34 7.82-11l79.28 4.56c6.54.37 13.1 6.1 14.64 12.75l29.2 122.76c1.34 5.85-2.6 9.96-8.75 9.25z"/></g><path d="M116.7 530.87L50.15 524c-5.15-.5-10.4-5-11.82-10.15L16.65 435.4c-1.55-5.62 1.5-10 6.85-9.65l69.63 4c5.74.33 11.5 5.36 12.83 11.2l18.52 81.38c1.2 5.3-2.3 9.1-7.77 8.53z" fill="url(#j)"/><path d="M64.87 458.28C79.55 459 95 471.7 99.2 486.42c4.12 14.48-4.36 25.26-18.73 24.2-14.17-1-29-13.2-33.45-27.34-4.5-14.38 3.37-25.7 17.84-25z" fill="url(#k)"/><path d="M65 461.36c13 .6 27 11.7 31 24.64 4 12.75-3.3 22.28-16.08 21.4-12.6-.86-26.16-11.55-30.3-24.05-4.3-12.66 2.52-22.6 15.4-22z" class="E"/><path d="M63.4 498.1c-2.43-3.8-5.65-9-7-12.9-5.23-15.6 28.18-14.65 33.4 1.92 1.27 4 1.3 9 1.24 12.7l-.15.46c-5.2 5.7-18.07 4.83-27-1.7z" class="D"/><path d="M64.56 497.65c-2.16-3.4-5.44-8.54-6.68-12.3-4.64-13.83 25.84-13 30.5 1.74 1.2 3.8 1.22 8.78 1.2 12.1-4.73 5.25-16.7 4.48-25-1.6z" class="C"/><path d="M57.5 483.9c-2-11.88 24.24-11.12 30.26 1.66a28.11 28.11 0 0 1 .78 4.1 108.33 108.33 0 0 0-12.21-.06c-.6 0-.63.58-2 .52s-1.94-.7-2.5-.76c-4.07-.64-8.54-1.18-12.48-1.4a31.93 31.93 0 0 1-1.81-4zm29 15.25c-4.7 2.6-12.35 2.13-18.84-1.18a26.46 26.46 0 0 0 3.66.5c1.22.08 2.9 0 3.2-1 .8-3.23 1.6-3.1 4.47.26.94 1.13 2.8 1.44 4 1.52a27.51 27.51 0 0 0 3.55-.07z" fill="#fad395"/><path d="M57.36 487.63l3.52.27a31.53 31.53 0 0 1-1.53-5.06 3.56 3.56 0 0 1 1.8-.86 11 11 0 0 1-2.7-1.76 6.58 6.58 0 0 1 2.14-.47 41.75 41.75 0 0 1 8.65 2.82h-3.66l6.8 1.72a22.29 22.29 0 0 0 10.86-4l1 1.44a2.79 2.79 0 0 1-1.63 1.44 10.56 10.56 0 0 1 2.5 1.15 31.36 31.36 0 0 1 1.72 5.12l3.74.12a38.62 38.62 0 0 1-1.95-6.63 3.64 3.64 0 0 0 .17-2.1 4 4 0 0 1-1.92.33 2.92 2.92 0 0 0 1.22-1.41 42.23 42.23 0 0 0-1.06-4.4 6.53 6.53 0 0 1-3 2.3l-.06-2.5a44.5 44.5 0 0 0-3.8-4.32 13.26 13.26 0 0 1 .48 3.23 57.9 57.9 0 0 0-4-4.63 56.92 56.92 0 0 0-6.64-3.86 49.81 49.81 0 0 1 5.5 6 62.49 62.49 0 0 0-4.78-4.06 64 64 0 0 0-14.13-1.95 54.48 54.48 0 0 1 7.7 6.2 17.22 17.22 0 0 0-4.11-1.56 23.43 23.43 0 0 0-6.34 1.28 32.31 32.31 0 0 1 5.69 3.15 18.49 18.49 0 0 0-7 2.17 9.41 9.41 0 0 1 2.4 1.2h-1.4a100.26 100.26 0 0 1 3.82 9.63z" class="D"/><path d="M58.82 481.67a11.36 11.36 0 0 1-2.13-2.14v-.06l2.76-.93a39.87 39.87 0 0 1 12 4l-.07-.8a31.32 31.32 0 0 0-5.14-5.24 30.07 30.07 0 0 1 6.06 5.2 6 6 0 0 1 .14 1 6 6 0 0 0 .82-2 51.32 51.32 0 0 0-3.1-6.44 25.8 25.8 0 0 1 4.23 6.67l-.4 1.4a9.39 9.39 0 0 0 1.56-1.37 33.79 33.79 0 0 0-1.56-5.55 23.09 23.09 0 0 1 2.57 6.07 10.5 10.5 0 0 1-.86.89 21.26 21.26 0 0 0 6.7-3 4.49 4.49 0 0 0 .51-1.5v-2.7l-1-1.26v3.26l-5.75-7a18.41 18.41 0 0 0-2-1.29l3 4.13a15.65 15.65 0 0 1 2.41 3.19 74.83 74.83 0 0 0-9-7.56A55.42 55.42 0 0 0 60 467a82.83 82.83 0 0 1 9.5 8.65 35.66 35.66 0 0 0-9-4.24 17 17 0 0 0-3.6.58 36.66 36.66 0 0 1 5 3.34 15.81 15.81 0 0 0-3.89.77 27.24 27.24 0 0 0-3 .92l1.23.94 2.28-.3a5.07 5.07 0 0 1-1 .87 16.63 16.63 0 0 1-2.35.71l3 7.5 1.34.1a26.22 26.22 0 0 1-1.25-4.57l.68-.54zm29.37.05a6.74 6.74 0 0 1-2.59.3 1.71 1.71 0 0 1-.6 1.08c.4.22.66.53 1.05.75a54.73 54.73 0 0 1 1.87 5.4l1.75.2-1.92-6.13a3.71 3.71 0 0 1-1.35.19c1.07-.7 1.6-1.13 1.8-1.86zm-3-.6a3.28 3.28 0 0 0 1.92-1.9 9.21 9.21 0 0 0-.36-1.67 12.34 12.34 0 0 1-2.66 1.2c-.06.14-.16.48-.2.62a18.5 18.5 0 0 1 1.28 1.75z" class="F"/><path d="M71.44 482.54l-.07-.8a31.32 31.32 0 0 0-5.14-5.24 30.07 30.07 0 0 1 6.06 5.2 6 6 0 0 1 .14 1 6 6 0 0 0 .82-2 51.32 51.32 0 0 0-3.1-6.44 25.8 25.8 0 0 1 4.23 6.67l-.4 1.4a9.39 9.39 0 0 0 1.56-1.37 33.79 33.79 0 0 0-1.55-5.55 23.09 23.09 0 0 1 2.57 6.07 10.5 10.5 0 0 1-.86.89 23.54 23.54 0 0 0 5.34-2.15 15.58 15.58 0 0 0 .22-2.87 14.37 14.37 0 0 1-1.06 1.57 15.38 15.38 0 0 0-.64-2.73 73.84 73.84 0 0 0-9-7.55A54.69 54.69 0 0 0 59.91 467a83.76 83.76 0 0 1 9.5 8.65 36 36 0 0 0-9-4.24 17.09 17.09 0 0 0-3.6.59 32.48 32.48 0 0 1 9.91 6.06 12 12 0 0 0-4.08-.63 25.38 25.38 0 0 1 8.81 5.21z" fill="#ff9701"/><path d="M73 471.33a20.76 20.76 0 0 1 3.36 3.39 13.49 13.49 0 0 1 .24 6.33 27.26 27.26 0 0 0-3.6-9.72zm-10.5 2.34a31.7 31.7 0 0 1 8.73 4 15.39 15.39 0 0 1 1.44 3.45c-3.54-3.63-5.35-4.7-10.1-7.46zm5.66-2.67c1.86.86 3.15 1.62 4.3 2.2a24 24 0 0 1 2.45 7.55 30.43 30.43 0 0 0-6.76-9.76z" class="I"/><path d="M74.05 489.2c-1.3-.06-2-.83-2.58-.93-6.18-1.12-13.26-1.9-17.8-1.55-.72 0 0 2.08 1.08 2.62a9.34 9.34 0 0 1 1 .56 43.85 43.85 0 0 0 2.37 4.43 6.43 6.43 0 0 0 2.7 2.65 38.41 38.41 0 0 0 10.84 2.85c1.2.1 2.9 0 3-1.36a17 17 0 0 0-.47-5.2c-.2-1 1.5-1 2 .22a27.57 27.57 0 0 0 2.9 5.25 5.37 5.37 0 0 0 4.11 1.81c2.6.15 7.6-.43 9.62-1.55.84-.44 1.16-1.18 1.07-2.45a35.32 35.32 0 0 0-.41-4.4c.24-.12.48-.3.72-.4.78-.43.15-2.5-.6-2.65a78.46 78.46 0 0 0-17.84-.48c-.6.08-.62.76-1.9.7z" class="G"/><path d="M54.35 487.5c0 .24.24.68.36.65 2.62-.2 6.55-.1 16.5.82-5.56-1.03-11.85-1.8-16.87-1.47zm39.25 2.3c.15.28.23.7.05.67-3-.55-7.1-.9-17-1.2a69 69 0 0 1 16.95.52z" class="H"/><path d="M56.88 489.64c.68 1.55 1.23 2.28 2 3.8a5.53 5.53 0 0 0 2.65 2.78 34.1 34.1 0 0 0 9.78 2.31c.8.06 2.1-.06 2.17-.8a20.75 20.75 0 0 0-.7-5.76 1.62 1.62 0 0 0-1.26-1.24 57.38 57.38 0 0 0-14.28-1.59c-.3 0-.53.18-.37.57zm35.48 2.1a26 26 0 0 1 .38 3.8c.1 1.5-.1 2.23-.94 2.6a21.86 21.86 0 0 1-8.8 1.15 3.85 3.85 0 0 1-2.83-1.13 30.06 30.06 0 0 1-3.09-6c-.23-.7-.08-1 .53-1.1a54.47 54.47 0 0 1 14.08.07c.3.05.7.27.73.64z" fill="#b2b2b2"/><path d="M56.88 489.64c.68 1.55 1.23 2.28 2 3.8a6.15 6.15 0 0 0 2 2.4 33.48 33.48 0 0 1 11.07-5 2.87 2.87 0 0 0-.44-.14 57.48 57.48 0 0 0-14.29-1.6c-.3 0-.52.2-.37.58zM80 498a28.53 28.53 0 0 1 12.18-6.53 1 1 0 0 0-.58-.3 54.47 54.47 0 0 0-14.08-.07c-.6.08-.76.42-.53 1.1a32.22 32.22 0 0 0 3 5.85z" class="E"/><path d="M37.13 441.37c.92 3.46-1 6.08-4.32 5.86s-6.7-3.18-7.64-6.62 1-6.1 4.27-5.9 6.76 3.2 7.7 6.67z" class="G"/><path d="M35.47 441.27c.67 2.5-.73 4.4-3.12 4.24a6.73 6.73 0 0 1-5.53-4.8c-.68-2.5.7-4.42 3.1-4.27a6.73 6.73 0 0 1 5.56 4.83z" fill="#7a8e91"/><path d="M60.73 529.48l1.33 6.17 51.84 8.25-3.25-7.25-49.92-7.17z" fill="#474747"/><path d="M111.28 450.72l6.82 28.72a1.33 1.33 0 0 0 .87 1h0a1.36 1.36 0 0 0 1.77-1.59l-6.64-28.76A1.45 1.45 0 0 0 113 449h0a1.44 1.44 0 0 0-1.72 1.72z" fill="#6e6e6e" stroke="#3c3c3c" stroke-miterlimit="10"/><path d="M9.87 506.05c1.5 9.56 7.7 29.28 15.73 39.8 8.44 3.25 12.93 4.13 19.6 4.63l1.55-4-3.15-2.9 2.77-2.7c6.3 1.48 9.66-2.7 11-5.4 2.5-1.52 4.32-2.33 6.64-4.9.78-14.3-5-26.2-9.05-37.3-.22-3.3 4.23-6.93-1.45-24.75l-1.8-.68c-15.05-5.73-35.3-4.32-47.9 3.44a63.61 63.61 0 0 0-3.42 28.45A99.14 99.14 0 0 0 9.89 506z" class="B"/><path d="M46.77 546.46l-.4-5.6c3.38-.77 8.15-7.3 13.94-11.52a36.58 36.58 0 0 0-1.44-13.79c-6.28.45-20.2 2.42-24.16 4a36.13 36.13 0 0 0-13.08 10.86A94.08 94.08 0 0 0 28 542.82a73.8 73.8 0 0 0 18.7 3.71zm-26.4-18.87a39.48 39.48 0 0 1 13.15-10.51c3.54-1.64 17.83-3.68 24.55-4.25-1.66-5.2-3.9-10.75-6.3-16.5-4.62-.1-16.87.05-20.15.77-6.64 1.75-13.5 6-17.7 8.7a140.11 140.11 0 0 0 6.55 21.72zm10.54-33.26c2.7-.72 14.44-.84 19.83-.8 1.93-7.33 2.2-12.57-.47-21.8-13-4.63-31.7-2.7-42.23 2.5-2.9 7.78-3.28 18.08-2.64 24.24a32.82 32.82 0 0 0 7.21 4.65c4.28-2.76 11.58-7.06 18.3-8.78z" class="C"/><path d="M28 542.8c2.94-3.88 4.9-6.4 7.8-8.7 4.26-.94 6.94-1.58 10.32-2.1-1.54-4.76-2.82-9.53-4.06-14.2a44.11 44.11 0 0 0-7.32 1.8 36.13 36.13 0 0 0-13.08 10.86A94.08 94.08 0 0 0 28 542.82z" fill="url(#l)"/><path d="M20.43 527.7a39.58 39.58 0 0 1 13.15-10.51 36.45 36.45 0 0 1 7.8-2c-1.62-6.53-3-12.8-4.05-18.6a56.05 56.05 0 0 0-5.71.52c-6.4 1.8-12.76 5.4-17.7 8.7a140.11 140.11 0 0 0 6.55 21.72z" fill="url(#m)"/><path d="M5.38 498.54c9.6-5.64 23.55-8.85 29.35-9.1-.74-9.85-.95-14.9-1.64-20.32-9.3 0-18.66 1.95-25 5.1C5.16 482 4.77 492.3 5.4 498.46z" fill="url(#n)"/><path d="M45.65 540.84l-1.07 9.87 4.57-.12 1.25-9.94-4.75.2zm201.5-36.7s25.44 13.42 27.72 29c0 0 1-19.2-23.22-29.46z" class="B"/><path d="M260.9 427.32l-1.34 25.83-2.16-1.5s-3-18 3.5-24.33z" class="D"/><path d="M209.4 529.65s31.33 20.5 44 24.83 19.16 4.84 23.66 2.67 15.84-10.33 20.5-24.67 20.5-54.5 20.5-54.5l-14 51c-1.92 6.48-5.7 23.5-18 30.67s-21 9.25-31.54 6.58-54.42-25.4-54.42-25.4 8.38-6.17 9.3-11.17z" class="C"/><path d="M206.52,492.65s9.63,26.62,5.13,38.75c0,0,8.25-26.63-4.13-42.13Z" class="B"/><path d="M29.9 436.44c-2.4-.15-3.77 1.77-3.1 4.27a6.73 6.73 0 0 0 2.12 3.29l4.47-6a6 6 0 0 0-3.5-1.56z" fill="#879da0"/></svg>