<svg xmlns="http://www.w3.org/2000/svg" viewBox="0 0 32 32"><g fill="#5c2e0e"><path d="M19.1 4.2L15.3.3.8 25.5l4.6 1.9 10.2-2.3 6.6-14z"/><path d="M24.3 31.7l-3.7-1L17.7 16l11.8-5.3 2.4 3.7-8.4 5.8z"/><path d="M17.1 3.1l-5.4 7-8.6.5 4.4 6.7-4.1 8.4 10-2 9.7 7.3-.9-11.6 7.9-5.8-9.9-2.8z"/><path d="M15.3.3L9.4 7.9.1 8.5l4.7 7.2-4 9.8 10.4-2.8 9.4 8 .1-12.8 8.8-7.2-10.8-2.2z"/></g><path d="M18 5.9l-4.6 5.9-7.3.3 3.9 5.7-3.3 8 8.3-2.6 8 6.4-.8-10 7.6-5.3-9.2-2z" fill="#cf7902"/><path d="M15.2 2.5L10.1 9l-7.9.4 4.1 6.2-3.8 8.9 9.2-3 8.8 7.1-.8-11.1 8.5-5.9L18 9.5z" fill="#fde049"/><linearGradient id="A" gradientUnits="userSpaceOnUse" x1="5.2847" y1="6.9183" x2="19.7339" y2="22.6518"><stop offset="0" stop-color="#fff"/><stop offset="1" stop-color="#fde049"/></linearGradient><path d="M14.5 4.4l-4.1 5.3-6.5.3 3.4 5-3 7.2 7.3-2.4 7 5.6-.5-8.9 6.7-4.7-8.1-1.7z" fill="url(#A)"/><path d="M9.7 9.5l3.1 11.4-2.1-.2-3.9-11zm-3.3 7.7l1.3 4.4-4 1.4z" fill="#fde049"/><path d="M19.6 10.9l.5 4.2-1.9 1.6-1.1-6.5z" fill="#fff"/><path d="M18 5.9l-2.8-3.4L17.1 7z" fill="#cf7902"/><path d="M6.7 25.8l-4.2-1.3 9.3-3 2.3 2z" fill="#b26810"/><path d="M28.2 11.6l1.6 2.7-10.1 3.2zm-5.2 18l-2.5-1-.2-2.1z" fill="#cf7902"/></svg>