<?xml version="1.0" encoding="utf-8"?>
<!-- Generator: Adobe Illustrator 24.1.0, SVG Export Plug-In . SVG Version: 6.00 Build 0)  -->
<svg version="1.1" id="Layer_1" shape-rendering="geometricPrecision"
	 xmlns="http://www.w3.org/2000/svg" xmlns:xlink="http://www.w3.org/1999/xlink" x="0px" y="0px" viewBox="0 0 180 180" style="enable-background:new 0 0 180 180;" width="200" height="200" xml:space="preserve">
<style type="text/css">
	.st0{fill:#95969D;}
	.st1{fill:#FE9601;}
	.st2{fill:#663010;}
	.st3{fill:#CCCCCC;}
	.st4{fill:#FFFFFF;}
	.st5{fill:#999999;}
	.st6{fill:#E99867;}
	.st7{fill:#FAD395;}
	.st8{fill:#D36C26;}
	.st9{fill:url(#SVGID_1_);}
	.st10{fill:#232323;}
	.st11{fill:#151720;}
	.st12{fill:#C49C8C;}
	.st13{fill:#B28672;}
	.st14{fill:url(#SVGID_2_);}
	.st15{fill:#232323;stroke:#232323;stroke-width:0.8662;stroke-miterlimit:10;}
	.st16{fill:url(#SVGID_3_);}
	.st17{fill:url(#E_2_);}
	.st18{fill:#FD9602;}
	.st19{display:none;}
	.st20{display:inline;fill:none;stroke:#FE9601;stroke-width:5.04;stroke-linecap:round;stroke-miterlimit:10;}
	.st21{display:inline;fill:#D36C26;}

	#circl
	{
		animation: circl 2s linear;
		animation-iteration-count: 3;
		transform-origin: center;
		transform-box: fill-box;
	}

	@keyframes circl
	{
		to{
			transform: rotate(360deg);
		}
	}
</style>
<circle class="st0" cx="91.9" cy="99.3" r="36.9"/>
<path class="st1" d="M118.6,117.9c-0.1-0.2-0.2-0.3-0.3-0.5c-1-0.7-2.2-1.6-3.2-2.5c-0.6-1.4-1.3-2.4-1.9-3.1c-0.3-0.4-0.6-0.7-1-1
	l-0.4-0.3c0,0-2.3-1.7-4.4-2c-2-0.3-3.6,1.4-4.2,3.9c-0.8,2-1,4.8-0.4,8.4c2.3,1.7,4.1,3.9,5.7,6.1c0.9,0.4,1.7,0.7,2.5,0.7
	c-1.2-0.3-1.9-0.8-2.3-1.4c-2.1-3.9,4.8,2.7,10.7-6.4C119.5,119.1,118.8,118.4,118.6,117.9L118.6,117.9z"/>
<g>
	<path class="st2" d="M110.1,58.5c0.9-0.7,4-4.1,4.7-5l-4.4,0.3c0.9-0.8,1.9-2,2.8-3c-5.3,0.3-6.4,0.2-11.8-0.4
		c-4.5-0.5-8-0.6-11.6,0.1c1.2-1.8,2.3-3.5,3.6-5.2c-6.6,0.6-11.6,1-17.5,4.7c0.5-2.9,0.4-4,1.8-7.4c-5.2,2.6-8.4,3.3-11.8,8.9
		c-0.1-1.9-0.3-2.5-0.3-5c-2.8,2.6-5.6,6.6-6.7,9.6c-0.4,3.9-0.4,4.1,0.5,7.8l0.2,0.2c-1.7-1.9-2.5-3.7-3.4-6.3
		c-0.5,3.4-0.3,10.5,1.3,14.5c3.6,2.9,7.9,5,11.7,4.8c4.9-1.9,7.7-3.6,11.7-5.9c-1.5,0.3-2.8,0.4-4.5,0.5c0.2-0.2,0.4-0.4,0.7-0.7
		c4.1-2.6,8.4-4.9,13.3-5.9c5.3-1.1,8.8-0.3,13.7-0.3l0,0c-0.5,0.4-0.8,0.7-1.4,1c1-0.1,1.8,0.1,2.4,0.5c-1.8,2.7-3.1,4-5.7,5.6
		c1.8,0.4,2.7,0.7,3.8,2.1c2.3,5.1,3.8,8.9,4.3,14.5c2.7-6.4,2.4-10.8,5.8-16.9C112,66.6,111.1,63.7,110.1,58.5L110.1,58.5z
		 M119.5,121.3c-1.9,1.8-3.6,3.7-5.2,6c-0.1,0.2-0.3,0.3-0.4,0.5C116.7,126.7,118.8,124,119.5,121.3L119.5,121.3z M89.9,126.2
		c0,0-7.3,1.4-11.1,3.1v-0.1l0.2-0.3l2.1-3.9c0.8-1.7-0.2-4-1.8-5.3c-4.4-3.5-5.7-1.8-6.2-1.1c-1.8,2.3-4.7,5.7-6.4,11.1
		c-0.7,2.1,0.1,5,0.2,5.4c1.9,5.5,9.3,5.5,9.3,5.5l0,0c3.1,0.6,9.1,0.1,14.6-0.8c5.2-0.8,10-4.9,10-4.9L89.9,126.2z M110.1,116.1
		c0,0,0.4,0.2,1,0.5C110.9,116.3,110.5,116.1,110.1,116.1z"/>
	<path class="st2" d="M101.6,128.6c-0.3,2.6,0.2-0.8,1.2,2.2c0.7,0.4,1.2,0.6,1.9,0.8c0.5,0.5,1.5,1.3,3.1,0.8l0.9,0.5l-10.1-3.2
		c-2.5,0.1-1,10-3.6,4c0,0,2.1,4.7,7.6,6.7c4.6,1.7,8.5,0.1,9.6-0.6c2-0.8,2.8-3.5,2.9-5.6l1-4.9l0.8-3.6c0.5-3.6-1.8-7.3-1.8-7.3
		c-0.8-1.5-2.9-1.2-3.9-1.8c0.9,0.8,1.5,2.6,1.8,3.5c-1.8-0.3-3.7-0.4-6.1-0.1c-1.5,0.6-3.1,0.8-4.7,0.9c-1.2,0.4-2.3,0.9-3.2,1.4
		 M85.6,118.3c1.4-0.4,3.2-0.1,3.9,1.2l1.3,3l0.1,0.2l5.5,6.6l-3.5,1.8c-0.5,0.2-2.2,0.7-3.6,0.9c-1.7,0.3-3.1-1-3.4-1.2
		c-1.9-2.1-3.1-6.4-3.6-8.5C82.1,121.6,82.1,119.4,85.6,118.3z"/>
	<path class="st2" d="M112.6,125.1c-0.6-0.8-0.9-1.4-1.5-3l0,0c-0.1-2.9,0-5.2,0.1-6.9c-0.4-0.8-0.8-1.6-1.3-2.2
		c0-0.6-1.2-1.5-1.8-2l-1-1.6l-0.6-1.8l0.1-0.6c-0.4-0.1-0.7-0.2-1.2-0.4c-4.6,4.8-9.9,9.6-16.6,10.4l-0.1,0.3l-0.2,0.6
		c0.7,0.5,1.8,1.4,2,1.7c0.8,1.7,0.9,2.8,1.2,4.5c-0.3,0.8-0.4,1.4-0.6,2.3c3.2,1.5,5.6,2.3,9,2.9c5.7,0.1,9.7-1,13.3-2.6
		C113.3,126,113,125.5,112.6,125.1L112.6,125.1z"/>
</g>
<path class="st3" d="M112.1,125.3c-0.7-1.2-1.2-2.1-1.5-3.2c-0.1-2.1-0.1-3.8,0-7c-0.7-1.4-1.5-2.8-2.5-4.1
	c-0.3-1.2-0.8-2.4-1.5-3.4l0,0c-1-0.4-1.3-0.5-2.7-1.1c-0.3-0.2-0.4-0.3-0.7-0.5c-0.5,1.2-1.4,2.6-2.6,3.2h-0.2
	c-2.7,4.1-7.2,6.8-11.7,7.3c0.1,0.3,0.2,0.5,0.2,0.8c1.8,1.4,3.5,5.9,3.7,6.9c-0.3,0.6-0.4,1.3-0.5,1.8c2.8,1.4,5.4,2,8.4,2.6
	c4.5,0.1,8.3-0.6,12.3-2.3C112.6,125.9,112.4,125.6,112.1,125.3L112.1,125.3z"/>
<path class="st4" d="M108.1,110.9c-0.2-0.9-0.8-2.6-1.5-3.4l0,0c-0.4-0.1-0.8-0.3-1.1-0.4c-3.7,3.8-8.4,6-13.4,8
	c1.7,1.1,3.7,2.1,5.3,2.5c3.5-0.9,6.4-1.3,10.1-1c1.3-0.4,2.2-1,3-1.8C109.9,113.5,109,112.2,108.1,110.9L108.1,110.9z"/>
<path class="st5" d="M100.2,127.7c4.6,0.1,8.3-0.7,12.1-2.2c0.1,0.1,0.1,0.1,0.1,0.2c-3.9,1.5-7.5,2.4-12.2,2.2
	c-2.2-0.3-6.1-1.7-8-2.5c0-0.1,0-0.2,0.1-0.2C94.8,126.4,97.8,127.4,100.2,127.7z"/>
<g>
	<path class="st2" d="M93.5,122.5c0,0,17.1-13.8,19.9-4.1v1.7l-10.2,2.8l-5.9,1.2L93.5,122.5L93.5,122.5z M86.8,117.1
		c1.4-0.4,3,0.2,3.6,1.4l1.4,3.2l0.1,0.2l5.5,6.6c0,0-1,0.9-1.6,1.2c-0.6,0.2-6,2.6-8.4,0.6c-1.9-1.7-3.9-7.5-4.4-9.9
		c-0.2-0.6,0.1-1.3,0.6-1.7C84.5,118,85.6,117.5,86.8,117.1z M90,112.6c0,0-5.1-4.6-9.6-1.4l0.7,0.6l5.9,2l1.5,0.3L90,112.6z"/>
	<path class="st2" d="M78.8,114.1c-1,1-1.9,1.6-3.1,2.4l-0.2,0.2c-2.3,3.2,3.4,13.5,9,11.2l0.2-0.2c1-1.5,2.1-3,3.2-4
		c1.3-2,2.8-4.7,1.6-5.9l-2.3,1c1-3.7-2.2-8.3-6.1-8.1C80.1,111.5,79,112.5,78.8,114.1L78.8,114.1L78.8,114.1z"/>
</g>
<path class="st1" d="M81.7,111.3C81.7,111.3,81.7,111.3,81.7,111.3L81.7,111.3c-0.7,0.4-1.2,1-1.5,1.7c-0.4,0.7-3.1,3.7-4,4.3
	c-0.1,0.2-0.2,0.3-0.2,0.4c-0.2,0.4-0.2,0.9-0.2,1.4c3.2-2.7,9.9,4.2,8.3,7.4c-0.2,0.5-0.8,0.8-1.7,1c0.7,0.1,1.3,0,2-0.3
	c1.2-1.8,3.5-4.1,5.3-7.2c0.2-0.3,0.3-0.6,0.3-1C90.8,112,83.9,110.4,81.7,111.3L81.7,111.3z"/>
<g>
	<path class="st2" d="M96.3,121.5c0,0,1.4,2.1,0.4,3.3c-1,1.2-4.5,1.5-4.8,3c0,0,0.1-2.7,2.4-5.2L96.3,121.5z"/>
	<path class="st2" d="M90.9,125.1c0,0-8.8,1.3-10.9,2.9c-2.1,1.6-0.5,5.6,2.4,8.1s6.4,2.3,9.8,0.6l8.4-4.2L90.9,125.1L90.9,125.1z
		 M103,120.6l-1.3,0.2l5.7,2l-0.9-2.8C105.4,120.4,104.1,120.5,103,120.6z"/>
</g>
<path class="st6" d="M113.1,133.4L113.1,133.4z M103.1,121.3H103l-0.1,0.1h0.1c4.1-0.3,9.1,0.6,9.1,0.6l1.3-1.1
	C109.3,120.2,103.1,121.3,103.1,121.3L103.1,121.3z"/>
<g>
	<path class="st2" d="M115.6,125.4c0,0.1-0.7,1.6-1.8,2.5c-0.7,0.6-1.7,0.6-2.7,0.9l2.7-0.3l2.5-2.6L115.6,125.4L115.6,125.4z"/>
	<path class="st2" d="M115.9,126.1c0,0-1.7,2-3.4,2.4l-2.5,0.4l4,0.3l0.4-1.2L115.9,126.1z"/>
</g>
<path class="st7" d="M113.7,128.1l1.4-2c-0.2-1.4-0.4-3.6-1.7-5.2c-0.3-0.1-0.8,0.2-0.9-0.1l-0.2-0.3c-0.1-0.7-0.3-2.4-2-3.3
	c-2-1-6.2,0.6-8.9,2.3c-3.6,1.3-6.6,4.4-6.6,4.4c-0.7,1.4-4,2.3-4,2.3s-6.6,1.2-10,2.6l0,0l0.1-0.2c0.7-1,1.3-1.9,1.9-3.2
	c0.7-1.4-0.2-3.4-1.6-4.4c-4-2.9-5.1-1.5-5.6-0.9c-1.7,2-4.2,4.8-5.8,9.4c-0.6,1.8,0.1,4.1,0.2,4.6c1.7,4.5,8.4,4.6,8.4,4.6l0,0
	c2.8,0.5,8.2,0.1,13.3-0.7c3.1-0.4,6.1-2.1,7.7-3.2c1.9,2.4,4.9,3.9,8.3,3.6c0,0,3.3-0.6,4.5-1l0.7-2.1l0.1-0.4c0,0,0.1-0.2,0.1-0.3
	l-0.1-0.1l0.2-0.7c0,0,0.1,0,0.1,0.1v-0.1h0.1l0.6-4h-0.2C113.7,128.5,113.7,128.1,113.7,128.1L113.7,128.1z"/>
<path class="st2" d="M113.1,119.7c-0.2,0.1-3.4,0.1-6.3,1.3c0,0,4.8-0.6,7.2,0.1l0.3-0.7L113.1,119.7z M62.8,72.3
	c-3.6-0.2-6.5-2.9-9.3-4.8c0.2,2.9,0,7,1.5,9.6c0.6,0.5,1.9,1.2,2.6,1.6l2.8,2.3c2.8,1.3-0.6-0.6,2.5-1l0.7-7.5
	C63.8,72.3,62.8,72.3,62.8,72.3z"/>
<path class="st8" d="M62.8,73.2c-2.3-0.1-4.6-0.8-7.7-2.6c0.4,2,1.2,3.9,2,5.3c0.9,0.8,2.1,1.5,3.1,1.9c-0.6,0.5,0.1,0.6-0.6,1
	c1.3,0.6,1.3,0.6,2.5,0.4l0.2-2.2C62.5,77,62.8,73.2,62.8,73.2z"/>
<path class="st2" d="M113.2,84.5c0.4,2.6,1.2,6.7,0.7,9.2c-0.4,2-4.3,9.4-7.1,12.8c0,0-6.4,6.2-9.2,8.1c-2.7,1.9-11.7,4.5-14.6,2.9
	c-1.9-1-4.1-3.4-5.6-5c-2.6-2.9-5.5-4.2-8.5-8.4c-1.8-2.6-2.9-6-2.9-9.2c-1.1-2.8-2.9-5.2-4.7-7.7l-0.1-0.2
	c-2.5-6.6-3.7-15.5,0.1-21.8c3.4-5.6,9.7-9.7,15.7-11.8c6.4-2.4,13.7-2.8,20.4-1c5.7,1.5,11.2,4.8,13.9,10.3
	c2.6,5.2,3.2,11,2.5,16.6C113.9,79.4,113.2,84.5,113.2,84.5z"/>
<path class="st7" d="M78.1,55.5c13-4.8,27.2-1.2,31.8,7.9c2.2,4.5,3,9.7,2.1,15.3l-0.6,5c0.4,2.9,1,6.4,0.6,8.5
	c-0.4,2.3-9.4,15.1-15.4,19.4c-2.3,1.7-10.6,4.1-13.1,2.8c-1.5-0.8-2.9-2.3-5-4.6c-2-2.1-5.3-4.3-7.9-7.9c-1.3-1.8-2.6-5-2.5-8.3
	c-1-2.8-2.8-5.1-4.6-7.6c-2.3-6.3-3.5-14,0-19.6C66.3,61.9,71.7,57.9,78.1,55.5L78.1,55.5z"/>
<path class="st2" d="M83.8,64.4c-7,1.4-6.8,5.7-12.4,9.6l10.5-20.5c6.6-2.9,11.1-3.1,18.2-2.3c5.1,0.6,6.2,0.7,11.1,0.3
	c-0.8,0.9-1.7,2-2.6,2.8l4.2-0.2c-0.8,0.8-1.8,1.8-2.6,2.4c0.9,4.8,2,8.1,3.2,12.8c-3.2,5.6-3.7,10-6.3,16c-0.4-5.2-2.6-3.9-4.8-8.6
	c-1.1-1.3-2.5-5.3-4.2-5.7c2.4-1.5,3.2-2.8,4.8-5.2C99.2,64.2,88.7,63.4,83.8,64.4L83.8,64.4z"/>
<path class="st8" d="M73.9,70.9c17-11.8,22.9-6.2,32.2-7.7c-0.9,0.7-1.7,1.1-2.8,1.7c0.5,0.2,0.9,0.4,1.3,0.7
	c-1.3,1.5-2.3,3.5-4.7,5.1c1.1,0.4,1.6,0.8,2.4,1.8c1.7,3.6,3.4,7.8,3.5,11c1.9-4.6,2.3-7.8,5-12.4c-1.3-4.7-1.9-7.7-3-13
	c-0.3,0,2-1.2,2.5-2.9c-1.7,0.1-3.2,0.2-4.8,0.1c1.5-0.7,2.6-1.7,3.4-2.6c-9,0.6-15.1-3.2-26.5,1.8L73.9,70.9z"/>
<path class="st2" d="M75.7,68.8C75.1,58.6,84.6,53.1,92.1,47c0.1-0.2,0.3-0.3,0.4-0.5c-6.2,0.6-12.6,1.9-18.1,5.2
	c0.4-2.7,0.7-3.9,2-7c-4.9,2.4-9,5.3-12.2,10.4c-0.1-1.7-0.1-4,0.3-5.9c-1.7,2.1-3.4,4.5-4.4,7.3c-0.3,3.5,0.1,7,0.9,10.4v0.1
	c-1.7-1.8-2.5-3.2-3.4-5.6c-0.5,3.1-0.4,6.3,1,10c3.4,2.7,7.9,2,11.5,1.9c4.6-1.8,1.7-3.5,5.5-5.7c-1.3,0.3,1.6,0.7,0.2,0.8
	C75.3,68.5,75.7,69.1,75.7,68.8z"/>
<path class="st8" d="M58.9,72.5c-0.8-1.8-0.9-6.1-0.9-8.5c0.8,1.9,1.9,3.2,3.1,4c0.8,1.7,1.8,3,2.8,4.2c-2.9-6.5-3.4-11.6-3-15.8
	c0.8-2,1.4-3.2,2.5-4.7c-0.1,1.9-0.3,3.6-0.3,5.1c-0.4,1.2-0.6,2.3-0.6,3.5c2.1-6.2,6.7-10.8,12.2-14c-2.1,5.5-2.1,10.3-1.3,13.7
	c0.1-3.1,0.2-4.9,0.8-7.1c4-2.5,10.8-4.6,16.2-5.3c-3.4,4.6-6.3,10-7.4,14.2c3.2-0.9,6.4-0.8,9.6-0.4C86.4,62.3,79.8,66,74,71.7
	c0.9-0.1,1.8-0.1,2.7-0.2c-1.9,0.9-4.2,2.2-7.2,3.3c-3.5-0.2-6.1,1.3-10.4-2.1L58.9,72.5z"/>
<path class="st1" d="M74.6,46.4c-5.5,3.2-10,7.8-12.2,14c-0.4-2.6-0.7-5.5,0.9-8.6c-1,1.4-1.7,2.7-2.5,4.7c-0.3,3.2-0.1,7,1.4,11.6
	l0,0c1,1.8,1.5,4.3,7.3,6.8C70.1,63.9,69.9,50.9,74.6,46.4z"/>
<path class="st2" d="M68.2,98.3c0,0-6.1-7.8-1.6-11.2s6.3-1.3,8.3,0.6c2,1.8,3,8.2,3,8.2S75,97.9,68.2,98.3z"/>
<g>
	<path class="st6" d="M68.7,97.7c0,0-5.3-6.8-1.3-9.8c4-3,5.6-1.2,7.3,0.4c1.7,1.6,2.6,7.2,2.6,7.2S74.6,97.3,68.7,97.7z M82.7,76.3
		l1,8.7L96.5,78c0,0,2.4,2,0.8-1c-1.5-3-5.6-6.2-8.6-4.4C85.6,74.4,82.7,76.3,82.7,76.3z"/>
	<path class="st6" d="M75.1,87.5c0,0,0.3-1.7-0.7-3.5c-1.3-2.5-4.3-3.6-6.9-2.6c-2.3,0.9-4.8,2.6-3.7,5.9c1.9,5.5,2,4.5,2,4.5
		L75.1,87.5z"/>
</g>
<path class="st2" d="M101.2,80.7c-0.3-2.3-3.6-1.7-3.6-1.7c-8-1.4-13.5,3.7-13.5,3.7c-0.7,2.6-0.4,3.6,0.2,5c1,4,4.7,5,4.7,5
	c8.3-1.5,12-5.8,12-5.8C101.3,84.5,101.9,82.1,101.2,80.7z M82.8,77.8c0,0-0.8-4.2,2.9-5.8c3.7-1.5,7.5-2,10.6-0.5
	c3.1,1.5,6.2,7.5,6.2,7.5l-2.4-0.6c0,0-2-4-6.7-4.1c-4.6-0.1-6.8,0.8-8.3,1.9C83.8,77.4,82.8,77.8,82.8,77.8z"/>
<linearGradient id="SVGID_1_" gradientUnits="userSpaceOnUse" x1="84.7402" y1="-80.7273" x2="95.6928" y2="-87.1626" gradientTransform="matrix(1 0 0 1 0 157.8898)">
	<stop  offset="0" style="stop-color:#663010"/>
	<stop  offset="1" style="stop-color:#000000"/>
</linearGradient>
<path class="st9" d="M83.8,75.5c0,0,0-1.7,1.8-2.7c1.8-1,8-2.6,11.8,0.8c0,0-4-0.7-7.3-0.1l0.4-0.9C90.5,72.5,86.1,72.7,83.8,75.5z"
	/>
<path class="st10" d="M96.4,90.1c-2,0.9-1.3-0.7-2.3,0.7c-1.8,1.1-3.9,1.7-5.5,2c-3.1-0.9-5.4-6.5-4.3-9.5c4.4-1.9,9.8-3.2,11.2-3.1
	c1.4,1.2,3.9,6.8,2.4,8.3L96.4,90.1z"/>
<path class="st4" d="M98.2,88.9c-1.8,1-3.5,0.6-4.5,2.1c-2.1,0.9-3.7,1.9-5.2,2.1c-2.5-0.9-5.9-6-5.2-8.6c1.7-1.4,10.8-4.3,12.8-3.6
	c1.5,1,3,6,2.4,7.7C98.5,88.5,98.2,88.9,98.2,88.9z"/>
<path class="st11" d="M91.1,84.1c2.4-0.2,4.4,1.7,4.6,4c0.2,2.4-1.5,4.5-3.9,4.7c-2.4,0.2-4.4-1.7-4.6-4
	C87,86.4,88.7,84.3,91.1,84.1z"/>
<path class="st12" d="M105.1,83.4c-3.7,5.5-10.6,13.3-20.3,15.1c0,0-2.7,2.2-4.7,2c0,0-4.1,3.8-9.4,1.4c0,0,2.1,3.1,7.4,8.1
	c2.4,2.3,3.5,5.6,9,5.1c5.5-0.6,10.3-1.3,13.5-5.6l4.5-6.1C106.7,97,106.2,89.9,105.1,83.4z"/>
<path class="st13" d="M112.1,87.8c0,0-2.6-7.7-3.6-10c0,0-1.2,2.4-3.3,5.6c1.1,6.5,1.5,13.7-0.1,20.2l6.8-8.9
	C111.8,94.6,112.8,91.4,112.1,87.8L112.1,87.8z"/>
<path class="st7" d="M75.5,104.8c0,0,20.5-3,27.2-13.5c0,0,1.8,15.1-7.5,18.8l-2.3-1.1l-5.1,1.2l2,1.5
	C89.9,111.7,85,114.5,75.5,104.8L75.5,104.8z"/>
<g>
	<path class="st4" d="M74.6,87.3c2.1,1.6,3.3,5.5,3.4,8.5c-1.9,1.3-5.7,2.7-7.7,2.2c-2-1.9-3.3-5.8-2.3-8.5
		C69,86.8,72.4,85.6,74.6,87.3z"/>
	<path class="st4" d="M74.6,87.3c1.1,0.8,2,2.1,2.8,3.6c-0.8,3.4-7,6.5-9.6,2.2c-0.2-1.3-0.2-2.5,0.2-3.6
		C69,86.8,72.4,85.6,74.6,87.3z"/>
</g>
<path class="st10" d="M71.5,90.3c2.4-1.2,4.6,0.2,5.4,1.8c0.8,1.7,0.5,4.2-1.8,5.4c-2.4,1.2-4.6-0.2-5.4-1.8
	C68.9,94.1,69.2,91.5,71.5,90.3z M100.8,78.1l8.8-5.6v3l-2.5,1.2l-0.7,2l-4.9,3.8L100.8,78.1z"/>
<path class="st4" d="M62.3,90.3l1.2,3l12.6-5.1l-1-1.9C75.1,86.2,65.5,85.9,62.3,90.3z M79.4,85.2l1.7,3.2l19-7.3v-2.7
	C100.1,78.5,84.2,79.1,79.4,85.2z"/>
<path class="st2" d="M62.5,85c0,0-0.6-3.2,3.7-5c4.2-1.7,6.7,0.2,8.1,3.2c0,0-3.6-2.7-7.3-0.4c-3,1.9-3.5,3.9-3.5,3.9
	S62.7,86.2,62.5,85z"/>
<linearGradient id="SVGID_2_" gradientUnits="userSpaceOnUse" x1="63.3821" y1="-73.6674" x2="71.0712" y2="-78.1853" gradientTransform="matrix(1 0 0 1 0 157.8898)">
	<stop  offset="0" style="stop-color:#663010"/>
	<stop  offset="1" style="stop-color:#000000"/>
</linearGradient>
<path class="st14" d="M63.4,84.4c0,0,0.6-3.7,4.7-4.1c0,0,2.1,0.2,3.7,0.7C71.8,81.1,66.4,80.4,63.4,84.4z"/>
<path class="st2" d="M95.4,97.2c2.1-1.3,6.2-5.9,6.1-5.6c-1.9,5.7-3.9,12.2-5.6,14.1c-2,2.2-8.9,5.1-15.1,3.2
	c1.1-0.3,1.2-0.4,1.8-0.7c-0.8-1.1-3.2-2.9-4.8-3.7C76.7,104.7,89.3,100.7,95.4,97.2z"/>
<path class="st4" d="M97.8,97.2c-0.6,0.6-1.4,1.7-2.1,2c-4.9,2.8-9.1,4.3-14.3,5.9c0.3,0.3,0,0,0.3,0.2s0.6,0.4,0.9,0.6
	c0.5,0.1,1.4-0.2,1.9-0.2c-0.6,0.6-0.7,0.9-0.5,1.8c2.8-0.4,8.2-0.6,10.1-2.6c0.7-0.7,2.9-5.8,3.4-6.6
	C97.5,98.1,97.9,97.8,97.8,97.2z"/>
<path class="st2" d="M75.2,120.1c0,0,5.7-1.9,7.9,5.3l0.7-1.2c0,0-2.9-7.3-8.3-5C75.5,119.3,75.2,120.1,75.2,120.1z M108.5,129.3
	l5.4-1.4l0.1,1.4H108.5z M113.5,132.6c0,0-1.7,0.6-4.4,0c0,0,0.6,1.7,4.4,1.7V132.6z"/>
<path class="st15" d="M102,76.3c-6.4,0.9-15.2,3.6-21.6,6.7c-0.9,0.4-1.4,0.6-2,1.5c-0.4,0.6-1.4,0.9-2,0.8
	c-0.6-0.1-1.2-0.2-1.8-0.2c-4.7,0.3-9.2,1.8-14,4.2c-0.1,0.4,0.3,1.5,0.7,1.7c0.3,0.1,0.7,0.2,0.7,0.4c0.4,1.5,1.6,5,2.9,6.7
	c0.4,0.6,1.3,0.9,2.4,1.1c2.4,0.3,5.8-0.4,8.3-1.3v-0.1c2.9-1,3.2-2.8,2.7-5.6c-0.3-1.5-0.8-3.1-1.3-4.5c0.5-0.8,1.3-0.9,2.2-0.6
	c0.9,2.9,2.4,6.4,4,7.4c1.6,1,9.6-1.7,14.6-4.5c2.3-1.3,4.4-2.7,4.6-5.5c0.1-1.5-0.2-3.2-0.7-5.1c-0.1-0.3,0.9-0.9,0.9-1.2
	C102.7,77.7,102.3,76.9,102,76.3z M77.2,94.1c0,0.9-0.2,1.8-0.9,2.1c-2.2,1-6.6,2.1-9.2,1.7c-0.7-0.2-1.3-0.4-1.6-0.8
	c-0.9-1.4-2-4.4-2.5-6.1c-0.1-0.4,0.1-0.7,0.4-0.8c3.6-1.5,7.4-2.6,11.2-3c0.6-0.1,0.8,0.3,1,0.8c0.3,0.8,0.6,1.7,0.8,2.5
	C76.7,91.3,77.2,92.8,77.2,94.1z M99.8,87.2c-3.4,2.9-14.6,7.2-16,6.3c-1.4-0.8-2.9-4.8-3.5-7.2l0,0c-0.2-0.6,0.1-1,0.6-1.2
	c5.3-2.5,12.6-5,18.3-6.1c0.4-0.1,0.9,0.2,1,0.6C100.9,82.5,101.7,85.6,99.8,87.2z"/>
<path class="st2" d="M108,110.4l2.2,1.8c0.6,0.6,1.7,3.3,1.7,3.3l0.4,1.8l-1.5-1.3v-0.6l-0.9-2.8l-1.1-1L108,110.4L108,110.4z
	 M112.1,83.1l-3.2-3.5c-1.8-3.5,0.5-12.3,5.1-13.4c4.1-0.9,5.8,6.6,6,9.4c0.3,4-2.1,9.7-5.8,11.6c-1.6,0.8-3.3,0.7-4.1-0.9
	L112.1,83.1L112.1,83.1z"/>
<path class="st7" d="M110.1,86.4c-0.7-2.3-0.9-4.4-1.1-6.6c-0.2-2.9,1.1-11.1,5.3-12.1c2.7-0.7,4.4,4.8,4.6,8.2
	C119.4,82,113.7,89.1,110.1,86.4L110.1,86.4z"/>
<path class="st2" d="M112.5,82.5c1.3-1.4,0.7-4.3-1.5-2.8c-0.4-3.3,0.7-8.3,3.4-9c2.1-0.6,4.7,6.6-0.1,10.4
	C114.3,81.2,112.5,82.5,112.5,82.5z"/>
<path class="st6" d="M112.3,82.8c1.5-2.4-0.1-3.8-1.4-3c0.2-1.9,1.9-5.3,4-5.8c1.4-0.4,2,3,1.8,4.4
	C116.3,81.1,113.9,83.2,112.3,82.8L112.3,82.8z M70.3,127.7c0,0-0.1,8,8.3,7.2l1.2,3.6C79.7,138.6,65.9,137.9,70.3,127.7L70.3,127.7
	z"/>
<linearGradient id="SVGID_3_" gradientUnits="userSpaceOnUse" x1="110.1239" y1="-69.683" x2="114.6393" y2="-69.683" gradientTransform="matrix(1 0 0 1 0 157.8898)">
	<stop  offset="0" style="stop-color:#663010"/>
	<stop  offset="1" style="stop-color:#000000"/>
</linearGradient>
<path class="st16" d="M110.1,86.4c0,0,0.1,2.9,2.3,3.5c2.1,0.6,2.3-2.4,2.3-2.4S110.6,88.1,110.1,86.4L110.1,86.4z"/>
<path class="st6" d="M99.3,131.7c0,0,4.5,6.4,13.5,2.6l-0.8,2.6c0,0-8,3.9-12.7-1.9l-1.2,0.3L99.3,131.7z"/>
<g>
	
		<linearGradient id="E_2_" gradientUnits="userSpaceOnUse" x1="77.9308" y1="-25.1187" x2="99.3498" y2="-25.1187" gradientTransform="matrix(1 0 0 1 0 157.8898)">
		<stop  offset="0" style="stop-color:#232323"/>
		<stop  offset="1" style="stop-color:#000000"/>
	</linearGradient>
	<path id="E" class="st17" d="M99.3,131.7c0,5.7-5.4,10.8-11.9,10.8c-6.3,0-10.4-4.8-9.4-10.4c0.9-5,5.8-9,11.2-9.2
		C94.8,122.8,99.3,126.5,99.3,131.7z"/>
</g>
<g>
	<path id="E_1_" class="st10" d="M98.1,129.4c0,5.7-5.4,10.8-11.9,10.8c-6.3,0-10.4-4.8-9.4-10.4c0.9-5,5.8-9,11.2-9.2
		C93.5,120.5,98.1,124.2,98.1,129.4z"/>
</g>
<path class="st4" d="M96.5,129.4c-0.1,4.8-4.7,9.1-10.1,9.1c-5.3,0-8.9-4-8-8.7c0.7-4.3,5-7.8,9.6-7.9
	C92.7,121.7,96.5,124.9,96.5,129.4L96.5,129.4z"/>
<path class="st2" d="M99.2,83.4l-5.6,0.1l5.6-2V83.4z"/>
<path class="st6" d="M76.2,99.5c0.9,0.6,1.8,0.2,2.7-0.2c0.8-0.4,1.5-1,2.4-1.6c0.9,0,1.5,0.4,2.1,1c-1.4,1.1-3,2.1-4.6,2.6
	C77.4,101.5,76.1,100.5,76.2,99.5z"/>
<path class="st2" d="M74.8,99.3c2.2-2.4,3.6-6.6,2.9-10c-0.1-0.6,0.3,0.1,0.3,0.3c1.4,3.9-0.1,7.8-1.9,9.9c0,0.8,1.5,1.8,2.6,1.8
	C77.2,101.7,75.7,101.1,74.8,99.3L74.8,99.3z"/>
<path class="st1" d="M108.9,52.6c-5.8,0.4-10.5-1.1-16.1-0.8c-4,2.7-7.2,6.3-9.8,10c-0.1,0-0.2,0.1-0.3,0.1c1.2-4.1,4-9.5,7.4-14.2
	h-0.1c-3.1,1.2-10.8,2.2-13.6,7.9c-1.8,2.8-2.8,9.4-2.2,13.8c1.7-1.4,3.4-2.6,5-3.6c0,0,12.6-5.7,23.1-5.2c0,0-3-2.1-8.1-2.4
	C104.3,57.5,105.7,54.1,108.9,52.6z"/>
<path class="st8" d="M62.3,73.2l-3.2,4l-2.4-3.6l3.2-2L62.3,73.2z"/>
<path class="st2" d="M69,74.9c0.4-0.1-8.4,3.5-8.4,3.5l0.8-4.2C61.4,74.2,67.6,75.1,69,74.9z"/>
<g id="circl">
	<path class="st18" d="M91.5,130.4c0.1,2.3-1.9,4.1-4.1,4.1c-2.3,0-4.1-1.9-4.1-4.1c0-2.3,1.9-4.1,4.1-4.1c1.4,0,2.1,0.1,2.9,1.2
		c1.7-0.2,1.9-1,1.7-1.9c-1.2-1.4-2.4-1.7-4.4-1.7c-3.7,0-6.7,3-6.7,6.7c0,3.7,3,6.7,6.7,6.7c3.7,0,6.8-3,6.7-6.7
		C94,129,91.5,129.4,91.5,130.4z"/>
	<circle class="st8" cx="90.8" cy="126.3" r="1.3"/>
</g>
<g id="orig" class="st19">
	<path class="st20" d="M94.1,160.9c-0.6,2.5-2.4,5-5.2,6.9c-5.6,3.8-12.2,2.8-14.4-1.5c-1.9-3.8,0.3-8.9,4.7-11.9s10.1-3.2,13.2-0.2
		"/>
	<path class="st21" d="M95.3,153.8c0-1.2-1.2-2-2.8-1.7c-1.5,0.2-2.8,1.4-2.9,2.5c-0.1,1.2,1.1,2.1,2.7,1.9S95.2,155,95.3,153.8z"/>
</g>
</svg>
