<svg xmlns="http://www.w3.org/2000/svg" width="26" height="20" viewBox="0 0 26 20">
    <g>
        <g>
            <path fill="#ffffff"
                d="M25.544 2.795v14.093a2.351 2.351 0 0 1-2.348 2.349H2.839a2.351 2.351 0 0 1-2.349-2.35V2.796A2.351 2.351 0 0 1 2.84.446h20.356a2.351 2.351 0 0 1 2.348 2.35zM2.84 2.012a.777.777 0 0 0-.3.06l10.478 9.082 10.479-9.081a.777.777 0 0 0-.3-.06zm21.14 14.876V3.728L13.53 12.781a.78.78 0 0 1-1.026 0L2.056 3.727v13.16c0 .433.351.784.783.784h20.357c.432 0 .782-.351.783-.783z" />
        </g>
    </g>
</svg>