<svg xmlns="http://www.w3.org/2000/svg" width="20" height="20" viewBox="0 0 20 20">
    <g>
        <g>
            <path fill="#ffffff"
                d="M19.328 11.168a1.462 1.462 0 0 0-1.778.135c-.59.524-2.714 2.233-5.211 2.252a5.064 5.064 0 0 1-1.097-.11 6.096 6.096 0 0 1-4.688-4.682 5.006 5.006 0 0 1-.109-1.065c.007-1.667.867-3.618 2.3-5.216.451-.504.51-1.224.146-1.794a1.47 1.47 0 0 0-1.686-.62 10.14 10.14 0 0 0-5.114 3.56 10.1 10.1 0 0 0-2.09 5.995 10.069 10.069 0 0 0 .769 4.063 10.187 10.187 0 0 0 2.222 3.32c.959.959 2.077 1.707 3.322 2.224a10.08 10.08 0 0 0 4.068.768 10.032 10.032 0 0 0 4.807-1.31.78.78 0 1 0-.768-1.36 8.485 8.485 0 0 1-4.067 1.108 8.561 8.561 0 0 1-6.257-2.534 8.552 8.552 0 0 1-2.533-6.25A8.602 8.602 0 0 1 7.4 1.645c-.877 1.028-2.507 3.308-2.518 6.046-.002.475.046.944.143 1.397a7.625 7.625 0 0 0 2.08 3.808 7.64 7.64 0 0 0 3.81 2.076c.463.099.946.147 1.434.144 1.135-.008 2.312-.292 3.5-.845a11.55 11.55 0 0 0 2.483-1.581 8.583 8.583 0 0 1-1.116 2.136.781.781 0 0 0 1.27.91 10.152 10.152 0 0 0 1.446-2.905 1.45 1.45 0 0 0-.605-1.664z" />
        </g>
    </g>
</svg>