<svg xmlns="http://www.w3.org/2000/svg" width="24" height="20" viewBox="0 0 24 20">
    <g>
        <g>
            <path fill="#ffffff" d="M.351 17.79c-.684-.44-.293-1.52.5-1.412 1.53.19 3.25-.06 4.806-.815a5.488 5.488 0 0 1-3.08-3.348.776.776 0 0 1 .194-.797A5.46 5.46 0 0 1 .91 7.32c0-.375.251-.724.659-.796-.856-1.601-.866-3.584.118-5.295a.753.753 0 0 1 1.239-.103 12.508 12.508 0 0 0 8.146 4.517c-.094-2.051.95-3.929 2.827-4.954 2.149-1.176 4.698-.82 6.411.876.84.239 1.655.098 2.549-.434A.759.759 0 0 1 24 1.794c0 1.539-1.12 3.118-2.072 3.944a14.189 14.189 0 0 1-3.824 9.925C15.48 18.46 11.86 20 7.908 20a13.92 13.92 0 0 1-7.557-2.21zm7.764-1.963a10.161 10.161 0 0 1-4.29 1.955c1.302.447 2.68.679 4.084.679 3.532 0 6.763-1.371 9.099-3.861a12.614 12.614 0 0 0 3.393-9.19.773.773 0 0 1 .323-.668c.5-.355 1.035-.986 1.382-1.65-.775.183-2.299.165-2.75-.318-1.52-1.618-3.503-1.408-4.738-.73-1.248.681-2.41 2.162-1.93 4.274.111.489-.269.972-.775.94A14 14 0 0 1 2.578 3.03 3.848 3.848 0 0 0 4.191 7.2c.626.418.336 1.416-.431 1.412a5.128 5.128 0 0 1-1.156-.156 3.912 3.912 0 0 0 2.948 2.687c.78.16.817 1.286.048 1.497a5.299 5.299 0 0 1-1.035.168 3.937 3.937 0 0 0 3.104 1.64c.712.014 1.013.936.446 1.378z" />
        </g>
    </g>
</svg>